M48
; DRILL file {KiCad 9.0.0} date 2025-03-07T17:01:12+0900
; FORMAT={-:-/ absolute / metric / decimal}
; #@! TF.CreationDate,2025-03-07T17:01:12+09:00
; #@! TF.GenerationSoftware,Kicad,Pcbnew,9.0.0
; #@! TF.FileFunction,MixedPlating,1,2
FMAT,2
METRIC
; #@! TA.AperFunction,Plated,PTH,ViaDrill
T1C0.300
; #@! TA.AperFunction,Plated,PTH,ComponentDrill
T2C0.800
; #@! TA.AperFunction,Plated,PTH,ComponentDrill
T3C0.950
; #@! TA.AperFunction,Plated,PTH,ComponentDrill
T4C1.000
; #@! TA.AperFunction,Plated,PTH,ComponentDrill
T5C1.020
; #@! TA.AperFunction,NonPlated,NPTH,ComponentDrill
T6C2.700
%
G90
G05
T1
X88.0Y-60.0
X92.6Y-71.2
X100.0Y-53.5
X106.5Y-53.5
X114.5Y-53.5
X149.5Y-68.5
X150.5Y-61.5
X155.8Y-55.8
X156.3Y-61.8
X156.3Y-64.3
X156.983Y-70.617
X166.413Y-71.213
X167.8Y-66.2
X167.8Y-71.2
X172.6Y-61.525
X174.5Y-58.3
X178.593Y-59.668
T2
X95.0Y-52.0
X97.54Y-52.0
X97.54Y-64.7
X100.08Y-52.0
X102.62Y-52.0
X105.16Y-52.0
X107.7Y-52.0
X110.24Y-52.0
X112.78Y-52.0
X115.32Y-52.0
X115.32Y-64.7
X117.86Y-52.0
T3
X84.95Y-58.75
X84.95Y-61.25
X84.95Y-63.75
X84.95Y-66.25
X214.55Y-58.75
X214.55Y-61.25
X214.55Y-63.75
X214.55Y-66.25
T4
X92.38Y-58.75
X92.38Y-61.29
X92.38Y-63.83
X92.38Y-66.37
X100.0Y-58.75
X100.0Y-61.29
X100.0Y-63.83
X100.0Y-66.37
X108.51Y-69.0
X111.05Y-69.0
X113.59Y-69.0
X116.13Y-69.0
X118.67Y-69.0
X121.21Y-69.0
X123.75Y-69.0
T5
X134.15Y-68.5
X136.69Y-68.5
X139.23Y-68.5
X141.77Y-68.5
X144.31Y-68.5
X146.85Y-68.5
X184.5Y-58.5
X187.04Y-58.5
X189.58Y-58.5
X192.12Y-58.5
X194.66Y-58.5
X197.2Y-58.5
T6
X83.0Y-53.0
X83.0Y-72.0
X147.0Y-53.0
X217.0Y-53.0
X217.0Y-72.0
M30
