%TF.GenerationSoftware,KiCad,Pcbnew,9.0.0*%
%TF.CreationDate,2025-03-07T17:00:58+09:00*%
%TF.ProjectId,Airdata,41697264-6174-4612-9e6b-696361645f70,rev?*%
%TF.SameCoordinates,Original*%
%TF.FileFunction,Copper,L2,Bot*%
%TF.FilePolarity,Positive*%
%FSLAX46Y46*%
G04 Gerber Fmt 4.6, Leading zero omitted, Abs format (unit mm)*
G04 Created by KiCad (PCBNEW 9.0.0) date 2025-03-07 17:00:58*
%MOMM*%
%LPD*%
G01*
G04 APERTURE LIST*
G04 Aperture macros list*
%AMRoundRect*
0 Rectangle with rounded corners*
0 $1 Rounding radius*
0 $2 $3 $4 $5 $6 $7 $8 $9 X,Y pos of 4 corners*
0 Add a 4 corners polygon primitive as box body*
4,1,4,$2,$3,$4,$5,$6,$7,$8,$9,$2,$3,0*
0 Add four circle primitives for the rounded corners*
1,1,$1+$1,$2,$3*
1,1,$1+$1,$4,$5*
1,1,$1+$1,$6,$7*
1,1,$1+$1,$8,$9*
0 Add four rect primitives between the rounded corners*
20,1,$1+$1,$2,$3,$4,$5,0*
20,1,$1+$1,$4,$5,$6,$7,0*
20,1,$1+$1,$6,$7,$8,$9,0*
20,1,$1+$1,$8,$9,$2,$3,0*%
G04 Aperture macros list end*
%TA.AperFunction,ComponentPad*%
%ADD10RoundRect,0.250000X0.725000X-0.600000X0.725000X0.600000X-0.725000X0.600000X-0.725000X-0.600000X0*%
%TD*%
%TA.AperFunction,ComponentPad*%
%ADD11O,1.950000X1.700000*%
%TD*%
%TA.AperFunction,ComponentPad*%
%ADD12C,1.600000*%
%TD*%
%TA.AperFunction,ComponentPad*%
%ADD13C,2.000000*%
%TD*%
%TA.AperFunction,ComponentPad*%
%ADD14C,1.778000*%
%TD*%
%TA.AperFunction,ComponentPad*%
%ADD15RoundRect,0.250000X-0.725000X0.600000X-0.725000X-0.600000X0.725000X-0.600000X0.725000X0.600000X0*%
%TD*%
%TA.AperFunction,ComponentPad*%
%ADD16C,1.400000*%
%TD*%
%TA.AperFunction,ViaPad*%
%ADD17C,0.600000*%
%TD*%
%TA.AperFunction,Conductor*%
%ADD18C,0.200000*%
%TD*%
G04 APERTURE END LIST*
D10*
%TO.P,PitoTube,1,Pin_1*%
%TO.N,/SCL1*%
X214550000Y-66250000D03*
D11*
%TO.P,PitoTube,2,Pin_2*%
%TO.N,+3V3*%
X214550000Y-63750000D03*
%TO.P,PitoTube,3,Pin_3*%
%TO.N,GND*%
X214550000Y-61250000D03*
%TO.P,PitoTube,4,Pin_4*%
%TO.N,/SDA1*%
X214550000Y-58750000D03*
%TD*%
D12*
%TO.P,AS5600,1,5V*%
%TO.N,+3V3*%
X134150000Y-68500000D03*
%TO.P,AS5600,2,3V3*%
X136690000Y-68500000D03*
%TO.P,AS5600,3,GND*%
%TO.N,GND*%
X139230000Y-68500000D03*
%TO.P,AS5600,4,SCL*%
%TO.N,/SCL*%
X141770000Y-68500000D03*
%TO.P,AS5600,5,SDA*%
%TO.N,/SDA*%
X144310000Y-68500000D03*
%TO.P,AS5600,6,OUT*%
%TO.N,unconnected-(U4-OUT-Pad6)*%
X146850000Y-68500000D03*
%TD*%
D13*
%TO.P,U2,1,VIN*%
%TO.N,+3V3*%
X92380000Y-58750000D03*
%TO.P,U2,2,GND*%
%TO.N,GND*%
X92380000Y-61290000D03*
%TO.P,U2,3,SDA*%
%TO.N,/SDA*%
X92380000Y-63830000D03*
%TO.P,U2,4,SCL*%
%TO.N,/SCL*%
X92380000Y-66370000D03*
%TO.P,U2,5,RESET*%
%TO.N,unconnected-(U2-RESET-Pad5)*%
X100000000Y-66370000D03*
%TO.P,U2,6,INT*%
%TO.N,unconnected-(U2-INT-Pad6)*%
X100000000Y-63830000D03*
%TO.P,U2,7,GND*%
%TO.N,GND*%
X100000000Y-61290000D03*
%TO.P,U2,8,VOUT*%
%TO.N,unconnected-(U2-VOUT-Pad8)*%
X100000000Y-58750000D03*
%TD*%
D12*
%TO.P,AoA,1,5V*%
%TO.N,+3V3*%
X184500000Y-58500000D03*
%TO.P,AoA,2,3V3*%
X187040000Y-58500000D03*
%TO.P,AoA,3,GND*%
%TO.N,GND*%
X189580000Y-58500000D03*
%TO.P,AoA,4,SCL*%
%TO.N,/SCL1*%
X192120000Y-58500000D03*
%TO.P,AoA,5,SDA*%
%TO.N,/SDA1*%
X194660000Y-58500000D03*
%TO.P,AoA,6,OUT*%
%TO.N,unconnected-(U3-OUT-Pad6)*%
X197200000Y-58500000D03*
%TD*%
D14*
%TO.P,DPS310-Adafruits1,1,VIN*%
%TO.N,+3V3*%
X108510000Y-69000000D03*
%TO.P,DPS310-Adafruits1,2,3V3*%
%TO.N,unconnected-(DPS310-Adafruits1-3V3-Pad2)*%
X111050000Y-69000000D03*
%TO.P,DPS310-Adafruits1,3,GND*%
%TO.N,GND*%
X113590000Y-69000000D03*
%TO.P,DPS310-Adafruits1,4,SCK*%
%TO.N,/SCL*%
X116130000Y-69000000D03*
%TO.P,DPS310-Adafruits1,5,SDO*%
%TO.N,unconnected-(DPS310-Adafruits1-SDO-Pad5)*%
X118670000Y-69000000D03*
%TO.P,DPS310-Adafruits1,6,SDI*%
%TO.N,/SDA*%
X121210000Y-69000000D03*
%TO.P,DPS310-Adafruits1,7,CS*%
%TO.N,unconnected-(DPS310-Adafruits1-CS-Pad7)*%
X123750000Y-69000000D03*
%TD*%
D15*
%TO.P,Air-UART,1,Pin_1*%
%TO.N,GND*%
X84950000Y-58750000D03*
D11*
%TO.P,Air-UART,2,Pin_2*%
%TO.N,+5V*%
X84950000Y-61250000D03*
%TO.P,Air-UART,3,Pin_3*%
%TO.N,/RTXR*%
X84950000Y-63750000D03*
%TO.P,Air-UART,4,Pin_4*%
%TO.N,/RRXT*%
X84950000Y-66250000D03*
%TD*%
D16*
%TO.P,J1,1,DAT2*%
%TO.N,unconnected-(J1-DAT2-Pad1)*%
X95000000Y-52000000D03*
%TO.P,J1,2,DAT3/CD*%
%TO.N,/SS*%
X97540000Y-52000000D03*
%TO.P,J1,3,CMD*%
%TO.N,Net-(J1-CMD)*%
X100080000Y-52000000D03*
%TO.P,J1,4,VDD*%
%TO.N,+3V3*%
X102620000Y-52000000D03*
%TO.P,J1,5,CLK*%
%TO.N,Net-(J1-CLK)*%
X105160000Y-52000000D03*
%TO.P,J1,6,VSS*%
%TO.N,GND*%
X107700000Y-52000000D03*
%TO.P,J1,7,DAT0*%
%TO.N,Net-(J1-DAT0)*%
X110240000Y-52000000D03*
%TO.P,J1,8,DAT1*%
%TO.N,unconnected-(J1-DAT1-Pad8)*%
X112780000Y-52000000D03*
%TO.P,J1,9,DET_B*%
%TO.N,unconnected-(J1-DET_B-Pad9)*%
X115320000Y-52000000D03*
%TO.P,J1,10,DET_A*%
%TO.N,unconnected-(J1-DET_A-Pad10)*%
X117860000Y-52000000D03*
%TO.P,J1,11,SHIELD*%
%TO.N,unconnected-(J1-SHIELD-Pad11)*%
X115320000Y-64700000D03*
%TO.P,J1,13*%
%TO.N,N/C*%
X97540000Y-64700000D03*
%TD*%
D17*
%TO.N,Net-(J1-CLK)*%
X106500000Y-53500000D03*
X114500000Y-53500000D03*
%TO.N,+3V3*%
X174500000Y-58300000D03*
X156300000Y-61800000D03*
%TO.N,Net-(J1-CMD)*%
X150500000Y-61500000D03*
X100000000Y-53500000D03*
%TO.N,GND*%
X178593198Y-59667800D03*
X156300000Y-64300000D03*
%TO.N,/RTXR*%
X92600000Y-71200000D03*
X155800000Y-55800000D03*
%TO.N,+5V*%
X88000000Y-60000000D03*
X149500000Y-68500000D03*
%TO.N,/RRXT*%
X167800000Y-71200000D03*
X167800000Y-66200000D03*
%TO.N,/SDA*%
X166413175Y-71213175D03*
X156982690Y-70617310D03*
%TO.N,/SDA1*%
X172599998Y-61525000D03*
%TD*%
D18*
%TO.N,/RTXR*%
X146248529Y-72600000D02*
X155700000Y-63148529D01*
X155700000Y-63148529D02*
X155700000Y-55900000D01*
X94000000Y-72600000D02*
X146248529Y-72600000D01*
X155700000Y-55900000D02*
X155800000Y-55800000D01*
X92600000Y-71200000D02*
X94000000Y-72600000D01*
%TO.N,Net-(J1-CLK)*%
X106500000Y-53500000D02*
X114500000Y-53500000D01*
%TO.N,+3V3*%
X157900000Y-60200000D02*
X159800000Y-58300000D01*
X212150000Y-63750000D02*
X214550000Y-63750000D01*
X98425786Y-69000000D02*
X94500000Y-65074214D01*
X94500000Y-65074214D02*
X94500000Y-60870000D01*
X187040000Y-58500000D02*
X189440000Y-60900000D01*
X156300000Y-61800000D02*
X157900000Y-60200000D01*
X174400000Y-58300000D02*
X174500000Y-58300000D01*
X189440000Y-60900000D02*
X209300000Y-60900000D01*
X159800000Y-58300000D02*
X174400000Y-58300000D01*
X209300000Y-60900000D02*
X212150000Y-63750000D01*
X108510000Y-69000000D02*
X98425786Y-69000000D01*
X94500000Y-60870000D02*
X92380000Y-58750000D01*
%TO.N,Net-(J1-CMD)*%
X146800000Y-63700000D02*
X109200000Y-63700000D01*
X149000000Y-61500000D02*
X146800000Y-63700000D01*
X109200000Y-63700000D02*
X100000000Y-54500000D01*
X150500000Y-61500000D02*
X149000000Y-61500000D01*
X100000000Y-54500000D02*
X100000000Y-53500000D01*
%TO.N,GND*%
X178560998Y-59700000D02*
X176200000Y-59700000D01*
X99710000Y-61290000D02*
X99500000Y-61500000D01*
X178593198Y-59667800D02*
X178560998Y-59700000D01*
X176200000Y-59700000D02*
X171600000Y-64300000D01*
X214550000Y-61250000D02*
X213200000Y-59900000D01*
X213200000Y-59900000D02*
X190980000Y-59900000D01*
X108000000Y-52000000D02*
X107700000Y-52000000D01*
X190980000Y-59900000D02*
X189580000Y-58500000D01*
X171600000Y-64300000D02*
X156300000Y-64300000D01*
X99710000Y-61290000D02*
X100000000Y-61290000D01*
%TO.N,+5V*%
X102000000Y-65500000D02*
X102000000Y-58500000D01*
X102000000Y-58500000D02*
X100500000Y-57000000D01*
X142500000Y-66500000D02*
X147500000Y-66500000D01*
X100500000Y-57000000D02*
X91000000Y-57000000D01*
X147500000Y-66500000D02*
X149500000Y-68500000D01*
X142500000Y-66500000D02*
X133000000Y-66500000D01*
X133000000Y-66500000D02*
X131800000Y-67700000D01*
X131800000Y-67700000D02*
X104200000Y-67700000D01*
X104200000Y-67700000D02*
X102000000Y-65500000D01*
X91000000Y-57000000D02*
X88000000Y-60000000D01*
%TO.N,/RRXT*%
X167813175Y-69400000D02*
X167813175Y-71186825D01*
X167813175Y-69400000D02*
X167813175Y-66213175D01*
X167813175Y-71186825D02*
X167800000Y-71200000D01*
X167813175Y-66213175D02*
X167800000Y-66200000D01*
%TO.N,/SDA*%
X122960000Y-70750000D02*
X121210000Y-69000000D01*
X165600000Y-70400000D02*
X166413175Y-71213175D01*
X157200000Y-70400000D02*
X165600000Y-70400000D01*
X156982690Y-70617310D02*
X157200000Y-70400000D01*
X144310000Y-68500000D02*
X142060000Y-70750000D01*
X99300000Y-70750000D02*
X92380000Y-63830000D01*
X119500000Y-70750000D02*
X99300000Y-70750000D01*
X121210000Y-69000000D02*
X119500000Y-70710000D01*
X119500000Y-70710000D02*
X119500000Y-70750000D01*
X142060000Y-70750000D02*
X122960000Y-70750000D01*
%TO.N,/SDA1*%
X195760000Y-57400000D02*
X213200000Y-57400000D01*
X213200000Y-57400000D02*
X214550000Y-58750000D01*
X172725000Y-61525000D02*
X176850000Y-57400000D01*
X193560000Y-57400000D02*
X194660000Y-58500000D01*
X176850000Y-57400000D02*
X193560000Y-57400000D01*
X194660000Y-58500000D02*
X195760000Y-57400000D01*
X172599998Y-61525000D02*
X172725000Y-61525000D01*
%TD*%
%TA.AperFunction,Conductor*%
%TO.N,GND*%
G36*
X145275095Y-50520185D02*
G01*
X145320850Y-50572989D01*
X145330794Y-50642147D01*
X145301769Y-50705703D01*
X145285369Y-50721447D01*
X145097587Y-50871197D01*
X144871197Y-51097587D01*
X144671580Y-51347900D01*
X144501243Y-51618989D01*
X144362332Y-51907440D01*
X144256590Y-52209635D01*
X144256589Y-52209637D01*
X144185347Y-52521771D01*
X144185345Y-52521783D01*
X144149500Y-52839914D01*
X144149500Y-53160085D01*
X144185345Y-53478216D01*
X144185347Y-53478228D01*
X144256589Y-53790362D01*
X144256590Y-53790364D01*
X144362332Y-54092559D01*
X144501243Y-54381010D01*
X144501245Y-54381013D01*
X144671581Y-54652101D01*
X144783101Y-54791943D01*
X144844325Y-54868716D01*
X144871198Y-54902413D01*
X145097587Y-55128802D01*
X145347899Y-55328419D01*
X145618987Y-55498755D01*
X145907442Y-55637668D01*
X146209637Y-55743410D01*
X146521771Y-55814653D01*
X146839915Y-55850499D01*
X146839916Y-55850500D01*
X146839919Y-55850500D01*
X147160084Y-55850500D01*
X147160084Y-55850499D01*
X147478229Y-55814653D01*
X147790363Y-55743410D01*
X148092558Y-55637668D01*
X148381013Y-55498755D01*
X148652101Y-55328419D01*
X148902413Y-55128802D01*
X149128802Y-54902413D01*
X149328419Y-54652101D01*
X149498755Y-54381013D01*
X149637668Y-54092558D01*
X149743410Y-53790363D01*
X149814653Y-53478229D01*
X149850500Y-53160081D01*
X149850500Y-52839919D01*
X149814653Y-52521771D01*
X149743410Y-52209637D01*
X149637668Y-51907442D01*
X149498755Y-51618987D01*
X149328419Y-51347899D01*
X149128802Y-51097587D01*
X148902413Y-50871198D01*
X148813133Y-50800000D01*
X148714631Y-50721447D01*
X148674491Y-50664259D01*
X148671641Y-50594447D01*
X148706986Y-50534177D01*
X148769305Y-50502584D01*
X148791944Y-50500500D01*
X215208056Y-50500500D01*
X215275095Y-50520185D01*
X215320850Y-50572989D01*
X215330794Y-50642147D01*
X215301769Y-50705703D01*
X215285369Y-50721447D01*
X215097587Y-50871197D01*
X214871197Y-51097587D01*
X214671580Y-51347900D01*
X214501243Y-51618989D01*
X214362332Y-51907440D01*
X214256590Y-52209635D01*
X214256589Y-52209637D01*
X214185347Y-52521771D01*
X214185345Y-52521783D01*
X214149500Y-52839914D01*
X214149500Y-53160085D01*
X214185345Y-53478216D01*
X214185347Y-53478228D01*
X214256589Y-53790362D01*
X214256590Y-53790364D01*
X214362332Y-54092559D01*
X214501243Y-54381010D01*
X214501245Y-54381013D01*
X214671581Y-54652101D01*
X214783101Y-54791943D01*
X214844325Y-54868716D01*
X214871198Y-54902413D01*
X215097587Y-55128802D01*
X215347899Y-55328419D01*
X215618987Y-55498755D01*
X215907442Y-55637668D01*
X216209637Y-55743410D01*
X216521771Y-55814653D01*
X216839915Y-55850499D01*
X216839916Y-55850500D01*
X216839919Y-55850500D01*
X217160084Y-55850500D01*
X217160084Y-55850499D01*
X217478229Y-55814653D01*
X217790363Y-55743410D01*
X218092558Y-55637668D01*
X218381013Y-55498755D01*
X218652101Y-55328419D01*
X218902413Y-55128802D01*
X219128802Y-54902413D01*
X219155675Y-54868716D01*
X219278553Y-54714631D01*
X219335741Y-54674490D01*
X219405552Y-54671640D01*
X219465823Y-54706985D01*
X219497416Y-54769304D01*
X219499500Y-54791943D01*
X219499500Y-70208056D01*
X219479815Y-70275095D01*
X219427011Y-70320850D01*
X219357853Y-70330794D01*
X219294297Y-70301769D01*
X219278553Y-70285369D01*
X219128802Y-70097587D01*
X218902412Y-69871197D01*
X218751511Y-69750858D01*
X218652101Y-69671581D01*
X218381013Y-69501245D01*
X218381010Y-69501243D01*
X218092559Y-69362332D01*
X217790364Y-69256590D01*
X217790362Y-69256589D01*
X217511728Y-69192993D01*
X217478229Y-69185347D01*
X217478225Y-69185346D01*
X217478216Y-69185345D01*
X217160085Y-69149500D01*
X217160081Y-69149500D01*
X216839919Y-69149500D01*
X216839914Y-69149500D01*
X216521783Y-69185345D01*
X216521771Y-69185347D01*
X216209637Y-69256589D01*
X216209635Y-69256590D01*
X215907440Y-69362332D01*
X215618989Y-69501243D01*
X215347900Y-69671580D01*
X215097587Y-69871197D01*
X214871197Y-70097587D01*
X214671580Y-70347900D01*
X214501243Y-70618989D01*
X214362332Y-70907440D01*
X214256590Y-71209635D01*
X214256589Y-71209637D01*
X214185347Y-71521771D01*
X214185345Y-71521783D01*
X214149500Y-71839914D01*
X214149500Y-72160085D01*
X214185345Y-72478216D01*
X214185347Y-72478228D01*
X214256589Y-72790362D01*
X214256590Y-72790364D01*
X214362332Y-73092559D01*
X214501243Y-73381010D01*
X214501245Y-73381013D01*
X214671581Y-73652101D01*
X214765047Y-73769304D01*
X214871197Y-73902412D01*
X215097587Y-74128802D01*
X215285369Y-74278553D01*
X215325509Y-74335741D01*
X215328359Y-74405553D01*
X215293014Y-74465823D01*
X215230695Y-74497416D01*
X215208056Y-74499500D01*
X201624000Y-74499500D01*
X201556961Y-74479815D01*
X201511206Y-74427011D01*
X201500000Y-74375500D01*
X201500000Y-61624500D01*
X201519685Y-61557461D01*
X201572489Y-61511706D01*
X201624000Y-61500500D01*
X208999903Y-61500500D01*
X209066942Y-61520185D01*
X209087583Y-61536818D01*
X211781284Y-64230520D01*
X211781286Y-64230521D01*
X211781290Y-64230524D01*
X211918209Y-64309573D01*
X211918216Y-64309577D01*
X212070943Y-64350501D01*
X212070945Y-64350501D01*
X212236654Y-64350501D01*
X212236670Y-64350500D01*
X213139281Y-64350500D01*
X213206320Y-64370185D01*
X213249765Y-64418205D01*
X213269947Y-64457814D01*
X213269948Y-64457815D01*
X213394890Y-64629786D01*
X213533705Y-64768601D01*
X213567190Y-64829924D01*
X213562206Y-64899616D01*
X213520334Y-64955549D01*
X213511121Y-64961821D01*
X213356342Y-65057289D01*
X213232289Y-65181342D01*
X213140187Y-65330663D01*
X213140185Y-65330668D01*
X213117377Y-65399500D01*
X213085001Y-65497203D01*
X213085001Y-65497204D01*
X213085000Y-65497204D01*
X213074500Y-65599983D01*
X213074500Y-66900001D01*
X213074501Y-66900018D01*
X213085000Y-67002796D01*
X213085001Y-67002799D01*
X213134141Y-67151092D01*
X213140186Y-67169334D01*
X213232288Y-67318656D01*
X213356344Y-67442712D01*
X213505666Y-67534814D01*
X213672203Y-67589999D01*
X213774991Y-67600500D01*
X215325008Y-67600499D01*
X215427797Y-67589999D01*
X215594334Y-67534814D01*
X215743656Y-67442712D01*
X215867712Y-67318656D01*
X215959814Y-67169334D01*
X216014999Y-67002797D01*
X216025500Y-66900009D01*
X216025499Y-65599992D01*
X216023360Y-65579057D01*
X216014999Y-65497203D01*
X216014998Y-65497200D01*
X216001188Y-65455524D01*
X215959814Y-65330666D01*
X215867712Y-65181344D01*
X215743656Y-65057288D01*
X215594334Y-64965186D01*
X215594333Y-64965185D01*
X215588878Y-64961821D01*
X215542154Y-64909873D01*
X215530931Y-64840910D01*
X215558775Y-64776828D01*
X215566272Y-64768623D01*
X215705104Y-64629792D01*
X215830051Y-64457816D01*
X215926557Y-64268412D01*
X215992246Y-64066243D01*
X216025500Y-63856287D01*
X216025500Y-63643713D01*
X215992246Y-63433757D01*
X215926557Y-63231588D01*
X215830051Y-63042184D01*
X215830049Y-63042181D01*
X215830048Y-63042179D01*
X215705109Y-62870213D01*
X215554790Y-62719894D01*
X215554785Y-62719890D01*
X215389781Y-62600008D01*
X215347115Y-62544678D01*
X215341136Y-62475065D01*
X215373741Y-62413270D01*
X215389781Y-62399371D01*
X215554466Y-62279721D01*
X215704723Y-62129464D01*
X215704727Y-62129459D01*
X215829620Y-61957557D01*
X215926095Y-61768217D01*
X215991757Y-61566129D01*
X215991757Y-61566126D01*
X216002231Y-61500000D01*
X214954146Y-61500000D01*
X214992630Y-61433343D01*
X215025000Y-61312535D01*
X215025000Y-61187465D01*
X214992630Y-61066657D01*
X214954146Y-61000000D01*
X216002231Y-61000000D01*
X215991757Y-60933873D01*
X215991757Y-60933870D01*
X215926095Y-60731782D01*
X215829620Y-60542442D01*
X215704727Y-60370540D01*
X215704723Y-60370535D01*
X215554464Y-60220276D01*
X215554459Y-60220272D01*
X215389781Y-60100627D01*
X215347115Y-60045297D01*
X215341136Y-59975684D01*
X215373741Y-59913889D01*
X215389776Y-59899994D01*
X215554792Y-59780104D01*
X215705104Y-59629792D01*
X215705106Y-59629788D01*
X215705109Y-59629786D01*
X215830048Y-59457820D01*
X215830047Y-59457820D01*
X215830051Y-59457816D01*
X215926557Y-59268412D01*
X215992246Y-59066243D01*
X216025500Y-58856287D01*
X216025500Y-58643713D01*
X215992246Y-58433757D01*
X215926557Y-58231588D01*
X215830051Y-58042184D01*
X215830049Y-58042181D01*
X215830048Y-58042179D01*
X215705109Y-57870213D01*
X215554786Y-57719890D01*
X215382820Y-57594951D01*
X215193414Y-57498444D01*
X215193413Y-57498443D01*
X215193412Y-57498443D01*
X214991243Y-57432754D01*
X214991241Y-57432753D01*
X214991240Y-57432753D01*
X214829957Y-57407208D01*
X214781287Y-57399500D01*
X214318713Y-57399500D01*
X214250721Y-57410268D01*
X214148052Y-57426530D01*
X214078758Y-57417575D01*
X214040973Y-57391738D01*
X213687590Y-57038355D01*
X213687588Y-57038352D01*
X213568717Y-56919481D01*
X213568716Y-56919480D01*
X213481904Y-56869360D01*
X213481904Y-56869359D01*
X213481900Y-56869358D01*
X213431785Y-56840423D01*
X213279057Y-56799499D01*
X213120943Y-56799499D01*
X213113347Y-56799499D01*
X213113331Y-56799500D01*
X195846669Y-56799500D01*
X195846653Y-56799499D01*
X195839057Y-56799499D01*
X195680943Y-56799499D01*
X195573587Y-56828265D01*
X195528210Y-56840424D01*
X195528209Y-56840425D01*
X195478096Y-56869359D01*
X195478095Y-56869360D01*
X195434689Y-56894420D01*
X195391285Y-56919479D01*
X195391282Y-56919481D01*
X195279478Y-57031286D01*
X195104842Y-57205921D01*
X195043519Y-57239406D01*
X194978848Y-57236173D01*
X194964534Y-57231522D01*
X194789995Y-57203878D01*
X194762352Y-57199500D01*
X194557648Y-57199500D01*
X194519599Y-57205526D01*
X194355468Y-57231522D01*
X194346717Y-57234365D01*
X194341154Y-57236173D01*
X194325941Y-57236607D01*
X194311684Y-57241925D01*
X194291729Y-57237584D01*
X194271313Y-57238167D01*
X194257226Y-57230078D01*
X194243411Y-57227073D01*
X194215157Y-57205922D01*
X194047590Y-57038355D01*
X194047588Y-57038352D01*
X193928717Y-56919481D01*
X193928716Y-56919480D01*
X193841904Y-56869360D01*
X193841904Y-56869359D01*
X193841900Y-56869358D01*
X193791785Y-56840423D01*
X193639057Y-56799499D01*
X193480943Y-56799499D01*
X193473347Y-56799499D01*
X193473331Y-56799500D01*
X176936669Y-56799500D01*
X176936653Y-56799499D01*
X176929057Y-56799499D01*
X176770943Y-56799499D01*
X176663587Y-56828265D01*
X176618210Y-56840424D01*
X176618209Y-56840425D01*
X176568096Y-56869359D01*
X176568095Y-56869360D01*
X176524689Y-56894420D01*
X176481285Y-56919479D01*
X176481282Y-56919481D01*
X176369478Y-57031286D01*
X175419860Y-57980903D01*
X175358537Y-58014388D01*
X175288845Y-58009404D01*
X175232912Y-57967532D01*
X175217618Y-57940675D01*
X175209395Y-57920823D01*
X175209390Y-57920814D01*
X175121789Y-57789711D01*
X175121786Y-57789707D01*
X175010292Y-57678213D01*
X175010288Y-57678210D01*
X174879185Y-57590609D01*
X174879172Y-57590602D01*
X174733501Y-57530264D01*
X174733489Y-57530261D01*
X174578845Y-57499500D01*
X174578842Y-57499500D01*
X174421158Y-57499500D01*
X174421155Y-57499500D01*
X174266510Y-57530261D01*
X174266498Y-57530264D01*
X174120827Y-57590602D01*
X174120814Y-57590609D01*
X173989125Y-57678602D01*
X173922447Y-57699480D01*
X173920234Y-57699500D01*
X159886670Y-57699500D01*
X159886654Y-57699499D01*
X159879058Y-57699499D01*
X159720943Y-57699499D01*
X159644844Y-57719890D01*
X159568214Y-57740423D01*
X159568209Y-57740426D01*
X159431290Y-57819475D01*
X159431282Y-57819481D01*
X156512181Y-60738583D01*
X156450858Y-60772068D01*
X156381166Y-60767084D01*
X156325233Y-60725212D01*
X156300816Y-60659748D01*
X156300500Y-60650902D01*
X156300500Y-56482940D01*
X156320185Y-56415901D01*
X156336814Y-56395263D01*
X156421789Y-56310289D01*
X156509394Y-56179179D01*
X156569737Y-56033497D01*
X156600500Y-55878842D01*
X156600500Y-55721158D01*
X156600500Y-55721155D01*
X156600499Y-55721153D01*
X156569737Y-55566503D01*
X156569735Y-55566498D01*
X156509397Y-55420827D01*
X156509390Y-55420814D01*
X156421789Y-55289711D01*
X156421786Y-55289707D01*
X156310292Y-55178213D01*
X156310288Y-55178210D01*
X156179185Y-55090609D01*
X156179172Y-55090602D01*
X156033501Y-55030264D01*
X156033489Y-55030261D01*
X155878845Y-54999500D01*
X155878842Y-54999500D01*
X155721158Y-54999500D01*
X155721155Y-54999500D01*
X155566510Y-55030261D01*
X155566498Y-55030264D01*
X155420827Y-55090602D01*
X155420814Y-55090609D01*
X155289711Y-55178210D01*
X155289707Y-55178213D01*
X155178213Y-55289707D01*
X155178210Y-55289711D01*
X155090609Y-55420814D01*
X155090602Y-55420827D01*
X155030264Y-55566498D01*
X155030261Y-55566510D01*
X154999500Y-55721153D01*
X154999500Y-55878846D01*
X155030261Y-56033489D01*
X155030264Y-56033501D01*
X155090061Y-56177864D01*
X155099500Y-56225316D01*
X155099500Y-62848432D01*
X155079815Y-62915471D01*
X155063181Y-62936113D01*
X150148663Y-67850630D01*
X150087340Y-67884115D01*
X150017648Y-67879131D01*
X149992091Y-67866051D01*
X149879185Y-67790609D01*
X149879172Y-67790602D01*
X149733501Y-67730264D01*
X149733491Y-67730261D01*
X149578149Y-67699361D01*
X149516238Y-67666976D01*
X149514660Y-67665425D01*
X147987590Y-66138355D01*
X147987588Y-66138352D01*
X147868717Y-66019481D01*
X147868709Y-66019475D01*
X147775146Y-65965457D01*
X147775145Y-65965457D01*
X147731785Y-65940423D01*
X147579057Y-65899499D01*
X147420943Y-65899499D01*
X147413347Y-65899499D01*
X147413331Y-65899500D01*
X132920942Y-65899500D01*
X132768214Y-65940423D01*
X132746535Y-65952940D01*
X132724855Y-65965457D01*
X132724854Y-65965457D01*
X132631290Y-66019475D01*
X132631282Y-66019481D01*
X132519478Y-66131286D01*
X131587584Y-67063181D01*
X131526261Y-67096666D01*
X131499903Y-67099500D01*
X104500097Y-67099500D01*
X104433058Y-67079815D01*
X104412416Y-67063181D01*
X102636819Y-65287584D01*
X102603334Y-65226261D01*
X102600500Y-65199903D01*
X102600500Y-58420945D01*
X102600500Y-58420943D01*
X102559577Y-58268216D01*
X102539557Y-58233541D01*
X102523086Y-58165642D01*
X102545939Y-58099615D01*
X102600861Y-58056425D01*
X102670414Y-58049784D01*
X102732516Y-58081801D01*
X102734612Y-58083848D01*
X108831284Y-64180520D01*
X108831286Y-64180521D01*
X108831290Y-64180524D01*
X108968209Y-64259573D01*
X108968212Y-64259575D01*
X108968216Y-64259577D01*
X109120943Y-64300501D01*
X109120945Y-64300501D01*
X109286654Y-64300501D01*
X109286670Y-64300500D01*
X114022625Y-64300500D01*
X114089664Y-64320185D01*
X114135419Y-64372989D01*
X114145363Y-64442147D01*
X114145098Y-64443898D01*
X114119500Y-64605513D01*
X114119500Y-64794486D01*
X114149059Y-64981118D01*
X114207454Y-65160836D01*
X114272036Y-65287584D01*
X114293240Y-65329199D01*
X114404310Y-65482073D01*
X114537927Y-65615690D01*
X114690801Y-65726760D01*
X114770347Y-65767290D01*
X114859163Y-65812545D01*
X114859165Y-65812545D01*
X114859168Y-65812547D01*
X114955497Y-65843846D01*
X115038881Y-65870940D01*
X115225514Y-65900500D01*
X115225519Y-65900500D01*
X115414486Y-65900500D01*
X115601118Y-65870940D01*
X115607963Y-65868716D01*
X115780832Y-65812547D01*
X115949199Y-65726760D01*
X116102073Y-65615690D01*
X116235690Y-65482073D01*
X116346760Y-65329199D01*
X116432547Y-65160832D01*
X116490940Y-64981118D01*
X116491985Y-64974519D01*
X116520500Y-64794486D01*
X116520500Y-64605513D01*
X116494902Y-64443898D01*
X116503856Y-64374605D01*
X116548852Y-64321153D01*
X116615604Y-64300513D01*
X116617375Y-64300500D01*
X146713331Y-64300500D01*
X146713347Y-64300501D01*
X146720943Y-64300501D01*
X146879054Y-64300501D01*
X146879057Y-64300501D01*
X147031785Y-64259577D01*
X147082113Y-64230520D01*
X147082114Y-64230520D01*
X147168709Y-64180524D01*
X147168708Y-64180524D01*
X147168716Y-64180520D01*
X147280520Y-64068716D01*
X147280520Y-64068714D01*
X147290724Y-64058511D01*
X147290727Y-64058506D01*
X149212416Y-62136819D01*
X149273739Y-62103334D01*
X149300097Y-62100500D01*
X149920234Y-62100500D01*
X149987273Y-62120185D01*
X149989125Y-62121398D01*
X150120814Y-62209390D01*
X150120827Y-62209397D01*
X150266498Y-62269735D01*
X150266503Y-62269737D01*
X150392176Y-62294735D01*
X150421153Y-62300499D01*
X150421156Y-62300500D01*
X150421158Y-62300500D01*
X150578844Y-62300500D01*
X150578845Y-62300499D01*
X150733497Y-62269737D01*
X150879179Y-62209394D01*
X151010289Y-62121789D01*
X151121789Y-62010289D01*
X151209394Y-61879179D01*
X151269737Y-61733497D01*
X151300500Y-61578842D01*
X151300500Y-61421158D01*
X151300500Y-61421155D01*
X151300499Y-61421153D01*
X151296129Y-61399184D01*
X151269737Y-61266503D01*
X151252204Y-61224174D01*
X151209397Y-61120827D01*
X151209390Y-61120814D01*
X151121789Y-60989711D01*
X151121786Y-60989707D01*
X151010292Y-60878213D01*
X151010288Y-60878210D01*
X150879185Y-60790609D01*
X150879172Y-60790602D01*
X150733501Y-60730264D01*
X150733489Y-60730261D01*
X150578845Y-60699500D01*
X150578842Y-60699500D01*
X150421158Y-60699500D01*
X150421155Y-60699500D01*
X150266510Y-60730261D01*
X150266498Y-60730264D01*
X150120827Y-60790602D01*
X150120814Y-60790609D01*
X149989125Y-60878602D01*
X149922447Y-60899480D01*
X149920234Y-60899500D01*
X149086669Y-60899500D01*
X149086653Y-60899499D01*
X149079057Y-60899499D01*
X148920943Y-60899499D01*
X148813587Y-60928265D01*
X148768210Y-60940424D01*
X148768209Y-60940425D01*
X148724915Y-60965422D01*
X148724913Y-60965423D01*
X148631290Y-61019475D01*
X148631282Y-61019481D01*
X148553757Y-61097007D01*
X148519480Y-61131284D01*
X148519478Y-61131286D01*
X147547431Y-62103334D01*
X146587584Y-63063181D01*
X146526261Y-63096666D01*
X146499903Y-63099500D01*
X109500098Y-63099500D01*
X109433059Y-63079815D01*
X109412417Y-63063181D01*
X100636819Y-54287583D01*
X100622115Y-54260655D01*
X100605523Y-54234837D01*
X100604631Y-54228636D01*
X100603334Y-54226260D01*
X100600500Y-54199902D01*
X100600500Y-54079765D01*
X100620185Y-54012726D01*
X100621398Y-54010874D01*
X100709390Y-53879185D01*
X100709390Y-53879184D01*
X100709394Y-53879179D01*
X100769737Y-53733497D01*
X100800500Y-53578842D01*
X100800500Y-53421158D01*
X100800500Y-53421155D01*
X100800499Y-53421153D01*
X100786085Y-53348691D01*
X100769737Y-53266503D01*
X100769735Y-53266498D01*
X100716809Y-53138721D01*
X100709340Y-53069252D01*
X100740616Y-53006773D01*
X100758482Y-52990953D01*
X100862073Y-52915690D01*
X100995690Y-52782073D01*
X101106760Y-52629199D01*
X101192547Y-52460832D01*
X101232069Y-52339195D01*
X101271507Y-52281521D01*
X101335866Y-52254323D01*
X101404712Y-52266238D01*
X101456188Y-52313482D01*
X101467931Y-52339196D01*
X101507454Y-52460836D01*
X101570201Y-52583983D01*
X101593240Y-52629199D01*
X101704310Y-52782073D01*
X101837927Y-52915690D01*
X101990801Y-53026760D01*
X102037541Y-53050575D01*
X102159163Y-53112545D01*
X102159165Y-53112545D01*
X102159168Y-53112547D01*
X102239723Y-53138721D01*
X102338881Y-53170940D01*
X102525514Y-53200500D01*
X102525519Y-53200500D01*
X102714486Y-53200500D01*
X102901118Y-53170940D01*
X102934538Y-53160081D01*
X103080832Y-53112547D01*
X103249199Y-53026760D01*
X103402073Y-52915690D01*
X103535690Y-52782073D01*
X103646760Y-52629199D01*
X103732547Y-52460832D01*
X103772069Y-52339195D01*
X103811507Y-52281521D01*
X103875866Y-52254323D01*
X103944712Y-52266238D01*
X103996188Y-52313482D01*
X104007931Y-52339196D01*
X104047454Y-52460836D01*
X104110201Y-52583983D01*
X104133240Y-52629199D01*
X104244310Y-52782073D01*
X104377927Y-52915690D01*
X104530801Y-53026760D01*
X104577541Y-53050575D01*
X104699163Y-53112545D01*
X104699165Y-53112545D01*
X104699168Y-53112547D01*
X104779723Y-53138721D01*
X104878881Y-53170940D01*
X105065514Y-53200500D01*
X105065519Y-53200500D01*
X105254486Y-53200500D01*
X105441118Y-53170940D01*
X105569355Y-53129272D01*
X105639194Y-53127278D01*
X105699027Y-53163358D01*
X105729856Y-53226058D01*
X105729289Y-53271395D01*
X105699500Y-53421153D01*
X105699500Y-53578846D01*
X105730261Y-53733489D01*
X105730264Y-53733501D01*
X105790602Y-53879172D01*
X105790609Y-53879185D01*
X105878210Y-54010288D01*
X105878213Y-54010292D01*
X105989707Y-54121786D01*
X105989711Y-54121789D01*
X106120814Y-54209390D01*
X106120827Y-54209397D01*
X106244577Y-54260655D01*
X106266503Y-54269737D01*
X106421153Y-54300499D01*
X106421156Y-54300500D01*
X106421158Y-54300500D01*
X106578844Y-54300500D01*
X106578845Y-54300499D01*
X106733497Y-54269737D01*
X106879179Y-54209394D01*
X106893385Y-54199902D01*
X107010875Y-54121398D01*
X107077553Y-54100520D01*
X107079766Y-54100500D01*
X113920234Y-54100500D01*
X113987273Y-54120185D01*
X113989125Y-54121398D01*
X114120814Y-54209390D01*
X114120827Y-54209397D01*
X114244577Y-54260655D01*
X114266503Y-54269737D01*
X114421153Y-54300499D01*
X114421156Y-54300500D01*
X114421158Y-54300500D01*
X114578844Y-54300500D01*
X114578845Y-54300499D01*
X114733497Y-54269737D01*
X114879179Y-54209394D01*
X115010289Y-54121789D01*
X115121789Y-54010289D01*
X115209394Y-53879179D01*
X115269737Y-53733497D01*
X115300500Y-53578842D01*
X115300500Y-53421158D01*
X115300500Y-53421155D01*
X115300499Y-53421153D01*
X115286086Y-53348691D01*
X115292313Y-53279100D01*
X115335176Y-53223922D01*
X115401066Y-53200678D01*
X115407703Y-53200500D01*
X115414486Y-53200500D01*
X115601118Y-53170940D01*
X115634538Y-53160081D01*
X115780832Y-53112547D01*
X115949199Y-53026760D01*
X116102073Y-52915690D01*
X116235690Y-52782073D01*
X116346760Y-52629199D01*
X116432547Y-52460832D01*
X116472069Y-52339195D01*
X116511507Y-52281521D01*
X116575866Y-52254323D01*
X116644712Y-52266238D01*
X116696188Y-52313482D01*
X116707931Y-52339196D01*
X116747454Y-52460836D01*
X116810201Y-52583983D01*
X116833240Y-52629199D01*
X116944310Y-52782073D01*
X117077927Y-52915690D01*
X117230801Y-53026760D01*
X117277541Y-53050575D01*
X117399163Y-53112545D01*
X117399165Y-53112545D01*
X117399168Y-53112547D01*
X117479723Y-53138721D01*
X117578881Y-53170940D01*
X117765514Y-53200500D01*
X117765519Y-53200500D01*
X117954486Y-53200500D01*
X118141118Y-53170940D01*
X118174538Y-53160081D01*
X118320832Y-53112547D01*
X118489199Y-53026760D01*
X118642073Y-52915690D01*
X118775690Y-52782073D01*
X118886760Y-52629199D01*
X118972547Y-52460832D01*
X119030940Y-52281118D01*
X119035312Y-52253514D01*
X119060500Y-52094486D01*
X119060500Y-51905513D01*
X119030940Y-51718881D01*
X118972610Y-51539362D01*
X118972547Y-51539168D01*
X118972545Y-51539165D01*
X118972545Y-51539163D01*
X118927290Y-51450347D01*
X118886760Y-51370801D01*
X118775690Y-51217927D01*
X118642073Y-51084310D01*
X118489199Y-50973240D01*
X118320836Y-50887454D01*
X118141118Y-50829059D01*
X117954486Y-50799500D01*
X117954481Y-50799500D01*
X117765519Y-50799500D01*
X117765514Y-50799500D01*
X117578881Y-50829059D01*
X117399163Y-50887454D01*
X117230800Y-50973240D01*
X117143579Y-51036610D01*
X117077927Y-51084310D01*
X117077925Y-51084312D01*
X117077924Y-51084312D01*
X116944312Y-51217924D01*
X116944312Y-51217925D01*
X116944310Y-51217927D01*
X116902775Y-51275095D01*
X116833240Y-51370800D01*
X116747454Y-51539163D01*
X116707931Y-51660803D01*
X116668493Y-51718478D01*
X116604134Y-51745676D01*
X116535288Y-51733761D01*
X116483812Y-51686516D01*
X116472069Y-51660803D01*
X116432610Y-51539362D01*
X116432547Y-51539168D01*
X116432545Y-51539165D01*
X116432545Y-51539163D01*
X116387290Y-51450347D01*
X116346760Y-51370801D01*
X116235690Y-51217927D01*
X116102073Y-51084310D01*
X115949199Y-50973240D01*
X115780836Y-50887454D01*
X115601118Y-50829059D01*
X115414486Y-50799500D01*
X115414481Y-50799500D01*
X115225519Y-50799500D01*
X115225514Y-50799500D01*
X115038881Y-50829059D01*
X114859163Y-50887454D01*
X114690800Y-50973240D01*
X114603579Y-51036610D01*
X114537927Y-51084310D01*
X114537925Y-51084312D01*
X114537924Y-51084312D01*
X114404312Y-51217924D01*
X114404312Y-51217925D01*
X114404310Y-51217927D01*
X114362775Y-51275095D01*
X114293240Y-51370800D01*
X114207454Y-51539163D01*
X114167931Y-51660803D01*
X114128493Y-51718478D01*
X114064134Y-51745676D01*
X113995288Y-51733761D01*
X113943812Y-51686516D01*
X113932069Y-51660803D01*
X113892610Y-51539362D01*
X113892547Y-51539168D01*
X113892545Y-51539165D01*
X113892545Y-51539163D01*
X113847290Y-51450347D01*
X113806760Y-51370801D01*
X113695690Y-51217927D01*
X113562073Y-51084310D01*
X113409199Y-50973240D01*
X113240836Y-50887454D01*
X113061118Y-50829059D01*
X112874486Y-50799500D01*
X112874481Y-50799500D01*
X112685519Y-50799500D01*
X112685514Y-50799500D01*
X112498881Y-50829059D01*
X112319163Y-50887454D01*
X112150800Y-50973240D01*
X112063579Y-51036610D01*
X111997927Y-51084310D01*
X111997925Y-51084312D01*
X111997924Y-51084312D01*
X111864312Y-51217924D01*
X111864312Y-51217925D01*
X111864310Y-51217927D01*
X111822775Y-51275095D01*
X111753240Y-51370800D01*
X111667454Y-51539163D01*
X111627931Y-51660803D01*
X111588493Y-51718478D01*
X111524134Y-51745676D01*
X111455288Y-51733761D01*
X111403812Y-51686516D01*
X111392069Y-51660803D01*
X111352610Y-51539362D01*
X111352547Y-51539168D01*
X111352545Y-51539165D01*
X111352545Y-51539163D01*
X111307290Y-51450347D01*
X111266760Y-51370801D01*
X111155690Y-51217927D01*
X111022073Y-51084310D01*
X110869199Y-50973240D01*
X110700836Y-50887454D01*
X110521118Y-50829059D01*
X110334486Y-50799500D01*
X110334481Y-50799500D01*
X110145519Y-50799500D01*
X110145514Y-50799500D01*
X109958881Y-50829059D01*
X109779163Y-50887454D01*
X109610800Y-50973240D01*
X109523579Y-51036610D01*
X109457927Y-51084310D01*
X109457925Y-51084312D01*
X109457924Y-51084312D01*
X109324312Y-51217924D01*
X109324312Y-51217925D01*
X109324310Y-51217927D01*
X109282775Y-51275095D01*
X109213240Y-51370800D01*
X109127454Y-51539163D01*
X109087668Y-51661612D01*
X109048230Y-51719287D01*
X108983871Y-51746485D01*
X108915025Y-51734570D01*
X108863549Y-51687325D01*
X108851806Y-51661611D01*
X108812085Y-51539362D01*
X108726329Y-51371059D01*
X108707883Y-51345670D01*
X108707882Y-51345669D01*
X108100000Y-51953551D01*
X108100000Y-51947339D01*
X108072741Y-51845606D01*
X108020080Y-51754394D01*
X107945606Y-51679920D01*
X107854394Y-51627259D01*
X107752661Y-51600000D01*
X107746447Y-51600000D01*
X108354328Y-50992116D01*
X108328933Y-50973666D01*
X108160637Y-50887914D01*
X107981002Y-50829548D01*
X107794447Y-50800000D01*
X107605553Y-50800000D01*
X107418997Y-50829548D01*
X107239362Y-50887914D01*
X107071060Y-50973669D01*
X107045670Y-50992116D01*
X107045669Y-50992116D01*
X107653554Y-51600000D01*
X107647339Y-51600000D01*
X107545606Y-51627259D01*
X107454394Y-51679920D01*
X107379920Y-51754394D01*
X107327259Y-51845606D01*
X107300000Y-51947339D01*
X107300000Y-51953553D01*
X106692116Y-51345669D01*
X106692116Y-51345670D01*
X106673669Y-51371060D01*
X106587915Y-51539361D01*
X106548193Y-51661612D01*
X106508755Y-51719287D01*
X106444396Y-51746485D01*
X106375550Y-51734570D01*
X106324074Y-51687326D01*
X106312332Y-51661614D01*
X106272547Y-51539168D01*
X106186760Y-51370801D01*
X106075690Y-51217927D01*
X105942073Y-51084310D01*
X105789199Y-50973240D01*
X105620836Y-50887454D01*
X105441118Y-50829059D01*
X105254486Y-50799500D01*
X105254481Y-50799500D01*
X105065519Y-50799500D01*
X105065514Y-50799500D01*
X104878881Y-50829059D01*
X104699163Y-50887454D01*
X104530800Y-50973240D01*
X104443579Y-51036610D01*
X104377927Y-51084310D01*
X104377925Y-51084312D01*
X104377924Y-51084312D01*
X104244312Y-51217924D01*
X104244312Y-51217925D01*
X104244310Y-51217927D01*
X104202775Y-51275095D01*
X104133240Y-51370800D01*
X104047454Y-51539163D01*
X104007931Y-51660803D01*
X103968493Y-51718478D01*
X103904134Y-51745676D01*
X103835288Y-51733761D01*
X103783812Y-51686516D01*
X103772069Y-51660803D01*
X103732610Y-51539362D01*
X103732547Y-51539168D01*
X103732545Y-51539165D01*
X103732545Y-51539163D01*
X103687290Y-51450347D01*
X103646760Y-51370801D01*
X103535690Y-51217927D01*
X103402073Y-51084310D01*
X103249199Y-50973240D01*
X103080836Y-50887454D01*
X102901118Y-50829059D01*
X102714486Y-50799500D01*
X102714481Y-50799500D01*
X102525519Y-50799500D01*
X102525514Y-50799500D01*
X102338881Y-50829059D01*
X102159163Y-50887454D01*
X101990800Y-50973240D01*
X101903579Y-51036610D01*
X101837927Y-51084310D01*
X101837925Y-51084312D01*
X101837924Y-51084312D01*
X101704312Y-51217924D01*
X101704312Y-51217925D01*
X101704310Y-51217927D01*
X101662775Y-51275095D01*
X101593240Y-51370800D01*
X101507454Y-51539163D01*
X101467931Y-51660803D01*
X101428493Y-51718478D01*
X101364134Y-51745676D01*
X101295288Y-51733761D01*
X101243812Y-51686516D01*
X101232069Y-51660803D01*
X101192610Y-51539362D01*
X101192547Y-51539168D01*
X101192545Y-51539165D01*
X101192545Y-51539163D01*
X101147290Y-51450347D01*
X101106760Y-51370801D01*
X100995690Y-51217927D01*
X100862073Y-51084310D01*
X100709199Y-50973240D01*
X100540836Y-50887454D01*
X100361118Y-50829059D01*
X100174486Y-50799500D01*
X100174481Y-50799500D01*
X99985519Y-50799500D01*
X99985514Y-50799500D01*
X99798881Y-50829059D01*
X99619163Y-50887454D01*
X99450800Y-50973240D01*
X99363579Y-51036610D01*
X99297927Y-51084310D01*
X99297925Y-51084312D01*
X99297924Y-51084312D01*
X99164312Y-51217924D01*
X99164312Y-51217925D01*
X99164310Y-51217927D01*
X99122775Y-51275095D01*
X99053240Y-51370800D01*
X98967454Y-51539163D01*
X98927931Y-51660803D01*
X98888493Y-51718478D01*
X98824134Y-51745676D01*
X98755288Y-51733761D01*
X98703812Y-51686516D01*
X98692069Y-51660803D01*
X98652610Y-51539362D01*
X98652547Y-51539168D01*
X98652545Y-51539165D01*
X98652545Y-51539163D01*
X98607290Y-51450347D01*
X98566760Y-51370801D01*
X98455690Y-51217927D01*
X98322073Y-51084310D01*
X98169199Y-50973240D01*
X98000836Y-50887454D01*
X97821118Y-50829059D01*
X97634486Y-50799500D01*
X97634481Y-50799500D01*
X97445519Y-50799500D01*
X97445514Y-50799500D01*
X97258881Y-50829059D01*
X97079163Y-50887454D01*
X96910800Y-50973240D01*
X96823579Y-51036610D01*
X96757927Y-51084310D01*
X96757925Y-51084312D01*
X96757924Y-51084312D01*
X96624312Y-51217924D01*
X96624312Y-51217925D01*
X96624310Y-51217927D01*
X96582775Y-51275095D01*
X96513240Y-51370800D01*
X96427454Y-51539163D01*
X96387931Y-51660803D01*
X96348493Y-51718478D01*
X96284134Y-51745676D01*
X96215288Y-51733761D01*
X96163812Y-51686516D01*
X96152069Y-51660803D01*
X96112610Y-51539362D01*
X96112547Y-51539168D01*
X96112545Y-51539165D01*
X96112545Y-51539163D01*
X96067290Y-51450347D01*
X96026760Y-51370801D01*
X95915690Y-51217927D01*
X95782073Y-51084310D01*
X95629199Y-50973240D01*
X95460836Y-50887454D01*
X95281118Y-50829059D01*
X95094486Y-50799500D01*
X95094481Y-50799500D01*
X94905519Y-50799500D01*
X94905514Y-50799500D01*
X94718881Y-50829059D01*
X94539163Y-50887454D01*
X94370800Y-50973240D01*
X94283579Y-51036610D01*
X94217927Y-51084310D01*
X94217925Y-51084312D01*
X94217924Y-51084312D01*
X94084312Y-51217924D01*
X94084312Y-51217925D01*
X94084310Y-51217927D01*
X94042775Y-51275095D01*
X93973240Y-51370800D01*
X93887454Y-51539163D01*
X93829059Y-51718881D01*
X93799500Y-51905513D01*
X93799500Y-52094486D01*
X93829059Y-52281118D01*
X93887454Y-52460836D01*
X93950201Y-52583983D01*
X93973240Y-52629199D01*
X94084310Y-52782073D01*
X94217927Y-52915690D01*
X94370801Y-53026760D01*
X94417541Y-53050575D01*
X94539163Y-53112545D01*
X94539165Y-53112545D01*
X94539168Y-53112547D01*
X94619723Y-53138721D01*
X94718881Y-53170940D01*
X94905514Y-53200500D01*
X94905519Y-53200500D01*
X95094486Y-53200500D01*
X95281118Y-53170940D01*
X95314538Y-53160081D01*
X95460832Y-53112547D01*
X95629199Y-53026760D01*
X95782073Y-52915690D01*
X95915690Y-52782073D01*
X96026760Y-52629199D01*
X96112547Y-52460832D01*
X96152069Y-52339195D01*
X96191507Y-52281521D01*
X96255866Y-52254323D01*
X96324712Y-52266238D01*
X96376188Y-52313482D01*
X96387931Y-52339196D01*
X96427454Y-52460836D01*
X96490201Y-52583983D01*
X96513240Y-52629199D01*
X96624310Y-52782073D01*
X96757927Y-52915690D01*
X96910801Y-53026760D01*
X96957541Y-53050575D01*
X97079163Y-53112545D01*
X97079165Y-53112545D01*
X97079168Y-53112547D01*
X97159723Y-53138721D01*
X97258881Y-53170940D01*
X97445514Y-53200500D01*
X97445519Y-53200500D01*
X97634486Y-53200500D01*
X97821118Y-53170940D01*
X97854538Y-53160081D01*
X98000832Y-53112547D01*
X98169199Y-53026760D01*
X98322073Y-52915690D01*
X98455690Y-52782073D01*
X98566760Y-52629199D01*
X98652547Y-52460832D01*
X98692069Y-52339195D01*
X98731507Y-52281521D01*
X98795866Y-52254323D01*
X98864712Y-52266238D01*
X98916188Y-52313482D01*
X98927931Y-52339196D01*
X98967454Y-52460836D01*
X99030201Y-52583983D01*
X99053240Y-52629199D01*
X99164310Y-52782073D01*
X99164312Y-52782075D01*
X99301372Y-52919135D01*
X99300329Y-52920177D01*
X99334931Y-52973172D01*
X99335437Y-53043040D01*
X99319313Y-53077857D01*
X99290608Y-53120816D01*
X99290602Y-53120827D01*
X99230264Y-53266498D01*
X99230261Y-53266510D01*
X99199500Y-53421153D01*
X99199500Y-53578846D01*
X99230261Y-53733489D01*
X99230264Y-53733501D01*
X99290602Y-53879172D01*
X99290609Y-53879185D01*
X99378602Y-54010874D01*
X99399480Y-54077551D01*
X99399500Y-54079765D01*
X99399500Y-54413330D01*
X99399499Y-54413348D01*
X99399499Y-54579054D01*
X99399498Y-54579054D01*
X99440423Y-54731785D01*
X99469358Y-54781900D01*
X99469359Y-54781904D01*
X99469360Y-54781904D01*
X99519479Y-54868714D01*
X99519481Y-54868717D01*
X99638349Y-54987585D01*
X99638355Y-54987590D01*
X100916138Y-56265373D01*
X100949623Y-56326696D01*
X100944639Y-56396388D01*
X100902767Y-56452321D01*
X100837303Y-56476738D01*
X100769030Y-56461886D01*
X100766473Y-56460450D01*
X100764976Y-56459586D01*
X100764964Y-56459573D01*
X100764962Y-56459578D01*
X100731783Y-56440422D01*
X100662243Y-56421789D01*
X100579057Y-56399499D01*
X100420943Y-56399499D01*
X100413347Y-56399499D01*
X100413331Y-56399500D01*
X91086670Y-56399500D01*
X91086654Y-56399499D01*
X91079058Y-56399499D01*
X90920943Y-56399499D01*
X90844579Y-56419961D01*
X90768214Y-56440423D01*
X90768209Y-56440426D01*
X90631290Y-56519475D01*
X90631282Y-56519481D01*
X87985339Y-59165425D01*
X87924016Y-59198910D01*
X87921850Y-59199361D01*
X87766508Y-59230261D01*
X87766498Y-59230264D01*
X87620827Y-59290602D01*
X87620814Y-59290609D01*
X87489711Y-59378210D01*
X87489707Y-59378213D01*
X87378213Y-59489707D01*
X87378210Y-59489711D01*
X87290609Y-59620814D01*
X87290602Y-59620827D01*
X87230264Y-59766498D01*
X87230261Y-59766510D01*
X87199500Y-59921153D01*
X87199500Y-60078846D01*
X87230261Y-60233489D01*
X87230264Y-60233501D01*
X87290602Y-60379172D01*
X87290609Y-60379185D01*
X87378210Y-60510288D01*
X87378213Y-60510292D01*
X87489707Y-60621786D01*
X87489711Y-60621789D01*
X87620814Y-60709390D01*
X87620827Y-60709397D01*
X87760098Y-60767084D01*
X87766503Y-60769737D01*
X87921153Y-60800499D01*
X87921156Y-60800500D01*
X87921158Y-60800500D01*
X88078844Y-60800500D01*
X88078845Y-60800499D01*
X88233497Y-60769737D01*
X88349552Y-60721666D01*
X88379172Y-60709397D01*
X88379172Y-60709396D01*
X88379179Y-60709394D01*
X88510289Y-60621789D01*
X88621789Y-60510289D01*
X88709394Y-60379179D01*
X88712975Y-60370535D01*
X88742398Y-60299499D01*
X88769737Y-60233497D01*
X88796192Y-60100500D01*
X88800638Y-60078150D01*
X88833023Y-60016239D01*
X88834517Y-60014717D01*
X90775443Y-58073792D01*
X90836765Y-58040308D01*
X90906457Y-58045292D01*
X90962390Y-58087164D01*
X90986807Y-58152628D01*
X90981054Y-58199792D01*
X90916447Y-58398627D01*
X90916447Y-58398630D01*
X90879500Y-58631902D01*
X90879500Y-58868097D01*
X90916446Y-59101368D01*
X90989433Y-59325996D01*
X91096657Y-59536433D01*
X91235483Y-59727510D01*
X91402490Y-59894517D01*
X91461716Y-59937547D01*
X91504381Y-59992875D01*
X91512448Y-60047593D01*
X91510893Y-60067340D01*
X92250591Y-60807037D01*
X92187007Y-60824075D01*
X92072993Y-60889901D01*
X91979901Y-60982993D01*
X91914075Y-61097007D01*
X91897037Y-61160591D01*
X91157340Y-60420894D01*
X91097084Y-60503830D01*
X90989897Y-60714197D01*
X90916934Y-60938752D01*
X90880000Y-61171947D01*
X90880000Y-61408052D01*
X90916934Y-61641247D01*
X90989897Y-61865802D01*
X91097087Y-62076174D01*
X91157338Y-62159104D01*
X91157340Y-62159105D01*
X91897037Y-61419408D01*
X91914075Y-61482993D01*
X91979901Y-61597007D01*
X92072993Y-61690099D01*
X92187007Y-61755925D01*
X92250590Y-61772962D01*
X91510893Y-62512658D01*
X91512448Y-62532405D01*
X91498084Y-62600783D01*
X91461717Y-62642451D01*
X91402490Y-62685482D01*
X91235485Y-62852487D01*
X91235485Y-62852488D01*
X91235483Y-62852490D01*
X91189686Y-62915524D01*
X91096657Y-63043566D01*
X90989433Y-63254003D01*
X90916446Y-63478631D01*
X90879500Y-63711902D01*
X90879500Y-63948097D01*
X90916446Y-64181368D01*
X90989433Y-64405996D01*
X91037466Y-64500265D01*
X91096657Y-64616433D01*
X91235483Y-64807510D01*
X91402490Y-64974517D01*
X91437127Y-64999683D01*
X91479792Y-65055013D01*
X91485771Y-65124626D01*
X91453165Y-65186421D01*
X91437130Y-65200315D01*
X91419365Y-65213222D01*
X91402488Y-65225484D01*
X91235485Y-65392487D01*
X91235485Y-65392488D01*
X91235483Y-65392490D01*
X91204818Y-65434697D01*
X91096657Y-65583566D01*
X90989433Y-65794003D01*
X90916446Y-66018631D01*
X90879500Y-66251902D01*
X90879500Y-66488097D01*
X90916446Y-66721368D01*
X90989433Y-66945996D01*
X91072796Y-67109603D01*
X91096657Y-67156433D01*
X91235483Y-67347510D01*
X91402490Y-67514517D01*
X91593567Y-67653343D01*
X91684155Y-67699500D01*
X91804003Y-67760566D01*
X91804005Y-67760566D01*
X91804008Y-67760568D01*
X91924412Y-67799689D01*
X92028631Y-67833553D01*
X92261903Y-67870500D01*
X92261908Y-67870500D01*
X92498097Y-67870500D01*
X92731368Y-67833553D01*
X92777253Y-67818644D01*
X92955992Y-67760568D01*
X93166433Y-67653343D01*
X93357510Y-67514517D01*
X93524517Y-67347510D01*
X93663343Y-67156433D01*
X93770568Y-66945992D01*
X93843553Y-66721368D01*
X93848338Y-66691156D01*
X93880500Y-66488097D01*
X93880500Y-66479097D01*
X93900185Y-66412058D01*
X93952989Y-66366303D01*
X94022147Y-66356359D01*
X94085703Y-66385384D01*
X94092181Y-66391416D01*
X98815139Y-71114374D01*
X98815149Y-71114385D01*
X98819479Y-71118715D01*
X98819480Y-71118716D01*
X98931284Y-71230520D01*
X99012213Y-71277244D01*
X99068215Y-71309577D01*
X99220943Y-71350501D01*
X99220946Y-71350501D01*
X99386653Y-71350501D01*
X99386669Y-71350500D01*
X119579055Y-71350500D01*
X119579057Y-71350500D01*
X119731784Y-71309577D01*
X119868716Y-71230520D01*
X119980520Y-71118716D01*
X120026999Y-71038209D01*
X120046702Y-71012531D01*
X120694527Y-70364706D01*
X120755848Y-70331223D01*
X120820523Y-70334457D01*
X120884625Y-70355286D01*
X120944120Y-70364709D01*
X121100639Y-70389500D01*
X121100644Y-70389500D01*
X121319361Y-70389500D01*
X121475887Y-70364708D01*
X121535375Y-70355286D01*
X121599474Y-70334458D01*
X121669315Y-70332464D01*
X121725473Y-70364709D01*
X122591284Y-71230520D01*
X122591286Y-71230521D01*
X122591290Y-71230524D01*
X122728209Y-71309573D01*
X122728212Y-71309575D01*
X122728216Y-71309577D01*
X122880943Y-71350501D01*
X122880945Y-71350501D01*
X123046654Y-71350501D01*
X123046670Y-71350500D01*
X141973331Y-71350500D01*
X141973347Y-71350501D01*
X141980943Y-71350501D01*
X142139054Y-71350501D01*
X142139057Y-71350501D01*
X142291785Y-71309577D01*
X142347787Y-71277244D01*
X142428716Y-71230520D01*
X142540520Y-71118716D01*
X142540520Y-71118714D01*
X142550724Y-71108511D01*
X142550727Y-71108506D01*
X143865159Y-69794075D01*
X143926480Y-69760592D01*
X143991154Y-69763826D01*
X144005466Y-69768477D01*
X144207648Y-69800500D01*
X144207649Y-69800500D01*
X144412351Y-69800500D01*
X144412352Y-69800500D01*
X144614534Y-69768477D01*
X144809219Y-69705220D01*
X144991610Y-69612287D01*
X145100217Y-69533380D01*
X145157213Y-69491971D01*
X145157215Y-69491968D01*
X145157219Y-69491966D01*
X145301966Y-69347219D01*
X145301968Y-69347215D01*
X145301971Y-69347213D01*
X145422284Y-69181614D01*
X145422286Y-69181611D01*
X145422287Y-69181610D01*
X145469516Y-69088917D01*
X145517489Y-69038123D01*
X145585310Y-69021328D01*
X145651445Y-69043865D01*
X145690483Y-69088917D01*
X145709454Y-69126149D01*
X145737715Y-69181614D01*
X145858028Y-69347213D01*
X146002786Y-69491971D01*
X146123226Y-69579474D01*
X146168390Y-69612287D01*
X146278135Y-69668205D01*
X146350776Y-69705218D01*
X146350778Y-69705218D01*
X146350781Y-69705220D01*
X146421682Y-69728257D01*
X146545465Y-69768477D01*
X146646557Y-69784488D01*
X146747648Y-69800500D01*
X146747649Y-69800500D01*
X146952351Y-69800500D01*
X146952352Y-69800500D01*
X147154534Y-69768477D01*
X147349219Y-69705220D01*
X147531610Y-69612287D01*
X147640217Y-69533380D01*
X147697213Y-69491971D01*
X147697215Y-69491968D01*
X147697219Y-69491966D01*
X147841966Y-69347219D01*
X147841968Y-69347215D01*
X147841971Y-69347213D01*
X147907812Y-69256589D01*
X147962287Y-69181610D01*
X148055220Y-68999219D01*
X148118477Y-68804534D01*
X148150500Y-68602352D01*
X148150500Y-68397648D01*
X148135316Y-68301782D01*
X148144270Y-68232491D01*
X148189266Y-68179039D01*
X148256018Y-68158399D01*
X148323332Y-68177124D01*
X148345470Y-68194705D01*
X148665425Y-68514660D01*
X148698910Y-68575983D01*
X148699361Y-68578149D01*
X148730261Y-68733491D01*
X148730264Y-68733501D01*
X148790602Y-68879172D01*
X148790609Y-68879185D01*
X148866051Y-68992091D01*
X148886929Y-69058769D01*
X148868445Y-69126149D01*
X148850630Y-69148663D01*
X146036113Y-71963181D01*
X145974790Y-71996666D01*
X145948432Y-71999500D01*
X94300097Y-71999500D01*
X94233058Y-71979815D01*
X94212416Y-71963181D01*
X93434574Y-71185339D01*
X93401089Y-71124016D01*
X93400638Y-71121849D01*
X93375703Y-70996495D01*
X93369737Y-70966503D01*
X93369735Y-70966498D01*
X93309397Y-70820827D01*
X93309390Y-70820814D01*
X93221789Y-70689711D01*
X93221786Y-70689707D01*
X93110292Y-70578213D01*
X93110288Y-70578210D01*
X92979185Y-70490609D01*
X92979172Y-70490602D01*
X92833501Y-70430264D01*
X92833489Y-70430261D01*
X92678845Y-70399500D01*
X92678842Y-70399500D01*
X92521158Y-70399500D01*
X92521155Y-70399500D01*
X92366510Y-70430261D01*
X92366498Y-70430264D01*
X92220827Y-70490602D01*
X92220814Y-70490609D01*
X92089711Y-70578210D01*
X92089707Y-70578213D01*
X91978213Y-70689707D01*
X91978210Y-70689711D01*
X91890609Y-70820814D01*
X91890602Y-70820827D01*
X91830264Y-70966498D01*
X91830261Y-70966510D01*
X91799500Y-71121153D01*
X91799500Y-71278846D01*
X91830261Y-71433489D01*
X91830264Y-71433501D01*
X91890602Y-71579172D01*
X91890609Y-71579185D01*
X91978210Y-71710288D01*
X91978213Y-71710292D01*
X92089707Y-71821786D01*
X92089711Y-71821789D01*
X92220814Y-71909390D01*
X92220827Y-71909397D01*
X92350675Y-71963181D01*
X92366503Y-71969737D01*
X92431147Y-71982595D01*
X92521849Y-72000638D01*
X92583760Y-72033023D01*
X92585339Y-72034574D01*
X93515139Y-72964374D01*
X93515149Y-72964385D01*
X93519479Y-72968715D01*
X93519480Y-72968716D01*
X93631284Y-73080520D01*
X93652137Y-73092559D01*
X93718095Y-73130639D01*
X93718097Y-73130641D01*
X93756151Y-73152611D01*
X93768215Y-73159577D01*
X93920943Y-73200501D01*
X93920946Y-73200501D01*
X94086653Y-73200501D01*
X94086669Y-73200500D01*
X146161860Y-73200500D01*
X146161876Y-73200501D01*
X146169472Y-73200501D01*
X146327583Y-73200501D01*
X146327586Y-73200501D01*
X146480314Y-73159577D01*
X146530433Y-73130639D01*
X146617245Y-73080520D01*
X146729049Y-72968716D01*
X146729049Y-72968714D01*
X146739257Y-72958507D01*
X146739259Y-72958504D01*
X149159300Y-70538463D01*
X156182190Y-70538463D01*
X156182190Y-70696156D01*
X156212951Y-70850799D01*
X156212954Y-70850811D01*
X156273292Y-70996482D01*
X156273299Y-70996495D01*
X156360900Y-71127598D01*
X156360903Y-71127602D01*
X156472397Y-71239096D01*
X156472401Y-71239099D01*
X156603504Y-71326700D01*
X156603517Y-71326707D01*
X156660962Y-71350501D01*
X156749193Y-71387047D01*
X156903843Y-71417809D01*
X156903846Y-71417810D01*
X156903848Y-71417810D01*
X157061534Y-71417810D01*
X157061535Y-71417809D01*
X157216187Y-71387047D01*
X157361869Y-71326704D01*
X157492979Y-71239099D01*
X157604479Y-71127599D01*
X157652581Y-71055608D01*
X157706192Y-71010804D01*
X157755683Y-71000500D01*
X165299903Y-71000500D01*
X165366942Y-71020185D01*
X165387584Y-71036819D01*
X165578600Y-71227835D01*
X165612085Y-71289158D01*
X165612536Y-71291324D01*
X165643436Y-71446666D01*
X165643439Y-71446676D01*
X165703777Y-71592347D01*
X165703784Y-71592360D01*
X165791385Y-71723463D01*
X165791388Y-71723467D01*
X165902882Y-71834961D01*
X165902886Y-71834964D01*
X166033989Y-71922565D01*
X166034002Y-71922572D01*
X166147870Y-71969737D01*
X166179678Y-71982912D01*
X166334328Y-72013674D01*
X166334331Y-72013675D01*
X166334333Y-72013675D01*
X166492019Y-72013675D01*
X166492020Y-72013674D01*
X166646672Y-71982912D01*
X166792354Y-71922569D01*
X166923464Y-71834964D01*
X166936642Y-71821786D01*
X167025494Y-71732935D01*
X167086817Y-71699450D01*
X167156509Y-71704434D01*
X167200856Y-71732935D01*
X167289707Y-71821786D01*
X167289711Y-71821789D01*
X167420814Y-71909390D01*
X167420827Y-71909397D01*
X167550675Y-71963181D01*
X167566503Y-71969737D01*
X167716131Y-71999500D01*
X167721153Y-72000499D01*
X167721156Y-72000500D01*
X167721158Y-72000500D01*
X167878844Y-72000500D01*
X167878845Y-72000499D01*
X168033497Y-71969737D01*
X168147364Y-71922572D01*
X168179172Y-71909397D01*
X168179172Y-71909396D01*
X168179179Y-71909394D01*
X168310289Y-71821789D01*
X168421789Y-71710289D01*
X168509394Y-71579179D01*
X168569737Y-71433497D01*
X168600500Y-71278842D01*
X168600500Y-71121158D01*
X168600500Y-71121155D01*
X168600499Y-71121153D01*
X168597982Y-71108501D01*
X168569737Y-70966503D01*
X168569735Y-70966498D01*
X168509397Y-70820827D01*
X168509390Y-70820814D01*
X168434573Y-70708843D01*
X168413695Y-70642166D01*
X168413675Y-70639952D01*
X168413675Y-66760047D01*
X168433360Y-66693008D01*
X168434573Y-66691156D01*
X168509394Y-66579179D01*
X168569737Y-66433497D01*
X168600500Y-66278842D01*
X168600500Y-66121158D01*
X168600500Y-66121155D01*
X168600499Y-66121153D01*
X168569738Y-65966510D01*
X168569737Y-65966503D01*
X168558935Y-65940424D01*
X168509397Y-65820827D01*
X168509390Y-65820814D01*
X168421789Y-65689711D01*
X168421786Y-65689707D01*
X168310292Y-65578213D01*
X168310288Y-65578210D01*
X168179185Y-65490609D01*
X168179172Y-65490602D01*
X168033501Y-65430264D01*
X168033489Y-65430261D01*
X167878845Y-65399500D01*
X167878842Y-65399500D01*
X167721158Y-65399500D01*
X167721155Y-65399500D01*
X167566510Y-65430261D01*
X167566498Y-65430264D01*
X167420827Y-65490602D01*
X167420814Y-65490609D01*
X167289711Y-65578210D01*
X167289707Y-65578213D01*
X167178213Y-65689707D01*
X167178210Y-65689711D01*
X167090609Y-65820814D01*
X167090602Y-65820827D01*
X167030264Y-65966498D01*
X167030261Y-65966510D01*
X166999500Y-66121153D01*
X166999500Y-66278846D01*
X167030261Y-66433489D01*
X167030264Y-66433501D01*
X167090602Y-66579172D01*
X167090609Y-66579185D01*
X167178210Y-66710288D01*
X167182076Y-66714999D01*
X167180597Y-66716212D01*
X167209836Y-66769732D01*
X167212675Y-66796115D01*
X167212675Y-70581234D01*
X167192990Y-70648273D01*
X167140186Y-70694028D01*
X167071028Y-70703972D01*
X167007472Y-70674947D01*
X167000994Y-70668915D01*
X166923467Y-70591388D01*
X166923463Y-70591385D01*
X166792360Y-70503784D01*
X166792347Y-70503777D01*
X166646676Y-70443439D01*
X166646666Y-70443436D01*
X166491324Y-70412536D01*
X166429413Y-70380151D01*
X166427835Y-70378600D01*
X166087590Y-70038355D01*
X166087588Y-70038352D01*
X165968717Y-69919481D01*
X165968716Y-69919480D01*
X165881904Y-69869360D01*
X165881904Y-69869359D01*
X165881900Y-69869358D01*
X165831785Y-69840423D01*
X165679057Y-69799499D01*
X165520943Y-69799499D01*
X165513347Y-69799499D01*
X165513331Y-69799500D01*
X157279062Y-69799500D01*
X157279058Y-69799499D01*
X157120943Y-69799499D01*
X157060588Y-69815671D01*
X157048694Y-69816506D01*
X157046301Y-69815982D01*
X157040013Y-69816810D01*
X156903845Y-69816810D01*
X156749200Y-69847571D01*
X156749188Y-69847574D01*
X156603517Y-69907912D01*
X156603504Y-69907919D01*
X156472401Y-69995520D01*
X156472397Y-69995523D01*
X156360903Y-70107017D01*
X156360900Y-70107021D01*
X156273299Y-70238124D01*
X156273292Y-70238137D01*
X156212954Y-70383808D01*
X156212951Y-70383820D01*
X156182190Y-70538463D01*
X149159300Y-70538463D01*
X156058506Y-63639257D01*
X156058511Y-63639253D01*
X156068714Y-63629049D01*
X156068716Y-63629049D01*
X156180520Y-63517245D01*
X156259577Y-63380313D01*
X156299428Y-63231588D01*
X156300500Y-63227587D01*
X156300500Y-63069472D01*
X156300500Y-62717847D01*
X156320185Y-62650808D01*
X156372989Y-62605053D01*
X156400309Y-62596230D01*
X156449626Y-62586420D01*
X156533497Y-62569737D01*
X156671299Y-62512658D01*
X156679172Y-62509397D01*
X156679172Y-62509396D01*
X156679179Y-62509394D01*
X156810289Y-62421789D01*
X156921789Y-62310289D01*
X157009394Y-62179179D01*
X157069737Y-62033497D01*
X157100433Y-61879179D01*
X157100638Y-61878150D01*
X157133023Y-61816239D01*
X157134517Y-61814717D01*
X158380520Y-60568716D01*
X158380520Y-60568714D01*
X158390724Y-60558511D01*
X158390727Y-60558506D01*
X160012417Y-58936819D01*
X160073740Y-58903334D01*
X160100098Y-58900500D01*
X173920234Y-58900500D01*
X173936922Y-58905269D01*
X173953449Y-58905031D01*
X173982136Y-58918191D01*
X173985762Y-58919228D01*
X173989438Y-58921516D01*
X173989711Y-58921789D01*
X174120821Y-59009394D01*
X174150095Y-59021519D01*
X174158750Y-59026907D01*
X174175495Y-59045678D01*
X174195078Y-59061459D01*
X174198354Y-59071302D01*
X174205262Y-59079046D01*
X174209200Y-59103890D01*
X174217143Y-59127753D01*
X174214577Y-59137805D01*
X174216202Y-59148054D01*
X174206084Y-59171081D01*
X174199864Y-59195453D01*
X174189533Y-59208751D01*
X174188096Y-59212022D01*
X174185818Y-59213532D01*
X174180903Y-59219860D01*
X172712584Y-60688181D01*
X172651261Y-60721666D01*
X172624903Y-60724500D01*
X172521153Y-60724500D01*
X172366508Y-60755261D01*
X172366496Y-60755264D01*
X172220825Y-60815602D01*
X172220812Y-60815609D01*
X172089709Y-60903210D01*
X172089705Y-60903213D01*
X171978211Y-61014707D01*
X171978208Y-61014711D01*
X171890607Y-61145814D01*
X171890600Y-61145827D01*
X171830262Y-61291498D01*
X171830259Y-61291510D01*
X171799498Y-61446153D01*
X171799498Y-61603846D01*
X171830259Y-61758489D01*
X171830262Y-61758501D01*
X171890600Y-61904172D01*
X171890607Y-61904185D01*
X171978208Y-62035288D01*
X171978211Y-62035292D01*
X172089705Y-62146786D01*
X172089709Y-62146789D01*
X172220812Y-62234390D01*
X172220825Y-62234397D01*
X172366496Y-62294735D01*
X172366501Y-62294737D01*
X172521151Y-62325499D01*
X172521154Y-62325500D01*
X172521156Y-62325500D01*
X172678842Y-62325500D01*
X172678843Y-62325499D01*
X172833495Y-62294737D01*
X172979177Y-62234394D01*
X173110287Y-62146789D01*
X173221787Y-62035289D01*
X173309392Y-61904179D01*
X173369735Y-61758497D01*
X173369737Y-61758486D01*
X173371504Y-61752664D01*
X173372806Y-61753059D01*
X173401975Y-61697286D01*
X173403476Y-61695757D01*
X177062416Y-58036819D01*
X177123739Y-58003334D01*
X177150097Y-58000500D01*
X183124199Y-58000500D01*
X183191238Y-58020185D01*
X183236993Y-58072989D01*
X183246937Y-58142147D01*
X183242130Y-58162817D01*
X183231524Y-58195457D01*
X183231523Y-58195464D01*
X183199500Y-58397648D01*
X183199500Y-58602351D01*
X183231522Y-58804534D01*
X183294781Y-58999223D01*
X183358691Y-59124653D01*
X183387578Y-59181346D01*
X183387715Y-59181613D01*
X183508028Y-59347213D01*
X183652786Y-59491971D01*
X183773226Y-59579474D01*
X183818390Y-59612287D01*
X183929929Y-59669119D01*
X184000776Y-59705218D01*
X184000778Y-59705218D01*
X184000781Y-59705220D01*
X184069383Y-59727510D01*
X184195465Y-59768477D01*
X184268868Y-59780103D01*
X184397648Y-59800500D01*
X184397649Y-59800500D01*
X184602351Y-59800500D01*
X184602352Y-59800500D01*
X184804534Y-59768477D01*
X184999219Y-59705220D01*
X185181610Y-59612287D01*
X185286015Y-59536433D01*
X185347213Y-59491971D01*
X185347215Y-59491968D01*
X185347219Y-59491966D01*
X185491966Y-59347219D01*
X185491968Y-59347215D01*
X185491971Y-59347213D01*
X185612284Y-59181614D01*
X185612286Y-59181611D01*
X185612287Y-59181610D01*
X185659516Y-59088917D01*
X185707489Y-59038123D01*
X185775310Y-59021328D01*
X185841445Y-59043865D01*
X185880483Y-59088917D01*
X185901465Y-59130095D01*
X185927715Y-59181614D01*
X186048028Y-59347213D01*
X186192786Y-59491971D01*
X186313226Y-59579474D01*
X186358390Y-59612287D01*
X186469929Y-59669119D01*
X186540776Y-59705218D01*
X186540778Y-59705218D01*
X186540781Y-59705220D01*
X186609383Y-59727510D01*
X186735465Y-59768477D01*
X186808868Y-59780103D01*
X186937648Y-59800500D01*
X186937649Y-59800500D01*
X187142351Y-59800500D01*
X187142352Y-59800500D01*
X187344534Y-59768477D01*
X187358842Y-59763827D01*
X187428682Y-59761831D01*
X187484842Y-59794077D01*
X188878583Y-61187819D01*
X188912068Y-61249142D01*
X188907084Y-61318834D01*
X188865212Y-61374767D01*
X188799748Y-61399184D01*
X188790902Y-61399500D01*
X180665892Y-61399500D01*
X180534108Y-61399500D01*
X180406814Y-61433608D01*
X180406813Y-61433608D01*
X180406811Y-61433609D01*
X180406810Y-61433609D01*
X180320594Y-61483387D01*
X180258594Y-61500000D01*
X180000000Y-61500000D01*
X180000000Y-74375500D01*
X179980315Y-74442539D01*
X179927511Y-74488294D01*
X179876000Y-74499500D01*
X84791944Y-74499500D01*
X84724905Y-74479815D01*
X84679150Y-74427011D01*
X84669206Y-74357853D01*
X84698231Y-74294297D01*
X84714631Y-74278553D01*
X84902413Y-74128802D01*
X85128802Y-73902413D01*
X85328419Y-73652101D01*
X85498755Y-73381013D01*
X85637668Y-73092558D01*
X85743410Y-72790363D01*
X85814653Y-72478229D01*
X85850500Y-72160081D01*
X85850500Y-71839919D01*
X85814653Y-71521771D01*
X85743410Y-71209637D01*
X85637668Y-70907442D01*
X85568211Y-70763214D01*
X85498756Y-70618989D01*
X85481412Y-70591386D01*
X85328419Y-70347899D01*
X85128802Y-70097587D01*
X84902413Y-69871198D01*
X84872789Y-69847574D01*
X84751511Y-69750858D01*
X84652101Y-69671581D01*
X84381013Y-69501245D01*
X84381010Y-69501243D01*
X84092559Y-69362332D01*
X83790364Y-69256590D01*
X83790362Y-69256589D01*
X83511728Y-69192993D01*
X83478229Y-69185347D01*
X83478225Y-69185346D01*
X83478216Y-69185345D01*
X83160085Y-69149500D01*
X83160081Y-69149500D01*
X82839919Y-69149500D01*
X82839914Y-69149500D01*
X82521783Y-69185345D01*
X82521771Y-69185347D01*
X82209637Y-69256589D01*
X82209635Y-69256590D01*
X81907440Y-69362332D01*
X81618989Y-69501243D01*
X81347900Y-69671580D01*
X81097587Y-69871197D01*
X80871197Y-70097587D01*
X80721447Y-70285369D01*
X80664259Y-70325509D01*
X80594447Y-70328359D01*
X80534177Y-70293014D01*
X80502584Y-70230695D01*
X80500500Y-70208056D01*
X80500500Y-61143713D01*
X83474500Y-61143713D01*
X83474500Y-61356286D01*
X83503093Y-61536819D01*
X83507754Y-61566243D01*
X83570222Y-61758500D01*
X83573444Y-61768414D01*
X83669951Y-61957820D01*
X83794890Y-62129786D01*
X83945209Y-62280105D01*
X83945214Y-62280109D01*
X84109793Y-62399682D01*
X84152459Y-62455011D01*
X84158438Y-62524625D01*
X84125833Y-62586420D01*
X84109793Y-62600318D01*
X83945214Y-62719890D01*
X83945209Y-62719894D01*
X83794890Y-62870213D01*
X83669951Y-63042179D01*
X83573444Y-63231585D01*
X83507753Y-63433760D01*
X83474500Y-63643713D01*
X83474500Y-63856286D01*
X83506527Y-64058501D01*
X83507754Y-64066243D01*
X83570572Y-64259577D01*
X83573444Y-64268414D01*
X83669951Y-64457820D01*
X83794890Y-64629786D01*
X83945209Y-64780105D01*
X83945214Y-64780109D01*
X84109793Y-64899682D01*
X84152459Y-64955011D01*
X84158438Y-65024625D01*
X84125833Y-65086420D01*
X84109793Y-65100318D01*
X83945214Y-65219890D01*
X83945209Y-65219894D01*
X83794890Y-65370213D01*
X83669951Y-65542179D01*
X83573444Y-65731585D01*
X83507753Y-65933760D01*
X83478073Y-66121153D01*
X83474500Y-66143713D01*
X83474500Y-66356287D01*
X83507754Y-66566243D01*
X83558157Y-66721368D01*
X83573444Y-66768414D01*
X83669951Y-66957820D01*
X83794890Y-67129786D01*
X83945213Y-67280109D01*
X84117179Y-67405048D01*
X84117181Y-67405049D01*
X84117184Y-67405051D01*
X84306588Y-67501557D01*
X84508757Y-67567246D01*
X84718713Y-67600500D01*
X84718714Y-67600500D01*
X85181286Y-67600500D01*
X85181287Y-67600500D01*
X85391243Y-67567246D01*
X85593412Y-67501557D01*
X85782816Y-67405051D01*
X85806680Y-67387713D01*
X85954786Y-67280109D01*
X85954788Y-67280106D01*
X85954792Y-67280104D01*
X86105104Y-67129792D01*
X86105106Y-67129788D01*
X86105109Y-67129786D01*
X86230048Y-66957820D01*
X86230047Y-66957820D01*
X86230051Y-66957816D01*
X86326557Y-66768412D01*
X86392246Y-66566243D01*
X86425500Y-66356287D01*
X86425500Y-66143713D01*
X86392246Y-65933757D01*
X86326557Y-65731588D01*
X86230051Y-65542184D01*
X86230049Y-65542181D01*
X86230048Y-65542179D01*
X86105109Y-65370213D01*
X85954792Y-65219896D01*
X85901729Y-65181344D01*
X85790204Y-65100316D01*
X85747540Y-65044989D01*
X85741561Y-64975376D01*
X85774166Y-64913580D01*
X85790199Y-64899686D01*
X85954792Y-64780104D01*
X86105104Y-64629792D01*
X86105106Y-64629788D01*
X86105109Y-64629786D01*
X86230048Y-64457820D01*
X86230047Y-64457820D01*
X86230051Y-64457816D01*
X86326557Y-64268412D01*
X86392246Y-64066243D01*
X86425500Y-63856287D01*
X86425500Y-63643713D01*
X86392246Y-63433757D01*
X86326557Y-63231588D01*
X86230051Y-63042184D01*
X86230049Y-63042181D01*
X86230048Y-63042179D01*
X86105109Y-62870213D01*
X85954792Y-62719896D01*
X85907422Y-62685480D01*
X85790204Y-62600316D01*
X85747540Y-62544989D01*
X85741561Y-62475376D01*
X85774166Y-62413580D01*
X85790199Y-62399686D01*
X85954792Y-62280104D01*
X86105104Y-62129792D01*
X86105106Y-62129788D01*
X86105109Y-62129786D01*
X86230048Y-61957820D01*
X86230047Y-61957820D01*
X86230051Y-61957816D01*
X86326557Y-61768412D01*
X86392246Y-61566243D01*
X86425500Y-61356287D01*
X86425500Y-61143713D01*
X86392246Y-60933757D01*
X86326557Y-60731588D01*
X86230051Y-60542184D01*
X86230049Y-60542181D01*
X86230048Y-60542179D01*
X86105109Y-60370213D01*
X85965931Y-60231035D01*
X85932446Y-60169712D01*
X85937430Y-60100020D01*
X85979302Y-60044087D01*
X85988516Y-60037815D01*
X86143343Y-59942317D01*
X86267315Y-59818345D01*
X86359356Y-59669124D01*
X86359358Y-59669119D01*
X86414505Y-59502697D01*
X86414506Y-59502690D01*
X86424999Y-59399986D01*
X86425000Y-59399973D01*
X86425000Y-59000000D01*
X85354146Y-59000000D01*
X85392630Y-58933343D01*
X85425000Y-58812535D01*
X85425000Y-58687465D01*
X85392630Y-58566657D01*
X85354146Y-58500000D01*
X86424999Y-58500000D01*
X86424999Y-58100028D01*
X86424998Y-58100013D01*
X86414505Y-57997302D01*
X86359358Y-57830880D01*
X86359356Y-57830875D01*
X86267315Y-57681654D01*
X86143345Y-57557684D01*
X85994124Y-57465643D01*
X85994119Y-57465641D01*
X85827697Y-57410494D01*
X85827690Y-57410493D01*
X85724986Y-57400000D01*
X85200000Y-57400000D01*
X85200000Y-58345854D01*
X85133343Y-58307370D01*
X85012535Y-58275000D01*
X84887465Y-58275000D01*
X84766657Y-58307370D01*
X84700000Y-58345854D01*
X84700000Y-57400000D01*
X84175028Y-57400000D01*
X84175012Y-57400001D01*
X84072302Y-57410494D01*
X83905880Y-57465641D01*
X83905875Y-57465643D01*
X83756654Y-57557684D01*
X83632684Y-57681654D01*
X83540643Y-57830875D01*
X83540641Y-57830880D01*
X83485494Y-57997302D01*
X83485493Y-57997309D01*
X83475000Y-58100013D01*
X83475000Y-58500000D01*
X84545854Y-58500000D01*
X84507370Y-58566657D01*
X84475000Y-58687465D01*
X84475000Y-58812535D01*
X84507370Y-58933343D01*
X84545854Y-59000000D01*
X83475001Y-59000000D01*
X83475001Y-59399986D01*
X83485494Y-59502697D01*
X83540641Y-59669119D01*
X83540643Y-59669124D01*
X83632684Y-59818345D01*
X83756654Y-59942315D01*
X83911484Y-60037815D01*
X83958208Y-60089763D01*
X83969431Y-60158726D01*
X83941587Y-60222808D01*
X83934069Y-60231035D01*
X83794889Y-60370215D01*
X83669951Y-60542179D01*
X83573444Y-60731585D01*
X83573443Y-60731587D01*
X83573443Y-60731588D01*
X83565750Y-60755264D01*
X83507753Y-60933760D01*
X83474500Y-61143713D01*
X80500500Y-61143713D01*
X80500500Y-54791943D01*
X80520185Y-54724904D01*
X80572989Y-54679149D01*
X80642147Y-54669205D01*
X80705703Y-54698230D01*
X80721447Y-54714631D01*
X80871191Y-54902406D01*
X80871197Y-54902412D01*
X80871198Y-54902413D01*
X81097587Y-55128802D01*
X81347899Y-55328419D01*
X81618987Y-55498755D01*
X81907442Y-55637668D01*
X82209637Y-55743410D01*
X82521771Y-55814653D01*
X82839915Y-55850499D01*
X82839916Y-55850500D01*
X82839919Y-55850500D01*
X83160084Y-55850500D01*
X83160084Y-55850499D01*
X83478229Y-55814653D01*
X83790363Y-55743410D01*
X84092558Y-55637668D01*
X84381013Y-55498755D01*
X84652101Y-55328419D01*
X84902413Y-55128802D01*
X85128802Y-54902413D01*
X85328419Y-54652101D01*
X85498755Y-54381013D01*
X85637668Y-54092558D01*
X85743410Y-53790363D01*
X85814653Y-53478229D01*
X85850500Y-53160081D01*
X85850500Y-52839919D01*
X85814653Y-52521771D01*
X85743410Y-52209637D01*
X85637668Y-51907442D01*
X85498755Y-51618987D01*
X85328419Y-51347899D01*
X85128802Y-51097587D01*
X84902413Y-50871198D01*
X84813133Y-50800000D01*
X84714631Y-50721447D01*
X84674491Y-50664259D01*
X84671641Y-50594447D01*
X84706986Y-50534177D01*
X84769305Y-50502584D01*
X84791944Y-50500500D01*
X145208056Y-50500500D01*
X145275095Y-50520185D01*
G37*
%TD.AperFunction*%
%TA.AperFunction,Conductor*%
G36*
X133521691Y-67102294D02*
G01*
X133527953Y-67101119D01*
X133554812Y-67112020D01*
X133582618Y-67120185D01*
X133586788Y-67124998D01*
X133592694Y-67127395D01*
X133609399Y-67151092D01*
X133628373Y-67172989D01*
X133629279Y-67179292D01*
X133632951Y-67184501D01*
X133634192Y-67213460D01*
X133638317Y-67242147D01*
X133635670Y-67247942D01*
X133635943Y-67254307D01*
X133621333Y-67279336D01*
X133609292Y-67305703D01*
X133603126Y-67310527D01*
X133600721Y-67314649D01*
X133571874Y-67334985D01*
X133468386Y-67387715D01*
X133302786Y-67508028D01*
X133158028Y-67652786D01*
X133037715Y-67818386D01*
X132944781Y-68000776D01*
X132881522Y-68195465D01*
X132849500Y-68397648D01*
X132849500Y-68602351D01*
X132881522Y-68804534D01*
X132944781Y-68999223D01*
X133000898Y-69109356D01*
X133037585Y-69181359D01*
X133037715Y-69181613D01*
X133158028Y-69347213D01*
X133302786Y-69491971D01*
X133423226Y-69579474D01*
X133468390Y-69612287D01*
X133578135Y-69668205D01*
X133650776Y-69705218D01*
X133650778Y-69705218D01*
X133650781Y-69705220D01*
X133721682Y-69728257D01*
X133845465Y-69768477D01*
X133946557Y-69784488D01*
X134047648Y-69800500D01*
X134047649Y-69800500D01*
X134252351Y-69800500D01*
X134252352Y-69800500D01*
X134454534Y-69768477D01*
X134649219Y-69705220D01*
X134831610Y-69612287D01*
X134940217Y-69533380D01*
X134997213Y-69491971D01*
X134997215Y-69491968D01*
X134997219Y-69491966D01*
X135141966Y-69347219D01*
X135141968Y-69347215D01*
X135141971Y-69347213D01*
X135262284Y-69181614D01*
X135262286Y-69181611D01*
X135262287Y-69181610D01*
X135309516Y-69088917D01*
X135357489Y-69038123D01*
X135425310Y-69021328D01*
X135491445Y-69043865D01*
X135530483Y-69088917D01*
X135549454Y-69126149D01*
X135577715Y-69181614D01*
X135698028Y-69347213D01*
X135842786Y-69491971D01*
X135963226Y-69579474D01*
X136008390Y-69612287D01*
X136118135Y-69668205D01*
X136190776Y-69705218D01*
X136190778Y-69705218D01*
X136190781Y-69705220D01*
X136261682Y-69728257D01*
X136385465Y-69768477D01*
X136486557Y-69784488D01*
X136587648Y-69800500D01*
X136587649Y-69800500D01*
X136792351Y-69800500D01*
X136792352Y-69800500D01*
X136994534Y-69768477D01*
X137189219Y-69705220D01*
X137371610Y-69612287D01*
X137480217Y-69533380D01*
X137537213Y-69491971D01*
X137537215Y-69491968D01*
X137537219Y-69491966D01*
X137681966Y-69347219D01*
X137681968Y-69347215D01*
X137681971Y-69347213D01*
X137802286Y-69181611D01*
X137802415Y-69181359D01*
X137849795Y-69088369D01*
X137897769Y-69037573D01*
X137965590Y-69020778D01*
X138031725Y-69043315D01*
X138070765Y-69088369D01*
X138118141Y-69181350D01*
X138118147Y-69181359D01*
X138150523Y-69225921D01*
X138150524Y-69225922D01*
X138738871Y-68637574D01*
X138754755Y-68696853D01*
X138821898Y-68813147D01*
X138916853Y-68908102D01*
X139033147Y-68975245D01*
X139092424Y-68991128D01*
X138504076Y-69579474D01*
X138548650Y-69611859D01*
X138730968Y-69704755D01*
X138925582Y-69767990D01*
X139127683Y-69800000D01*
X139332317Y-69800000D01*
X139534417Y-69767990D01*
X139729031Y-69704755D01*
X139911349Y-69611859D01*
X139955921Y-69579474D01*
X139367575Y-68991128D01*
X139426853Y-68975245D01*
X139543147Y-68908102D01*
X139638102Y-68813147D01*
X139705245Y-68696853D01*
X139721127Y-68637575D01*
X140309474Y-69225922D01*
X140309474Y-69225921D01*
X140341861Y-69181347D01*
X140341861Y-69181346D01*
X140389234Y-69088371D01*
X140437208Y-69037575D01*
X140505028Y-69020779D01*
X140571164Y-69043316D01*
X140610203Y-69088369D01*
X140657713Y-69181611D01*
X140778028Y-69347213D01*
X140922786Y-69491971D01*
X141043226Y-69579474D01*
X141088390Y-69612287D01*
X141198135Y-69668205D01*
X141270776Y-69705218D01*
X141270778Y-69705218D01*
X141270781Y-69705220D01*
X141341682Y-69728257D01*
X141465465Y-69768477D01*
X141566557Y-69784488D01*
X141667648Y-69800500D01*
X141667649Y-69800500D01*
X141860903Y-69800500D01*
X141882148Y-69806738D01*
X141904237Y-69808318D01*
X141915020Y-69816390D01*
X141927942Y-69820185D01*
X141942441Y-69836918D01*
X141960170Y-69850190D01*
X141964877Y-69862810D01*
X141973697Y-69872989D01*
X141976848Y-69894906D01*
X141984587Y-69915654D01*
X141981724Y-69928814D01*
X141983641Y-69942147D01*
X141974441Y-69962290D01*
X141969735Y-69983927D01*
X141956466Y-70001652D01*
X141954616Y-70005703D01*
X141948584Y-70012181D01*
X141847584Y-70113181D01*
X141786261Y-70146666D01*
X141759903Y-70149500D01*
X124864913Y-70149500D01*
X124797874Y-70129815D01*
X124752119Y-70077011D01*
X124742175Y-70007853D01*
X124771200Y-69944297D01*
X124777232Y-69937819D01*
X124786237Y-69928814D01*
X124809852Y-69905199D01*
X124809854Y-69905195D01*
X124809857Y-69905193D01*
X124880240Y-69808318D01*
X124938407Y-69728257D01*
X125037701Y-69533383D01*
X125105286Y-69325375D01*
X125127465Y-69185345D01*
X125139500Y-69109361D01*
X125139500Y-68890638D01*
X125114609Y-68733491D01*
X125105286Y-68674625D01*
X125048548Y-68500000D01*
X125036467Y-68462818D01*
X125034472Y-68392976D01*
X125070553Y-68333144D01*
X125133254Y-68302316D01*
X125154398Y-68300500D01*
X131713331Y-68300500D01*
X131713347Y-68300501D01*
X131720943Y-68300501D01*
X131879054Y-68300501D01*
X131879057Y-68300501D01*
X132031785Y-68259577D01*
X132081904Y-68230639D01*
X132168716Y-68180520D01*
X132280520Y-68068716D01*
X132280520Y-68068714D01*
X132290728Y-68058507D01*
X132290729Y-68058504D01*
X133212416Y-67136819D01*
X133273739Y-67103334D01*
X133300097Y-67100500D01*
X133515579Y-67100500D01*
X133521691Y-67102294D01*
G37*
%TD.AperFunction*%
%TA.AperFunction,Conductor*%
G36*
X98804117Y-57620185D02*
G01*
X98849872Y-57672989D01*
X98859816Y-57742147D01*
X98837397Y-57797382D01*
X98784483Y-57870213D01*
X98716657Y-57963566D01*
X98609433Y-58174003D01*
X98536446Y-58398631D01*
X98499500Y-58631902D01*
X98499500Y-58868097D01*
X98536446Y-59101368D01*
X98609433Y-59325996D01*
X98716657Y-59536433D01*
X98855483Y-59727510D01*
X99022490Y-59894517D01*
X99081716Y-59937547D01*
X99124381Y-59992875D01*
X99132448Y-60047593D01*
X99130893Y-60067340D01*
X99870591Y-60807037D01*
X99807007Y-60824075D01*
X99692993Y-60889901D01*
X99599901Y-60982993D01*
X99534075Y-61097007D01*
X99517037Y-61160591D01*
X98777340Y-60420894D01*
X98717084Y-60503830D01*
X98609897Y-60714197D01*
X98536934Y-60938752D01*
X98500000Y-61171947D01*
X98500000Y-61408052D01*
X98536934Y-61641247D01*
X98609897Y-61865802D01*
X98717087Y-62076174D01*
X98777338Y-62159104D01*
X98777340Y-62159105D01*
X99517037Y-61419408D01*
X99534075Y-61482993D01*
X99599901Y-61597007D01*
X99692993Y-61690099D01*
X99807007Y-61755925D01*
X99870590Y-61772962D01*
X99130893Y-62512658D01*
X99132448Y-62532405D01*
X99118084Y-62600783D01*
X99081717Y-62642451D01*
X99022490Y-62685482D01*
X98855485Y-62852487D01*
X98855485Y-62852488D01*
X98855483Y-62852490D01*
X98809686Y-62915524D01*
X98716657Y-63043566D01*
X98609433Y-63254003D01*
X98536446Y-63478631D01*
X98502559Y-63692585D01*
X98472629Y-63755720D01*
X98413318Y-63792651D01*
X98343455Y-63791653D01*
X98307204Y-63773507D01*
X98169199Y-63673240D01*
X98000836Y-63587454D01*
X97821118Y-63529059D01*
X97634486Y-63499500D01*
X97634481Y-63499500D01*
X97445519Y-63499500D01*
X97445514Y-63499500D01*
X97258881Y-63529059D01*
X97079163Y-63587454D01*
X96910800Y-63673240D01*
X96857579Y-63711908D01*
X96757927Y-63784310D01*
X96757925Y-63784312D01*
X96757924Y-63784312D01*
X96624312Y-63917924D01*
X96624312Y-63917925D01*
X96624310Y-63917927D01*
X96602394Y-63948092D01*
X96513240Y-64070800D01*
X96427454Y-64239163D01*
X96369059Y-64418881D01*
X96339500Y-64605513D01*
X96339500Y-64794486D01*
X96369059Y-64981118D01*
X96427454Y-65160836D01*
X96492036Y-65287584D01*
X96513240Y-65329199D01*
X96624310Y-65482073D01*
X96757927Y-65615690D01*
X96910801Y-65726760D01*
X96990347Y-65767290D01*
X97079163Y-65812545D01*
X97079165Y-65812545D01*
X97079168Y-65812547D01*
X97175497Y-65843846D01*
X97258881Y-65870940D01*
X97445514Y-65900500D01*
X97445519Y-65900500D01*
X97634486Y-65900500D01*
X97821118Y-65870940D01*
X97827963Y-65868716D01*
X98000832Y-65812547D01*
X98169199Y-65726760D01*
X98322073Y-65615690D01*
X98455690Y-65482073D01*
X98566760Y-65329199D01*
X98652547Y-65160832D01*
X98710940Y-64981118D01*
X98711985Y-64974519D01*
X98716370Y-64946835D01*
X98720659Y-64937785D01*
X98720958Y-64927772D01*
X98735377Y-64906738D01*
X98746299Y-64883700D01*
X98754801Y-64878405D01*
X98760465Y-64870144D01*
X98783965Y-64860245D01*
X98805610Y-64846768D01*
X98815624Y-64846911D01*
X98824856Y-64843023D01*
X98849976Y-64847401D01*
X98875473Y-64847766D01*
X98885656Y-64853620D01*
X98893688Y-64855021D01*
X98916410Y-64871304D01*
X98922799Y-64874977D01*
X98924686Y-64876713D01*
X99022490Y-64974517D01*
X99062926Y-65003896D01*
X99068197Y-65008745D01*
X99082660Y-65032795D01*
X99099792Y-65055013D01*
X99100420Y-65062327D01*
X99104205Y-65068621D01*
X99103369Y-65096671D01*
X99105771Y-65124626D01*
X99102344Y-65131119D01*
X99102126Y-65138460D01*
X99086259Y-65161603D01*
X99073165Y-65186421D01*
X99063512Y-65194785D01*
X99062619Y-65196088D01*
X99061431Y-65196588D01*
X99057130Y-65200315D01*
X99039365Y-65213222D01*
X99022488Y-65225484D01*
X98855485Y-65392487D01*
X98855485Y-65392488D01*
X98855483Y-65392490D01*
X98824818Y-65434697D01*
X98716657Y-65583566D01*
X98609433Y-65794003D01*
X98536446Y-66018631D01*
X98499500Y-66251902D01*
X98499500Y-66488097D01*
X98536446Y-66721368D01*
X98609433Y-66945996D01*
X98692796Y-67109603D01*
X98716657Y-67156433D01*
X98855483Y-67347510D01*
X99022490Y-67514517D01*
X99213567Y-67653343D01*
X99304155Y-67699500D01*
X99424003Y-67760566D01*
X99424005Y-67760566D01*
X99424008Y-67760568D01*
X99544412Y-67799689D01*
X99648631Y-67833553D01*
X99881903Y-67870500D01*
X99881908Y-67870500D01*
X100118097Y-67870500D01*
X100351368Y-67833553D01*
X100397253Y-67818644D01*
X100575992Y-67760568D01*
X100786433Y-67653343D01*
X100977510Y-67514517D01*
X101144517Y-67347510D01*
X101283343Y-67156433D01*
X101390568Y-66945992D01*
X101463553Y-66721368D01*
X101468338Y-66691156D01*
X101500500Y-66488097D01*
X101500500Y-66251903D01*
X101484515Y-66150984D01*
X101493469Y-66081690D01*
X101538465Y-66028238D01*
X101605216Y-66007598D01*
X101672530Y-66026322D01*
X101694669Y-66043904D01*
X103719478Y-68068713D01*
X103719480Y-68068716D01*
X103831284Y-68180520D01*
X103832337Y-68181128D01*
X103838887Y-68187653D01*
X103851996Y-68211552D01*
X103868067Y-68233569D01*
X103868552Y-68241736D01*
X103872488Y-68248912D01*
X103870594Y-68276106D01*
X103872212Y-68303316D01*
X103868204Y-68310450D01*
X103867636Y-68318613D01*
X103851341Y-68340465D01*
X103837991Y-68364231D01*
X103830762Y-68368065D01*
X103825871Y-68374626D01*
X103800349Y-68384200D01*
X103776269Y-68396975D01*
X103762601Y-68398361D01*
X103760453Y-68399167D01*
X103758597Y-68398767D01*
X103751372Y-68399500D01*
X98725884Y-68399500D01*
X98658845Y-68379815D01*
X98638203Y-68363181D01*
X95136819Y-64861797D01*
X95103334Y-64800474D01*
X95100500Y-64774116D01*
X95100500Y-60959060D01*
X95100501Y-60959047D01*
X95100501Y-60790944D01*
X95100501Y-60790943D01*
X95059577Y-60638216D01*
X95013554Y-60558501D01*
X94980524Y-60501290D01*
X94980518Y-60501282D01*
X94411990Y-59932754D01*
X93832797Y-59353562D01*
X93799313Y-59292240D01*
X93802547Y-59227566D01*
X93843553Y-59101368D01*
X93869615Y-58936819D01*
X93880500Y-58868097D01*
X93880500Y-58631902D01*
X93843553Y-58398631D01*
X93789912Y-58233542D01*
X93770568Y-58174008D01*
X93770566Y-58174005D01*
X93770566Y-58174003D01*
X93691831Y-58019478D01*
X93663343Y-57963567D01*
X93542602Y-57797383D01*
X93519124Y-57731580D01*
X93534949Y-57663526D01*
X93585055Y-57614831D01*
X93642922Y-57600500D01*
X98737078Y-57600500D01*
X98804117Y-57620185D01*
G37*
%TD.AperFunction*%
%TA.AperFunction,Conductor*%
G36*
X138663719Y-67120185D02*
G01*
X138709474Y-67172989D01*
X138719418Y-67242147D01*
X138690393Y-67305703D01*
X138652975Y-67334985D01*
X138548644Y-67388143D01*
X138504077Y-67420523D01*
X138504077Y-67420524D01*
X139092425Y-68008871D01*
X139033147Y-68024755D01*
X138916853Y-68091898D01*
X138821898Y-68186853D01*
X138754755Y-68303147D01*
X138738871Y-68362424D01*
X138150524Y-67774077D01*
X138150523Y-67774077D01*
X138118143Y-67818644D01*
X138070765Y-67911630D01*
X138022790Y-67962426D01*
X137954969Y-67979221D01*
X137888834Y-67956683D01*
X137849795Y-67911630D01*
X137849515Y-67911080D01*
X137802287Y-67818390D01*
X137802285Y-67818387D01*
X137802284Y-67818385D01*
X137681971Y-67652786D01*
X137537213Y-67508028D01*
X137371613Y-67387715D01*
X137371612Y-67387714D01*
X137371610Y-67387713D01*
X137268126Y-67334985D01*
X137217330Y-67287010D01*
X137200535Y-67219189D01*
X137223073Y-67153054D01*
X137277788Y-67109603D01*
X137324421Y-67100500D01*
X138596680Y-67100500D01*
X138663719Y-67120185D01*
G37*
%TD.AperFunction*%
%TA.AperFunction,Conductor*%
G36*
X141202618Y-67120185D02*
G01*
X141248373Y-67172989D01*
X141258317Y-67242147D01*
X141229292Y-67305703D01*
X141191874Y-67334985D01*
X141088386Y-67387715D01*
X140922786Y-67508028D01*
X140778028Y-67652786D01*
X140657713Y-67818388D01*
X140610203Y-67911630D01*
X140562228Y-67962426D01*
X140494407Y-67979220D01*
X140428272Y-67956682D01*
X140389234Y-67911628D01*
X140341861Y-67818652D01*
X140309474Y-67774077D01*
X140309474Y-67774076D01*
X139721127Y-68362423D01*
X139705245Y-68303147D01*
X139638102Y-68186853D01*
X139543147Y-68091898D01*
X139426853Y-68024755D01*
X139367574Y-68008871D01*
X139955922Y-67420524D01*
X139955921Y-67420523D01*
X139911359Y-67388147D01*
X139911350Y-67388141D01*
X139807025Y-67334985D01*
X139756229Y-67287011D01*
X139739434Y-67219190D01*
X139761971Y-67153055D01*
X139816686Y-67109603D01*
X139863320Y-67100500D01*
X141135579Y-67100500D01*
X141202618Y-67120185D01*
G37*
%TD.AperFunction*%
%TA.AperFunction,Conductor*%
G36*
X212929343Y-58009144D02*
G01*
X212959330Y-58015668D01*
X212964345Y-58019422D01*
X212966942Y-58020185D01*
X212987584Y-58036819D01*
X213121897Y-58171132D01*
X213155382Y-58232455D01*
X213152147Y-58297129D01*
X213119168Y-58398630D01*
X213107753Y-58433760D01*
X213074500Y-58643713D01*
X213074500Y-58856286D01*
X213104496Y-59045678D01*
X213107754Y-59066243D01*
X213160170Y-59227563D01*
X213173444Y-59268414D01*
X213269951Y-59457820D01*
X213394890Y-59629786D01*
X213545209Y-59780105D01*
X213545214Y-59780109D01*
X213710218Y-59899991D01*
X213752884Y-59955320D01*
X213758863Y-60024934D01*
X213726258Y-60086729D01*
X213710218Y-60100627D01*
X213545540Y-60220272D01*
X213545535Y-60220276D01*
X213395276Y-60370535D01*
X213395272Y-60370540D01*
X213270379Y-60542442D01*
X213173904Y-60731782D01*
X213108242Y-60933870D01*
X213108242Y-60933873D01*
X213097769Y-61000000D01*
X214145854Y-61000000D01*
X214107370Y-61066657D01*
X214075000Y-61187465D01*
X214075000Y-61312535D01*
X214107370Y-61433343D01*
X214145854Y-61500000D01*
X213097769Y-61500000D01*
X213108242Y-61566126D01*
X213108242Y-61566129D01*
X213173904Y-61768217D01*
X213270379Y-61957557D01*
X213395272Y-62129459D01*
X213395276Y-62129464D01*
X213545535Y-62279723D01*
X213545540Y-62279727D01*
X213710218Y-62399372D01*
X213752884Y-62454701D01*
X213758863Y-62524315D01*
X213726258Y-62586110D01*
X213710218Y-62600008D01*
X213545214Y-62719890D01*
X213545209Y-62719894D01*
X213394890Y-62870213D01*
X213269948Y-63042184D01*
X213269947Y-63042185D01*
X213249765Y-63081795D01*
X213201791Y-63132591D01*
X213139281Y-63149500D01*
X212450098Y-63149500D01*
X212383059Y-63129815D01*
X212362417Y-63113181D01*
X209787590Y-60538355D01*
X209787588Y-60538352D01*
X209668717Y-60419481D01*
X209668709Y-60419475D01*
X209580789Y-60368715D01*
X209580788Y-60368715D01*
X209560077Y-60356757D01*
X209531785Y-60340423D01*
X209379057Y-60299499D01*
X209220943Y-60299499D01*
X209213347Y-60299499D01*
X209213331Y-60299500D01*
X189740098Y-60299500D01*
X189673059Y-60279815D01*
X189652417Y-60263181D01*
X189400917Y-60011681D01*
X189367432Y-59950358D01*
X189372416Y-59880666D01*
X189414288Y-59824733D01*
X189479752Y-59800316D01*
X189488598Y-59800000D01*
X189682317Y-59800000D01*
X189884417Y-59767990D01*
X190079031Y-59704755D01*
X190261349Y-59611859D01*
X190305921Y-59579474D01*
X189717575Y-58991128D01*
X189776853Y-58975245D01*
X189893147Y-58908102D01*
X189988102Y-58813147D01*
X190055245Y-58696853D01*
X190071128Y-58637575D01*
X190659474Y-59225921D01*
X190691861Y-59181347D01*
X190691861Y-59181346D01*
X190739234Y-59088371D01*
X190787208Y-59037575D01*
X190855028Y-59020779D01*
X190921164Y-59043316D01*
X190960203Y-59088369D01*
X191007713Y-59181611D01*
X191128028Y-59347213D01*
X191272786Y-59491971D01*
X191393226Y-59579474D01*
X191438390Y-59612287D01*
X191549929Y-59669119D01*
X191620776Y-59705218D01*
X191620778Y-59705218D01*
X191620781Y-59705220D01*
X191689383Y-59727510D01*
X191815465Y-59768477D01*
X191888868Y-59780103D01*
X192017648Y-59800500D01*
X192017649Y-59800500D01*
X192222351Y-59800500D01*
X192222352Y-59800500D01*
X192424534Y-59768477D01*
X192619219Y-59705220D01*
X192801610Y-59612287D01*
X192906015Y-59536433D01*
X192967213Y-59491971D01*
X192967215Y-59491968D01*
X192967219Y-59491966D01*
X193111966Y-59347219D01*
X193111968Y-59347215D01*
X193111971Y-59347213D01*
X193232284Y-59181614D01*
X193232286Y-59181611D01*
X193232287Y-59181610D01*
X193279516Y-59088917D01*
X193327489Y-59038123D01*
X193395310Y-59021328D01*
X193461445Y-59043865D01*
X193500483Y-59088917D01*
X193521465Y-59130095D01*
X193547715Y-59181614D01*
X193668028Y-59347213D01*
X193812786Y-59491971D01*
X193933226Y-59579474D01*
X193978390Y-59612287D01*
X194089929Y-59669119D01*
X194160776Y-59705218D01*
X194160778Y-59705218D01*
X194160781Y-59705220D01*
X194229383Y-59727510D01*
X194355465Y-59768477D01*
X194428868Y-59780103D01*
X194557648Y-59800500D01*
X194557649Y-59800500D01*
X194762351Y-59800500D01*
X194762352Y-59800500D01*
X194964534Y-59768477D01*
X195159219Y-59705220D01*
X195341610Y-59612287D01*
X195446015Y-59536433D01*
X195507213Y-59491971D01*
X195507215Y-59491968D01*
X195507219Y-59491966D01*
X195651966Y-59347219D01*
X195651968Y-59347215D01*
X195651971Y-59347213D01*
X195772284Y-59181614D01*
X195772286Y-59181611D01*
X195772287Y-59181610D01*
X195819516Y-59088917D01*
X195867489Y-59038123D01*
X195935310Y-59021328D01*
X196001445Y-59043865D01*
X196040483Y-59088917D01*
X196061465Y-59130095D01*
X196087715Y-59181614D01*
X196208028Y-59347213D01*
X196352786Y-59491971D01*
X196473226Y-59579474D01*
X196518390Y-59612287D01*
X196629929Y-59669119D01*
X196700776Y-59705218D01*
X196700778Y-59705218D01*
X196700781Y-59705220D01*
X196769383Y-59727510D01*
X196895465Y-59768477D01*
X196968868Y-59780103D01*
X197097648Y-59800500D01*
X197097649Y-59800500D01*
X197302351Y-59800500D01*
X197302352Y-59800500D01*
X197504534Y-59768477D01*
X197699219Y-59705220D01*
X197881610Y-59612287D01*
X197986015Y-59536433D01*
X198047213Y-59491971D01*
X198047215Y-59491968D01*
X198047219Y-59491966D01*
X198191966Y-59347219D01*
X198191968Y-59347215D01*
X198191971Y-59347213D01*
X198276938Y-59230264D01*
X198312287Y-59181610D01*
X198405220Y-58999219D01*
X198468477Y-58804534D01*
X198500500Y-58602352D01*
X198500500Y-58397648D01*
X198468477Y-58195466D01*
X198468475Y-58195462D01*
X198468475Y-58195457D01*
X198457870Y-58162817D01*
X198455875Y-58092976D01*
X198491956Y-58033143D01*
X198554657Y-58002316D01*
X198575801Y-58000500D01*
X212899903Y-58000500D01*
X212929343Y-58009144D01*
G37*
%TD.AperFunction*%
%TA.AperFunction,Conductor*%
G36*
X93602658Y-62159105D02*
G01*
X93602658Y-62159104D01*
X93662914Y-62076169D01*
X93662921Y-62076159D01*
X93665015Y-62072050D01*
X93712988Y-62021254D01*
X93780809Y-62004458D01*
X93846944Y-62026995D01*
X93890396Y-62081709D01*
X93899500Y-62128344D01*
X93899500Y-62990553D01*
X93879815Y-63057592D01*
X93827011Y-63103347D01*
X93757853Y-63113291D01*
X93694297Y-63084266D01*
X93665018Y-63046852D01*
X93663346Y-63043572D01*
X93663344Y-63043569D01*
X93663343Y-63043567D01*
X93524517Y-62852490D01*
X93357510Y-62685483D01*
X93298282Y-62642451D01*
X93255617Y-62587122D01*
X93247550Y-62532404D01*
X93249104Y-62512657D01*
X92509408Y-61772962D01*
X92572993Y-61755925D01*
X92687007Y-61690099D01*
X92780099Y-61597007D01*
X92845925Y-61482993D01*
X92862962Y-61419408D01*
X93602658Y-62159105D01*
G37*
%TD.AperFunction*%
%TA.AperFunction,Conductor*%
G36*
X101222658Y-62159105D02*
G01*
X101265771Y-62155712D01*
X101334148Y-62170076D01*
X101383905Y-62219128D01*
X101399500Y-62279330D01*
X101399500Y-62821811D01*
X101379815Y-62888850D01*
X101327011Y-62934605D01*
X101257853Y-62944549D01*
X101194297Y-62915524D01*
X101175182Y-62894697D01*
X101170934Y-62888850D01*
X101144517Y-62852490D01*
X100977510Y-62685483D01*
X100918282Y-62642451D01*
X100875617Y-62587122D01*
X100867550Y-62532404D01*
X100869104Y-62512657D01*
X100129408Y-61772962D01*
X100192993Y-61755925D01*
X100307007Y-61690099D01*
X100400099Y-61597007D01*
X100465925Y-61482993D01*
X100482962Y-61419409D01*
X101222658Y-62159105D01*
G37*
%TD.AperFunction*%
%TA.AperFunction,Conductor*%
G36*
X101361920Y-59669263D02*
G01*
X101396277Y-59730102D01*
X101399500Y-59758188D01*
X101399500Y-60300668D01*
X101379815Y-60367707D01*
X101327011Y-60413462D01*
X101265772Y-60424286D01*
X101222658Y-60420893D01*
X100482962Y-61160590D01*
X100465925Y-61097007D01*
X100400099Y-60982993D01*
X100307007Y-60889901D01*
X100192993Y-60824075D01*
X100129409Y-60807037D01*
X100869105Y-60067340D01*
X100867551Y-60047594D01*
X100881915Y-59979216D01*
X100918284Y-59937547D01*
X100977510Y-59894517D01*
X101144517Y-59727510D01*
X101175182Y-59685302D01*
X101230511Y-59642637D01*
X101300125Y-59636658D01*
X101361920Y-59669263D01*
G37*
%TD.AperFunction*%
%TD*%
M02*
