%TF.GenerationSoftware,KiCad,Pcbnew,9.0.0*%
%TF.CreationDate,2025-03-07T17:00:58+09:00*%
%TF.ProjectId,Airdata,41697264-6174-4612-9e6b-696361645f70,rev?*%
%TF.SameCoordinates,Original*%
%TF.FileFunction,Legend,Top*%
%TF.FilePolarity,Positive*%
%FSLAX46Y46*%
G04 Gerber Fmt 4.6, Leading zero omitted, Abs format (unit mm)*
G04 Created by KiCad (PCBNEW 9.0.0) date 2025-03-07 17:00:58*
%MOMM*%
%LPD*%
G01*
G04 APERTURE LIST*
%ADD10C,0.150000*%
%ADD11C,0.200000*%
%ADD12C,0.120000*%
%ADD13C,0.100000*%
%ADD14C,0.050000*%
%ADD15C,0.127000*%
%ADD16C,0.066040*%
%ADD17C,0.254000*%
G04 APERTURE END LIST*
D10*
X86149160Y-64144295D02*
X86149160Y-63344295D01*
X86149160Y-63344295D02*
X86453922Y-63344295D01*
X86453922Y-63344295D02*
X86530112Y-63382390D01*
X86530112Y-63382390D02*
X86568207Y-63420485D01*
X86568207Y-63420485D02*
X86606303Y-63496676D01*
X86606303Y-63496676D02*
X86606303Y-63610961D01*
X86606303Y-63610961D02*
X86568207Y-63687152D01*
X86568207Y-63687152D02*
X86530112Y-63725247D01*
X86530112Y-63725247D02*
X86453922Y-63763342D01*
X86453922Y-63763342D02*
X86149160Y-63763342D01*
X86834874Y-63344295D02*
X87292017Y-63344295D01*
X87063445Y-64144295D02*
X87063445Y-63344295D01*
X87482493Y-63344295D02*
X88015827Y-64144295D01*
X88015827Y-63344295D02*
X87482493Y-64144295D01*
X88777732Y-64144295D02*
X88511065Y-63763342D01*
X88320589Y-64144295D02*
X88320589Y-63344295D01*
X88320589Y-63344295D02*
X88625351Y-63344295D01*
X88625351Y-63344295D02*
X88701541Y-63382390D01*
X88701541Y-63382390D02*
X88739636Y-63420485D01*
X88739636Y-63420485D02*
X88777732Y-63496676D01*
X88777732Y-63496676D02*
X88777732Y-63610961D01*
X88777732Y-63610961D02*
X88739636Y-63687152D01*
X88739636Y-63687152D02*
X88701541Y-63725247D01*
X88701541Y-63725247D02*
X88625351Y-63763342D01*
X88625351Y-63763342D02*
X88320589Y-63763342D01*
X94425826Y-62585247D02*
X94540112Y-62623342D01*
X94540112Y-62623342D02*
X94578207Y-62661438D01*
X94578207Y-62661438D02*
X94616303Y-62737628D01*
X94616303Y-62737628D02*
X94616303Y-62851914D01*
X94616303Y-62851914D02*
X94578207Y-62928104D01*
X94578207Y-62928104D02*
X94540112Y-62966200D01*
X94540112Y-62966200D02*
X94463922Y-63004295D01*
X94463922Y-63004295D02*
X94159160Y-63004295D01*
X94159160Y-63004295D02*
X94159160Y-62204295D01*
X94159160Y-62204295D02*
X94425826Y-62204295D01*
X94425826Y-62204295D02*
X94502017Y-62242390D01*
X94502017Y-62242390D02*
X94540112Y-62280485D01*
X94540112Y-62280485D02*
X94578207Y-62356676D01*
X94578207Y-62356676D02*
X94578207Y-62432866D01*
X94578207Y-62432866D02*
X94540112Y-62509057D01*
X94540112Y-62509057D02*
X94502017Y-62547152D01*
X94502017Y-62547152D02*
X94425826Y-62585247D01*
X94425826Y-62585247D02*
X94159160Y-62585247D01*
X94959160Y-63004295D02*
X94959160Y-62204295D01*
X94959160Y-62204295D02*
X95416303Y-63004295D01*
X95416303Y-63004295D02*
X95416303Y-62204295D01*
X95949636Y-62204295D02*
X96102017Y-62204295D01*
X96102017Y-62204295D02*
X96178207Y-62242390D01*
X96178207Y-62242390D02*
X96254398Y-62318580D01*
X96254398Y-62318580D02*
X96292493Y-62470961D01*
X96292493Y-62470961D02*
X96292493Y-62737628D01*
X96292493Y-62737628D02*
X96254398Y-62890009D01*
X96254398Y-62890009D02*
X96178207Y-62966200D01*
X96178207Y-62966200D02*
X96102017Y-63004295D01*
X96102017Y-63004295D02*
X95949636Y-63004295D01*
X95949636Y-63004295D02*
X95873445Y-62966200D01*
X95873445Y-62966200D02*
X95797255Y-62890009D01*
X95797255Y-62890009D02*
X95759159Y-62737628D01*
X95759159Y-62737628D02*
X95759159Y-62470961D01*
X95759159Y-62470961D02*
X95797255Y-62318580D01*
X95797255Y-62318580D02*
X95873445Y-62242390D01*
X95873445Y-62242390D02*
X95949636Y-62204295D01*
X96787731Y-62204295D02*
X96863921Y-62204295D01*
X96863921Y-62204295D02*
X96940112Y-62242390D01*
X96940112Y-62242390D02*
X96978207Y-62280485D01*
X96978207Y-62280485D02*
X97016302Y-62356676D01*
X97016302Y-62356676D02*
X97054397Y-62509057D01*
X97054397Y-62509057D02*
X97054397Y-62699533D01*
X97054397Y-62699533D02*
X97016302Y-62851914D01*
X97016302Y-62851914D02*
X96978207Y-62928104D01*
X96978207Y-62928104D02*
X96940112Y-62966200D01*
X96940112Y-62966200D02*
X96863921Y-63004295D01*
X96863921Y-63004295D02*
X96787731Y-63004295D01*
X96787731Y-63004295D02*
X96711540Y-62966200D01*
X96711540Y-62966200D02*
X96673445Y-62928104D01*
X96673445Y-62928104D02*
X96635350Y-62851914D01*
X96635350Y-62851914D02*
X96597254Y-62699533D01*
X96597254Y-62699533D02*
X96597254Y-62509057D01*
X96597254Y-62509057D02*
X96635350Y-62356676D01*
X96635350Y-62356676D02*
X96673445Y-62280485D01*
X96673445Y-62280485D02*
X96711540Y-62242390D01*
X96711540Y-62242390D02*
X96787731Y-62204295D01*
X97778207Y-62204295D02*
X97397255Y-62204295D01*
X97397255Y-62204295D02*
X97359159Y-62585247D01*
X97359159Y-62585247D02*
X97397255Y-62547152D01*
X97397255Y-62547152D02*
X97473445Y-62509057D01*
X97473445Y-62509057D02*
X97663921Y-62509057D01*
X97663921Y-62509057D02*
X97740112Y-62547152D01*
X97740112Y-62547152D02*
X97778207Y-62585247D01*
X97778207Y-62585247D02*
X97816302Y-62661438D01*
X97816302Y-62661438D02*
X97816302Y-62851914D01*
X97816302Y-62851914D02*
X97778207Y-62928104D01*
X97778207Y-62928104D02*
X97740112Y-62966200D01*
X97740112Y-62966200D02*
X97663921Y-63004295D01*
X97663921Y-63004295D02*
X97473445Y-63004295D01*
X97473445Y-63004295D02*
X97397255Y-62966200D01*
X97397255Y-62966200D02*
X97359159Y-62928104D01*
X98540112Y-62204295D02*
X98159160Y-62204295D01*
X98159160Y-62204295D02*
X98121064Y-62585247D01*
X98121064Y-62585247D02*
X98159160Y-62547152D01*
X98159160Y-62547152D02*
X98235350Y-62509057D01*
X98235350Y-62509057D02*
X98425826Y-62509057D01*
X98425826Y-62509057D02*
X98502017Y-62547152D01*
X98502017Y-62547152D02*
X98540112Y-62585247D01*
X98540112Y-62585247D02*
X98578207Y-62661438D01*
X98578207Y-62661438D02*
X98578207Y-62851914D01*
X98578207Y-62851914D02*
X98540112Y-62928104D01*
X98540112Y-62928104D02*
X98502017Y-62966200D01*
X98502017Y-62966200D02*
X98425826Y-63004295D01*
X98425826Y-63004295D02*
X98235350Y-63004295D01*
X98235350Y-63004295D02*
X98159160Y-62966200D01*
X98159160Y-62966200D02*
X98121064Y-62928104D01*
X211341064Y-59106200D02*
X211455350Y-59144295D01*
X211455350Y-59144295D02*
X211645826Y-59144295D01*
X211645826Y-59144295D02*
X211722017Y-59106200D01*
X211722017Y-59106200D02*
X211760112Y-59068104D01*
X211760112Y-59068104D02*
X211798207Y-58991914D01*
X211798207Y-58991914D02*
X211798207Y-58915723D01*
X211798207Y-58915723D02*
X211760112Y-58839533D01*
X211760112Y-58839533D02*
X211722017Y-58801438D01*
X211722017Y-58801438D02*
X211645826Y-58763342D01*
X211645826Y-58763342D02*
X211493445Y-58725247D01*
X211493445Y-58725247D02*
X211417255Y-58687152D01*
X211417255Y-58687152D02*
X211379160Y-58649057D01*
X211379160Y-58649057D02*
X211341064Y-58572866D01*
X211341064Y-58572866D02*
X211341064Y-58496676D01*
X211341064Y-58496676D02*
X211379160Y-58420485D01*
X211379160Y-58420485D02*
X211417255Y-58382390D01*
X211417255Y-58382390D02*
X211493445Y-58344295D01*
X211493445Y-58344295D02*
X211683922Y-58344295D01*
X211683922Y-58344295D02*
X211798207Y-58382390D01*
X212141065Y-59144295D02*
X212141065Y-58344295D01*
X212141065Y-58344295D02*
X212331541Y-58344295D01*
X212331541Y-58344295D02*
X212445827Y-58382390D01*
X212445827Y-58382390D02*
X212522017Y-58458580D01*
X212522017Y-58458580D02*
X212560112Y-58534771D01*
X212560112Y-58534771D02*
X212598208Y-58687152D01*
X212598208Y-58687152D02*
X212598208Y-58801438D01*
X212598208Y-58801438D02*
X212560112Y-58953819D01*
X212560112Y-58953819D02*
X212522017Y-59030009D01*
X212522017Y-59030009D02*
X212445827Y-59106200D01*
X212445827Y-59106200D02*
X212331541Y-59144295D01*
X212331541Y-59144295D02*
X212141065Y-59144295D01*
X212902969Y-58915723D02*
X213283922Y-58915723D01*
X212826779Y-59144295D02*
X213093446Y-58344295D01*
X213093446Y-58344295D02*
X213360112Y-59144295D01*
X86149160Y-66664295D02*
X86149160Y-65864295D01*
X86149160Y-65864295D02*
X86453922Y-65864295D01*
X86453922Y-65864295D02*
X86530112Y-65902390D01*
X86530112Y-65902390D02*
X86568207Y-65940485D01*
X86568207Y-65940485D02*
X86606303Y-66016676D01*
X86606303Y-66016676D02*
X86606303Y-66130961D01*
X86606303Y-66130961D02*
X86568207Y-66207152D01*
X86568207Y-66207152D02*
X86530112Y-66245247D01*
X86530112Y-66245247D02*
X86453922Y-66283342D01*
X86453922Y-66283342D02*
X86149160Y-66283342D01*
X87406303Y-66664295D02*
X87139636Y-66283342D01*
X86949160Y-66664295D02*
X86949160Y-65864295D01*
X86949160Y-65864295D02*
X87253922Y-65864295D01*
X87253922Y-65864295D02*
X87330112Y-65902390D01*
X87330112Y-65902390D02*
X87368207Y-65940485D01*
X87368207Y-65940485D02*
X87406303Y-66016676D01*
X87406303Y-66016676D02*
X87406303Y-66130961D01*
X87406303Y-66130961D02*
X87368207Y-66207152D01*
X87368207Y-66207152D02*
X87330112Y-66245247D01*
X87330112Y-66245247D02*
X87253922Y-66283342D01*
X87253922Y-66283342D02*
X86949160Y-66283342D01*
X87672969Y-65864295D02*
X88206303Y-66664295D01*
X88206303Y-65864295D02*
X87672969Y-66664295D01*
X88396779Y-65864295D02*
X88853922Y-65864295D01*
X88625350Y-66664295D02*
X88625350Y-65864295D01*
X211451064Y-66656200D02*
X211565350Y-66694295D01*
X211565350Y-66694295D02*
X211755826Y-66694295D01*
X211755826Y-66694295D02*
X211832017Y-66656200D01*
X211832017Y-66656200D02*
X211870112Y-66618104D01*
X211870112Y-66618104D02*
X211908207Y-66541914D01*
X211908207Y-66541914D02*
X211908207Y-66465723D01*
X211908207Y-66465723D02*
X211870112Y-66389533D01*
X211870112Y-66389533D02*
X211832017Y-66351438D01*
X211832017Y-66351438D02*
X211755826Y-66313342D01*
X211755826Y-66313342D02*
X211603445Y-66275247D01*
X211603445Y-66275247D02*
X211527255Y-66237152D01*
X211527255Y-66237152D02*
X211489160Y-66199057D01*
X211489160Y-66199057D02*
X211451064Y-66122866D01*
X211451064Y-66122866D02*
X211451064Y-66046676D01*
X211451064Y-66046676D02*
X211489160Y-65970485D01*
X211489160Y-65970485D02*
X211527255Y-65932390D01*
X211527255Y-65932390D02*
X211603445Y-65894295D01*
X211603445Y-65894295D02*
X211793922Y-65894295D01*
X211793922Y-65894295D02*
X211908207Y-65932390D01*
X212708208Y-66618104D02*
X212670112Y-66656200D01*
X212670112Y-66656200D02*
X212555827Y-66694295D01*
X212555827Y-66694295D02*
X212479636Y-66694295D01*
X212479636Y-66694295D02*
X212365350Y-66656200D01*
X212365350Y-66656200D02*
X212289160Y-66580009D01*
X212289160Y-66580009D02*
X212251065Y-66503819D01*
X212251065Y-66503819D02*
X212212969Y-66351438D01*
X212212969Y-66351438D02*
X212212969Y-66237152D01*
X212212969Y-66237152D02*
X212251065Y-66084771D01*
X212251065Y-66084771D02*
X212289160Y-66008580D01*
X212289160Y-66008580D02*
X212365350Y-65932390D01*
X212365350Y-65932390D02*
X212479636Y-65894295D01*
X212479636Y-65894295D02*
X212555827Y-65894295D01*
X212555827Y-65894295D02*
X212670112Y-65932390D01*
X212670112Y-65932390D02*
X212708208Y-65970485D01*
X213432017Y-66694295D02*
X213051065Y-66694295D01*
X213051065Y-66694295D02*
X213051065Y-65894295D01*
X87818207Y-58332390D02*
X87742017Y-58294295D01*
X87742017Y-58294295D02*
X87627731Y-58294295D01*
X87627731Y-58294295D02*
X87513445Y-58332390D01*
X87513445Y-58332390D02*
X87437255Y-58408580D01*
X87437255Y-58408580D02*
X87399160Y-58484771D01*
X87399160Y-58484771D02*
X87361064Y-58637152D01*
X87361064Y-58637152D02*
X87361064Y-58751438D01*
X87361064Y-58751438D02*
X87399160Y-58903819D01*
X87399160Y-58903819D02*
X87437255Y-58980009D01*
X87437255Y-58980009D02*
X87513445Y-59056200D01*
X87513445Y-59056200D02*
X87627731Y-59094295D01*
X87627731Y-59094295D02*
X87703922Y-59094295D01*
X87703922Y-59094295D02*
X87818207Y-59056200D01*
X87818207Y-59056200D02*
X87856303Y-59018104D01*
X87856303Y-59018104D02*
X87856303Y-58751438D01*
X87856303Y-58751438D02*
X87703922Y-58751438D01*
X88199160Y-59094295D02*
X88199160Y-58294295D01*
X88199160Y-58294295D02*
X88656303Y-59094295D01*
X88656303Y-59094295D02*
X88656303Y-58294295D01*
X89037255Y-59094295D02*
X89037255Y-58294295D01*
X89037255Y-58294295D02*
X89227731Y-58294295D01*
X89227731Y-58294295D02*
X89342017Y-58332390D01*
X89342017Y-58332390D02*
X89418207Y-58408580D01*
X89418207Y-58408580D02*
X89456302Y-58484771D01*
X89456302Y-58484771D02*
X89494398Y-58637152D01*
X89494398Y-58637152D02*
X89494398Y-58751438D01*
X89494398Y-58751438D02*
X89456302Y-58903819D01*
X89456302Y-58903819D02*
X89418207Y-58980009D01*
X89418207Y-58980009D02*
X89342017Y-59056200D01*
X89342017Y-59056200D02*
X89227731Y-59094295D01*
X89227731Y-59094295D02*
X89037255Y-59094295D01*
X210928207Y-60882390D02*
X210852017Y-60844295D01*
X210852017Y-60844295D02*
X210737731Y-60844295D01*
X210737731Y-60844295D02*
X210623445Y-60882390D01*
X210623445Y-60882390D02*
X210547255Y-60958580D01*
X210547255Y-60958580D02*
X210509160Y-61034771D01*
X210509160Y-61034771D02*
X210471064Y-61187152D01*
X210471064Y-61187152D02*
X210471064Y-61301438D01*
X210471064Y-61301438D02*
X210509160Y-61453819D01*
X210509160Y-61453819D02*
X210547255Y-61530009D01*
X210547255Y-61530009D02*
X210623445Y-61606200D01*
X210623445Y-61606200D02*
X210737731Y-61644295D01*
X210737731Y-61644295D02*
X210813922Y-61644295D01*
X210813922Y-61644295D02*
X210928207Y-61606200D01*
X210928207Y-61606200D02*
X210966303Y-61568104D01*
X210966303Y-61568104D02*
X210966303Y-61301438D01*
X210966303Y-61301438D02*
X210813922Y-61301438D01*
X211309160Y-61644295D02*
X211309160Y-60844295D01*
X211309160Y-60844295D02*
X211766303Y-61644295D01*
X211766303Y-61644295D02*
X211766303Y-60844295D01*
X212147255Y-61644295D02*
X212147255Y-60844295D01*
X212147255Y-60844295D02*
X212337731Y-60844295D01*
X212337731Y-60844295D02*
X212452017Y-60882390D01*
X212452017Y-60882390D02*
X212528207Y-60958580D01*
X212528207Y-60958580D02*
X212566302Y-61034771D01*
X212566302Y-61034771D02*
X212604398Y-61187152D01*
X212604398Y-61187152D02*
X212604398Y-61301438D01*
X212604398Y-61301438D02*
X212566302Y-61453819D01*
X212566302Y-61453819D02*
X212528207Y-61530009D01*
X212528207Y-61530009D02*
X212452017Y-61606200D01*
X212452017Y-61606200D02*
X212337731Y-61644295D01*
X212337731Y-61644295D02*
X212147255Y-61644295D01*
X211392969Y-63424295D02*
X211888207Y-63424295D01*
X211888207Y-63424295D02*
X211621541Y-63729057D01*
X211621541Y-63729057D02*
X211735826Y-63729057D01*
X211735826Y-63729057D02*
X211812017Y-63767152D01*
X211812017Y-63767152D02*
X211850112Y-63805247D01*
X211850112Y-63805247D02*
X211888207Y-63881438D01*
X211888207Y-63881438D02*
X211888207Y-64071914D01*
X211888207Y-64071914D02*
X211850112Y-64148104D01*
X211850112Y-64148104D02*
X211812017Y-64186200D01*
X211812017Y-64186200D02*
X211735826Y-64224295D01*
X211735826Y-64224295D02*
X211507255Y-64224295D01*
X211507255Y-64224295D02*
X211431064Y-64186200D01*
X211431064Y-64186200D02*
X211392969Y-64148104D01*
X212116779Y-63424295D02*
X212383446Y-64224295D01*
X212383446Y-64224295D02*
X212650112Y-63424295D01*
X212840588Y-63424295D02*
X213335826Y-63424295D01*
X213335826Y-63424295D02*
X213069160Y-63729057D01*
X213069160Y-63729057D02*
X213183445Y-63729057D01*
X213183445Y-63729057D02*
X213259636Y-63767152D01*
X213259636Y-63767152D02*
X213297731Y-63805247D01*
X213297731Y-63805247D02*
X213335826Y-63881438D01*
X213335826Y-63881438D02*
X213335826Y-64071914D01*
X213335826Y-64071914D02*
X213297731Y-64148104D01*
X213297731Y-64148104D02*
X213259636Y-64186200D01*
X213259636Y-64186200D02*
X213183445Y-64224295D01*
X213183445Y-64224295D02*
X212954874Y-64224295D01*
X212954874Y-64224295D02*
X212878683Y-64186200D01*
X212878683Y-64186200D02*
X212840588Y-64148104D01*
X86660112Y-60884295D02*
X86279160Y-60884295D01*
X86279160Y-60884295D02*
X86241064Y-61265247D01*
X86241064Y-61265247D02*
X86279160Y-61227152D01*
X86279160Y-61227152D02*
X86355350Y-61189057D01*
X86355350Y-61189057D02*
X86545826Y-61189057D01*
X86545826Y-61189057D02*
X86622017Y-61227152D01*
X86622017Y-61227152D02*
X86660112Y-61265247D01*
X86660112Y-61265247D02*
X86698207Y-61341438D01*
X86698207Y-61341438D02*
X86698207Y-61531914D01*
X86698207Y-61531914D02*
X86660112Y-61608104D01*
X86660112Y-61608104D02*
X86622017Y-61646200D01*
X86622017Y-61646200D02*
X86545826Y-61684295D01*
X86545826Y-61684295D02*
X86355350Y-61684295D01*
X86355350Y-61684295D02*
X86279160Y-61646200D01*
X86279160Y-61646200D02*
X86241064Y-61608104D01*
X86926779Y-60884295D02*
X87193446Y-61684295D01*
X87193446Y-61684295D02*
X87460112Y-60884295D01*
X213247619Y-70454819D02*
X213247619Y-69454819D01*
X213247619Y-69454819D02*
X213628571Y-69454819D01*
X213628571Y-69454819D02*
X213723809Y-69502438D01*
X213723809Y-69502438D02*
X213771428Y-69550057D01*
X213771428Y-69550057D02*
X213819047Y-69645295D01*
X213819047Y-69645295D02*
X213819047Y-69788152D01*
X213819047Y-69788152D02*
X213771428Y-69883390D01*
X213771428Y-69883390D02*
X213723809Y-69931009D01*
X213723809Y-69931009D02*
X213628571Y-69978628D01*
X213628571Y-69978628D02*
X213247619Y-69978628D01*
X214247619Y-70454819D02*
X214247619Y-69788152D01*
X214247619Y-69454819D02*
X214200000Y-69502438D01*
X214200000Y-69502438D02*
X214247619Y-69550057D01*
X214247619Y-69550057D02*
X214295238Y-69502438D01*
X214295238Y-69502438D02*
X214247619Y-69454819D01*
X214247619Y-69454819D02*
X214247619Y-69550057D01*
X214580952Y-69788152D02*
X214961904Y-69788152D01*
X214723809Y-69454819D02*
X214723809Y-70311961D01*
X214723809Y-70311961D02*
X214771428Y-70407200D01*
X214771428Y-70407200D02*
X214866666Y-70454819D01*
X214866666Y-70454819D02*
X214961904Y-70454819D01*
X215438095Y-70454819D02*
X215342857Y-70407200D01*
X215342857Y-70407200D02*
X215295238Y-70359580D01*
X215295238Y-70359580D02*
X215247619Y-70264342D01*
X215247619Y-70264342D02*
X215247619Y-69978628D01*
X215247619Y-69978628D02*
X215295238Y-69883390D01*
X215295238Y-69883390D02*
X215342857Y-69835771D01*
X215342857Y-69835771D02*
X215438095Y-69788152D01*
X215438095Y-69788152D02*
X215580952Y-69788152D01*
X215580952Y-69788152D02*
X215676190Y-69835771D01*
X215676190Y-69835771D02*
X215723809Y-69883390D01*
X215723809Y-69883390D02*
X215771428Y-69978628D01*
X215771428Y-69978628D02*
X215771428Y-70264342D01*
X215771428Y-70264342D02*
X215723809Y-70359580D01*
X215723809Y-70359580D02*
X215676190Y-70407200D01*
X215676190Y-70407200D02*
X215580952Y-70454819D01*
X215580952Y-70454819D02*
X215438095Y-70454819D01*
X216057143Y-69454819D02*
X216628571Y-69454819D01*
X216342857Y-70454819D02*
X216342857Y-69454819D01*
X217390476Y-69788152D02*
X217390476Y-70454819D01*
X216961905Y-69788152D02*
X216961905Y-70311961D01*
X216961905Y-70311961D02*
X217009524Y-70407200D01*
X217009524Y-70407200D02*
X217104762Y-70454819D01*
X217104762Y-70454819D02*
X217247619Y-70454819D01*
X217247619Y-70454819D02*
X217342857Y-70407200D01*
X217342857Y-70407200D02*
X217390476Y-70359580D01*
X217866667Y-70454819D02*
X217866667Y-69454819D01*
X217866667Y-69835771D02*
X217961905Y-69788152D01*
X217961905Y-69788152D02*
X218152381Y-69788152D01*
X218152381Y-69788152D02*
X218247619Y-69835771D01*
X218247619Y-69835771D02*
X218295238Y-69883390D01*
X218295238Y-69883390D02*
X218342857Y-69978628D01*
X218342857Y-69978628D02*
X218342857Y-70264342D01*
X218342857Y-70264342D02*
X218295238Y-70359580D01*
X218295238Y-70359580D02*
X218247619Y-70407200D01*
X218247619Y-70407200D02*
X218152381Y-70454819D01*
X218152381Y-70454819D02*
X217961905Y-70454819D01*
X217961905Y-70454819D02*
X217866667Y-70407200D01*
X219152381Y-70407200D02*
X219057143Y-70454819D01*
X219057143Y-70454819D02*
X218866667Y-70454819D01*
X218866667Y-70454819D02*
X218771429Y-70407200D01*
X218771429Y-70407200D02*
X218723810Y-70311961D01*
X218723810Y-70311961D02*
X218723810Y-69931009D01*
X218723810Y-69931009D02*
X218771429Y-69835771D01*
X218771429Y-69835771D02*
X218866667Y-69788152D01*
X218866667Y-69788152D02*
X219057143Y-69788152D01*
X219057143Y-69788152D02*
X219152381Y-69835771D01*
X219152381Y-69835771D02*
X219200000Y-69931009D01*
X219200000Y-69931009D02*
X219200000Y-70026247D01*
X219200000Y-70026247D02*
X218723810Y-70121485D01*
D11*
X137950952Y-63786504D02*
X138427142Y-63786504D01*
X137855714Y-64072219D02*
X138189047Y-63072219D01*
X138189047Y-63072219D02*
X138522380Y-64072219D01*
X138808095Y-64024600D02*
X138950952Y-64072219D01*
X138950952Y-64072219D02*
X139189047Y-64072219D01*
X139189047Y-64072219D02*
X139284285Y-64024600D01*
X139284285Y-64024600D02*
X139331904Y-63976980D01*
X139331904Y-63976980D02*
X139379523Y-63881742D01*
X139379523Y-63881742D02*
X139379523Y-63786504D01*
X139379523Y-63786504D02*
X139331904Y-63691266D01*
X139331904Y-63691266D02*
X139284285Y-63643647D01*
X139284285Y-63643647D02*
X139189047Y-63596028D01*
X139189047Y-63596028D02*
X138998571Y-63548409D01*
X138998571Y-63548409D02*
X138903333Y-63500790D01*
X138903333Y-63500790D02*
X138855714Y-63453171D01*
X138855714Y-63453171D02*
X138808095Y-63357933D01*
X138808095Y-63357933D02*
X138808095Y-63262695D01*
X138808095Y-63262695D02*
X138855714Y-63167457D01*
X138855714Y-63167457D02*
X138903333Y-63119838D01*
X138903333Y-63119838D02*
X138998571Y-63072219D01*
X138998571Y-63072219D02*
X139236666Y-63072219D01*
X139236666Y-63072219D02*
X139379523Y-63119838D01*
X140284285Y-63072219D02*
X139808095Y-63072219D01*
X139808095Y-63072219D02*
X139760476Y-63548409D01*
X139760476Y-63548409D02*
X139808095Y-63500790D01*
X139808095Y-63500790D02*
X139903333Y-63453171D01*
X139903333Y-63453171D02*
X140141428Y-63453171D01*
X140141428Y-63453171D02*
X140236666Y-63500790D01*
X140236666Y-63500790D02*
X140284285Y-63548409D01*
X140284285Y-63548409D02*
X140331904Y-63643647D01*
X140331904Y-63643647D02*
X140331904Y-63881742D01*
X140331904Y-63881742D02*
X140284285Y-63976980D01*
X140284285Y-63976980D02*
X140236666Y-64024600D01*
X140236666Y-64024600D02*
X140141428Y-64072219D01*
X140141428Y-64072219D02*
X139903333Y-64072219D01*
X139903333Y-64072219D02*
X139808095Y-64024600D01*
X139808095Y-64024600D02*
X139760476Y-63976980D01*
X141189047Y-63072219D02*
X140998571Y-63072219D01*
X140998571Y-63072219D02*
X140903333Y-63119838D01*
X140903333Y-63119838D02*
X140855714Y-63167457D01*
X140855714Y-63167457D02*
X140760476Y-63310314D01*
X140760476Y-63310314D02*
X140712857Y-63500790D01*
X140712857Y-63500790D02*
X140712857Y-63881742D01*
X140712857Y-63881742D02*
X140760476Y-63976980D01*
X140760476Y-63976980D02*
X140808095Y-64024600D01*
X140808095Y-64024600D02*
X140903333Y-64072219D01*
X140903333Y-64072219D02*
X141093809Y-64072219D01*
X141093809Y-64072219D02*
X141189047Y-64024600D01*
X141189047Y-64024600D02*
X141236666Y-63976980D01*
X141236666Y-63976980D02*
X141284285Y-63881742D01*
X141284285Y-63881742D02*
X141284285Y-63643647D01*
X141284285Y-63643647D02*
X141236666Y-63548409D01*
X141236666Y-63548409D02*
X141189047Y-63500790D01*
X141189047Y-63500790D02*
X141093809Y-63453171D01*
X141093809Y-63453171D02*
X140903333Y-63453171D01*
X140903333Y-63453171D02*
X140808095Y-63500790D01*
X140808095Y-63500790D02*
X140760476Y-63548409D01*
X140760476Y-63548409D02*
X140712857Y-63643647D01*
X141903333Y-63072219D02*
X141998571Y-63072219D01*
X141998571Y-63072219D02*
X142093809Y-63119838D01*
X142093809Y-63119838D02*
X142141428Y-63167457D01*
X142141428Y-63167457D02*
X142189047Y-63262695D01*
X142189047Y-63262695D02*
X142236666Y-63453171D01*
X142236666Y-63453171D02*
X142236666Y-63691266D01*
X142236666Y-63691266D02*
X142189047Y-63881742D01*
X142189047Y-63881742D02*
X142141428Y-63976980D01*
X142141428Y-63976980D02*
X142093809Y-64024600D01*
X142093809Y-64024600D02*
X141998571Y-64072219D01*
X141998571Y-64072219D02*
X141903333Y-64072219D01*
X141903333Y-64072219D02*
X141808095Y-64024600D01*
X141808095Y-64024600D02*
X141760476Y-63976980D01*
X141760476Y-63976980D02*
X141712857Y-63881742D01*
X141712857Y-63881742D02*
X141665238Y-63691266D01*
X141665238Y-63691266D02*
X141665238Y-63453171D01*
X141665238Y-63453171D02*
X141712857Y-63262695D01*
X141712857Y-63262695D02*
X141760476Y-63167457D01*
X141760476Y-63167457D02*
X141808095Y-63119838D01*
X141808095Y-63119838D02*
X141903333Y-63072219D01*
X142855714Y-63072219D02*
X142950952Y-63072219D01*
X142950952Y-63072219D02*
X143046190Y-63119838D01*
X143046190Y-63119838D02*
X143093809Y-63167457D01*
X143093809Y-63167457D02*
X143141428Y-63262695D01*
X143141428Y-63262695D02*
X143189047Y-63453171D01*
X143189047Y-63453171D02*
X143189047Y-63691266D01*
X143189047Y-63691266D02*
X143141428Y-63881742D01*
X143141428Y-63881742D02*
X143093809Y-63976980D01*
X143093809Y-63976980D02*
X143046190Y-64024600D01*
X143046190Y-64024600D02*
X142950952Y-64072219D01*
X142950952Y-64072219D02*
X142855714Y-64072219D01*
X142855714Y-64072219D02*
X142760476Y-64024600D01*
X142760476Y-64024600D02*
X142712857Y-63976980D01*
X142712857Y-63976980D02*
X142665238Y-63881742D01*
X142665238Y-63881742D02*
X142617619Y-63691266D01*
X142617619Y-63691266D02*
X142617619Y-63453171D01*
X142617619Y-63453171D02*
X142665238Y-63262695D01*
X142665238Y-63262695D02*
X142712857Y-63167457D01*
X142712857Y-63167457D02*
X142760476Y-63119838D01*
X142760476Y-63119838D02*
X142855714Y-63072219D01*
X139353333Y-57246504D02*
X139829523Y-57246504D01*
X139258095Y-57532219D02*
X139591428Y-56532219D01*
X139591428Y-56532219D02*
X139924761Y-57532219D01*
X140400952Y-57532219D02*
X140305714Y-57484600D01*
X140305714Y-57484600D02*
X140258095Y-57436980D01*
X140258095Y-57436980D02*
X140210476Y-57341742D01*
X140210476Y-57341742D02*
X140210476Y-57056028D01*
X140210476Y-57056028D02*
X140258095Y-56960790D01*
X140258095Y-56960790D02*
X140305714Y-56913171D01*
X140305714Y-56913171D02*
X140400952Y-56865552D01*
X140400952Y-56865552D02*
X140543809Y-56865552D01*
X140543809Y-56865552D02*
X140639047Y-56913171D01*
X140639047Y-56913171D02*
X140686666Y-56960790D01*
X140686666Y-56960790D02*
X140734285Y-57056028D01*
X140734285Y-57056028D02*
X140734285Y-57341742D01*
X140734285Y-57341742D02*
X140686666Y-57436980D01*
X140686666Y-57436980D02*
X140639047Y-57484600D01*
X140639047Y-57484600D02*
X140543809Y-57532219D01*
X140543809Y-57532219D02*
X140400952Y-57532219D01*
X141115238Y-57484600D02*
X141258095Y-57532219D01*
X141258095Y-57532219D02*
X141496190Y-57532219D01*
X141496190Y-57532219D02*
X141591428Y-57484600D01*
X141591428Y-57484600D02*
X141639047Y-57436980D01*
X141639047Y-57436980D02*
X141686666Y-57341742D01*
X141686666Y-57341742D02*
X141686666Y-57246504D01*
X141686666Y-57246504D02*
X141639047Y-57151266D01*
X141639047Y-57151266D02*
X141591428Y-57103647D01*
X141591428Y-57103647D02*
X141496190Y-57056028D01*
X141496190Y-57056028D02*
X141305714Y-57008409D01*
X141305714Y-57008409D02*
X141210476Y-56960790D01*
X141210476Y-56960790D02*
X141162857Y-56913171D01*
X141162857Y-56913171D02*
X141115238Y-56817933D01*
X141115238Y-56817933D02*
X141115238Y-56722695D01*
X141115238Y-56722695D02*
X141162857Y-56627457D01*
X141162857Y-56627457D02*
X141210476Y-56579838D01*
X141210476Y-56579838D02*
X141305714Y-56532219D01*
X141305714Y-56532219D02*
X141543809Y-56532219D01*
X141543809Y-56532219D02*
X141686666Y-56579838D01*
X189770952Y-53726504D02*
X190247142Y-53726504D01*
X189675714Y-54012219D02*
X190009047Y-53012219D01*
X190009047Y-53012219D02*
X190342380Y-54012219D01*
X190818571Y-54012219D02*
X190723333Y-53964600D01*
X190723333Y-53964600D02*
X190675714Y-53916980D01*
X190675714Y-53916980D02*
X190628095Y-53821742D01*
X190628095Y-53821742D02*
X190628095Y-53536028D01*
X190628095Y-53536028D02*
X190675714Y-53440790D01*
X190675714Y-53440790D02*
X190723333Y-53393171D01*
X190723333Y-53393171D02*
X190818571Y-53345552D01*
X190818571Y-53345552D02*
X190961428Y-53345552D01*
X190961428Y-53345552D02*
X191056666Y-53393171D01*
X191056666Y-53393171D02*
X191104285Y-53440790D01*
X191104285Y-53440790D02*
X191151904Y-53536028D01*
X191151904Y-53536028D02*
X191151904Y-53821742D01*
X191151904Y-53821742D02*
X191104285Y-53916980D01*
X191104285Y-53916980D02*
X191056666Y-53964600D01*
X191056666Y-53964600D02*
X190961428Y-54012219D01*
X190961428Y-54012219D02*
X190818571Y-54012219D01*
X191532857Y-53726504D02*
X192009047Y-53726504D01*
X191437619Y-54012219D02*
X191770952Y-53012219D01*
X191770952Y-53012219D02*
X192104285Y-54012219D01*
D10*
X196934295Y-57088458D02*
X196934295Y-56936077D01*
X196934295Y-56936077D02*
X196972390Y-56859887D01*
X196972390Y-56859887D02*
X197048580Y-56783696D01*
X197048580Y-56783696D02*
X197200961Y-56745601D01*
X197200961Y-56745601D02*
X197467628Y-56745601D01*
X197467628Y-56745601D02*
X197620009Y-56783696D01*
X197620009Y-56783696D02*
X197696200Y-56859887D01*
X197696200Y-56859887D02*
X197734295Y-56936077D01*
X197734295Y-56936077D02*
X197734295Y-57088458D01*
X197734295Y-57088458D02*
X197696200Y-57164649D01*
X197696200Y-57164649D02*
X197620009Y-57240839D01*
X197620009Y-57240839D02*
X197467628Y-57278935D01*
X197467628Y-57278935D02*
X197200961Y-57278935D01*
X197200961Y-57278935D02*
X197048580Y-57240839D01*
X197048580Y-57240839D02*
X196972390Y-57164649D01*
X196972390Y-57164649D02*
X196934295Y-57088458D01*
X196934295Y-56402744D02*
X197581914Y-56402744D01*
X197581914Y-56402744D02*
X197658104Y-56364649D01*
X197658104Y-56364649D02*
X197696200Y-56326554D01*
X197696200Y-56326554D02*
X197734295Y-56250363D01*
X197734295Y-56250363D02*
X197734295Y-56097982D01*
X197734295Y-56097982D02*
X197696200Y-56021792D01*
X197696200Y-56021792D02*
X197658104Y-55983697D01*
X197658104Y-55983697D02*
X197581914Y-55945601D01*
X197581914Y-55945601D02*
X196934295Y-55945601D01*
X196934295Y-55678935D02*
X196934295Y-55221792D01*
X197734295Y-55450364D02*
X196934295Y-55450364D01*
X195086200Y-57278935D02*
X195124295Y-57164649D01*
X195124295Y-57164649D02*
X195124295Y-56974173D01*
X195124295Y-56974173D02*
X195086200Y-56897982D01*
X195086200Y-56897982D02*
X195048104Y-56859887D01*
X195048104Y-56859887D02*
X194971914Y-56821792D01*
X194971914Y-56821792D02*
X194895723Y-56821792D01*
X194895723Y-56821792D02*
X194819533Y-56859887D01*
X194819533Y-56859887D02*
X194781438Y-56897982D01*
X194781438Y-56897982D02*
X194743342Y-56974173D01*
X194743342Y-56974173D02*
X194705247Y-57126554D01*
X194705247Y-57126554D02*
X194667152Y-57202744D01*
X194667152Y-57202744D02*
X194629057Y-57240839D01*
X194629057Y-57240839D02*
X194552866Y-57278935D01*
X194552866Y-57278935D02*
X194476676Y-57278935D01*
X194476676Y-57278935D02*
X194400485Y-57240839D01*
X194400485Y-57240839D02*
X194362390Y-57202744D01*
X194362390Y-57202744D02*
X194324295Y-57126554D01*
X194324295Y-57126554D02*
X194324295Y-56936077D01*
X194324295Y-56936077D02*
X194362390Y-56821792D01*
X195124295Y-56478934D02*
X194324295Y-56478934D01*
X194324295Y-56478934D02*
X194324295Y-56288458D01*
X194324295Y-56288458D02*
X194362390Y-56174172D01*
X194362390Y-56174172D02*
X194438580Y-56097982D01*
X194438580Y-56097982D02*
X194514771Y-56059887D01*
X194514771Y-56059887D02*
X194667152Y-56021791D01*
X194667152Y-56021791D02*
X194781438Y-56021791D01*
X194781438Y-56021791D02*
X194933819Y-56059887D01*
X194933819Y-56059887D02*
X195010009Y-56097982D01*
X195010009Y-56097982D02*
X195086200Y-56174172D01*
X195086200Y-56174172D02*
X195124295Y-56288458D01*
X195124295Y-56288458D02*
X195124295Y-56478934D01*
X194895723Y-55717030D02*
X194895723Y-55336077D01*
X195124295Y-55793220D02*
X194324295Y-55526553D01*
X194324295Y-55526553D02*
X195124295Y-55259887D01*
X186734295Y-57317030D02*
X186734295Y-56821792D01*
X186734295Y-56821792D02*
X187039057Y-57088458D01*
X187039057Y-57088458D02*
X187039057Y-56974173D01*
X187039057Y-56974173D02*
X187077152Y-56897982D01*
X187077152Y-56897982D02*
X187115247Y-56859887D01*
X187115247Y-56859887D02*
X187191438Y-56821792D01*
X187191438Y-56821792D02*
X187381914Y-56821792D01*
X187381914Y-56821792D02*
X187458104Y-56859887D01*
X187458104Y-56859887D02*
X187496200Y-56897982D01*
X187496200Y-56897982D02*
X187534295Y-56974173D01*
X187534295Y-56974173D02*
X187534295Y-57202744D01*
X187534295Y-57202744D02*
X187496200Y-57278935D01*
X187496200Y-57278935D02*
X187458104Y-57317030D01*
X186734295Y-56593220D02*
X187534295Y-56326553D01*
X187534295Y-56326553D02*
X186734295Y-56059887D01*
X186734295Y-55869411D02*
X186734295Y-55374173D01*
X186734295Y-55374173D02*
X187039057Y-55640839D01*
X187039057Y-55640839D02*
X187039057Y-55526554D01*
X187039057Y-55526554D02*
X187077152Y-55450363D01*
X187077152Y-55450363D02*
X187115247Y-55412268D01*
X187115247Y-55412268D02*
X187191438Y-55374173D01*
X187191438Y-55374173D02*
X187381914Y-55374173D01*
X187381914Y-55374173D02*
X187458104Y-55412268D01*
X187458104Y-55412268D02*
X187496200Y-55450363D01*
X187496200Y-55450363D02*
X187534295Y-55526554D01*
X187534295Y-55526554D02*
X187534295Y-55755125D01*
X187534295Y-55755125D02*
X187496200Y-55831316D01*
X187496200Y-55831316D02*
X187458104Y-55869411D01*
X189372390Y-57021792D02*
X189334295Y-57097982D01*
X189334295Y-57097982D02*
X189334295Y-57212268D01*
X189334295Y-57212268D02*
X189372390Y-57326554D01*
X189372390Y-57326554D02*
X189448580Y-57402744D01*
X189448580Y-57402744D02*
X189524771Y-57440839D01*
X189524771Y-57440839D02*
X189677152Y-57478935D01*
X189677152Y-57478935D02*
X189791438Y-57478935D01*
X189791438Y-57478935D02*
X189943819Y-57440839D01*
X189943819Y-57440839D02*
X190020009Y-57402744D01*
X190020009Y-57402744D02*
X190096200Y-57326554D01*
X190096200Y-57326554D02*
X190134295Y-57212268D01*
X190134295Y-57212268D02*
X190134295Y-57136077D01*
X190134295Y-57136077D02*
X190096200Y-57021792D01*
X190096200Y-57021792D02*
X190058104Y-56983696D01*
X190058104Y-56983696D02*
X189791438Y-56983696D01*
X189791438Y-56983696D02*
X189791438Y-57136077D01*
X190134295Y-56640839D02*
X189334295Y-56640839D01*
X189334295Y-56640839D02*
X190134295Y-56183696D01*
X190134295Y-56183696D02*
X189334295Y-56183696D01*
X190134295Y-55802744D02*
X189334295Y-55802744D01*
X189334295Y-55802744D02*
X189334295Y-55612268D01*
X189334295Y-55612268D02*
X189372390Y-55497982D01*
X189372390Y-55497982D02*
X189448580Y-55421792D01*
X189448580Y-55421792D02*
X189524771Y-55383697D01*
X189524771Y-55383697D02*
X189677152Y-55345601D01*
X189677152Y-55345601D02*
X189791438Y-55345601D01*
X189791438Y-55345601D02*
X189943819Y-55383697D01*
X189943819Y-55383697D02*
X190020009Y-55421792D01*
X190020009Y-55421792D02*
X190096200Y-55497982D01*
X190096200Y-55497982D02*
X190134295Y-55612268D01*
X190134295Y-55612268D02*
X190134295Y-55802744D01*
X184334295Y-56859887D02*
X184334295Y-57240839D01*
X184334295Y-57240839D02*
X184715247Y-57278935D01*
X184715247Y-57278935D02*
X184677152Y-57240839D01*
X184677152Y-57240839D02*
X184639057Y-57164649D01*
X184639057Y-57164649D02*
X184639057Y-56974173D01*
X184639057Y-56974173D02*
X184677152Y-56897982D01*
X184677152Y-56897982D02*
X184715247Y-56859887D01*
X184715247Y-56859887D02*
X184791438Y-56821792D01*
X184791438Y-56821792D02*
X184981914Y-56821792D01*
X184981914Y-56821792D02*
X185058104Y-56859887D01*
X185058104Y-56859887D02*
X185096200Y-56897982D01*
X185096200Y-56897982D02*
X185134295Y-56974173D01*
X185134295Y-56974173D02*
X185134295Y-57164649D01*
X185134295Y-57164649D02*
X185096200Y-57240839D01*
X185096200Y-57240839D02*
X185058104Y-57278935D01*
X184334295Y-56593220D02*
X185134295Y-56326553D01*
X185134295Y-56326553D02*
X184334295Y-56059887D01*
X192496200Y-57278935D02*
X192534295Y-57164649D01*
X192534295Y-57164649D02*
X192534295Y-56974173D01*
X192534295Y-56974173D02*
X192496200Y-56897982D01*
X192496200Y-56897982D02*
X192458104Y-56859887D01*
X192458104Y-56859887D02*
X192381914Y-56821792D01*
X192381914Y-56821792D02*
X192305723Y-56821792D01*
X192305723Y-56821792D02*
X192229533Y-56859887D01*
X192229533Y-56859887D02*
X192191438Y-56897982D01*
X192191438Y-56897982D02*
X192153342Y-56974173D01*
X192153342Y-56974173D02*
X192115247Y-57126554D01*
X192115247Y-57126554D02*
X192077152Y-57202744D01*
X192077152Y-57202744D02*
X192039057Y-57240839D01*
X192039057Y-57240839D02*
X191962866Y-57278935D01*
X191962866Y-57278935D02*
X191886676Y-57278935D01*
X191886676Y-57278935D02*
X191810485Y-57240839D01*
X191810485Y-57240839D02*
X191772390Y-57202744D01*
X191772390Y-57202744D02*
X191734295Y-57126554D01*
X191734295Y-57126554D02*
X191734295Y-56936077D01*
X191734295Y-56936077D02*
X191772390Y-56821792D01*
X192458104Y-56021791D02*
X192496200Y-56059887D01*
X192496200Y-56059887D02*
X192534295Y-56174172D01*
X192534295Y-56174172D02*
X192534295Y-56250363D01*
X192534295Y-56250363D02*
X192496200Y-56364649D01*
X192496200Y-56364649D02*
X192420009Y-56440839D01*
X192420009Y-56440839D02*
X192343819Y-56478934D01*
X192343819Y-56478934D02*
X192191438Y-56517030D01*
X192191438Y-56517030D02*
X192077152Y-56517030D01*
X192077152Y-56517030D02*
X191924771Y-56478934D01*
X191924771Y-56478934D02*
X191848580Y-56440839D01*
X191848580Y-56440839D02*
X191772390Y-56364649D01*
X191772390Y-56364649D02*
X191734295Y-56250363D01*
X191734295Y-56250363D02*
X191734295Y-56174172D01*
X191734295Y-56174172D02*
X191772390Y-56059887D01*
X191772390Y-56059887D02*
X191810485Y-56021791D01*
X192534295Y-55297982D02*
X192534295Y-55678934D01*
X192534295Y-55678934D02*
X191734295Y-55678934D01*
X110954285Y-61422295D02*
X110954285Y-60622295D01*
X110954285Y-60622295D02*
X111144761Y-60622295D01*
X111144761Y-60622295D02*
X111259047Y-60660390D01*
X111259047Y-60660390D02*
X111335237Y-60736580D01*
X111335237Y-60736580D02*
X111373332Y-60812771D01*
X111373332Y-60812771D02*
X111411428Y-60965152D01*
X111411428Y-60965152D02*
X111411428Y-61079438D01*
X111411428Y-61079438D02*
X111373332Y-61231819D01*
X111373332Y-61231819D02*
X111335237Y-61308009D01*
X111335237Y-61308009D02*
X111259047Y-61384200D01*
X111259047Y-61384200D02*
X111144761Y-61422295D01*
X111144761Y-61422295D02*
X110954285Y-61422295D01*
X111754285Y-61422295D02*
X111754285Y-60622295D01*
X111754285Y-60622295D02*
X112059047Y-60622295D01*
X112059047Y-60622295D02*
X112135237Y-60660390D01*
X112135237Y-60660390D02*
X112173332Y-60698485D01*
X112173332Y-60698485D02*
X112211428Y-60774676D01*
X112211428Y-60774676D02*
X112211428Y-60888961D01*
X112211428Y-60888961D02*
X112173332Y-60965152D01*
X112173332Y-60965152D02*
X112135237Y-61003247D01*
X112135237Y-61003247D02*
X112059047Y-61041342D01*
X112059047Y-61041342D02*
X111754285Y-61041342D01*
X112516189Y-61384200D02*
X112630475Y-61422295D01*
X112630475Y-61422295D02*
X112820951Y-61422295D01*
X112820951Y-61422295D02*
X112897142Y-61384200D01*
X112897142Y-61384200D02*
X112935237Y-61346104D01*
X112935237Y-61346104D02*
X112973332Y-61269914D01*
X112973332Y-61269914D02*
X112973332Y-61193723D01*
X112973332Y-61193723D02*
X112935237Y-61117533D01*
X112935237Y-61117533D02*
X112897142Y-61079438D01*
X112897142Y-61079438D02*
X112820951Y-61041342D01*
X112820951Y-61041342D02*
X112668570Y-61003247D01*
X112668570Y-61003247D02*
X112592380Y-60965152D01*
X112592380Y-60965152D02*
X112554285Y-60927057D01*
X112554285Y-60927057D02*
X112516189Y-60850866D01*
X112516189Y-60850866D02*
X112516189Y-60774676D01*
X112516189Y-60774676D02*
X112554285Y-60698485D01*
X112554285Y-60698485D02*
X112592380Y-60660390D01*
X112592380Y-60660390D02*
X112668570Y-60622295D01*
X112668570Y-60622295D02*
X112859047Y-60622295D01*
X112859047Y-60622295D02*
X112973332Y-60660390D01*
X113239999Y-60622295D02*
X113735237Y-60622295D01*
X113735237Y-60622295D02*
X113468571Y-60927057D01*
X113468571Y-60927057D02*
X113582856Y-60927057D01*
X113582856Y-60927057D02*
X113659047Y-60965152D01*
X113659047Y-60965152D02*
X113697142Y-61003247D01*
X113697142Y-61003247D02*
X113735237Y-61079438D01*
X113735237Y-61079438D02*
X113735237Y-61269914D01*
X113735237Y-61269914D02*
X113697142Y-61346104D01*
X113697142Y-61346104D02*
X113659047Y-61384200D01*
X113659047Y-61384200D02*
X113582856Y-61422295D01*
X113582856Y-61422295D02*
X113354285Y-61422295D01*
X113354285Y-61422295D02*
X113278094Y-61384200D01*
X113278094Y-61384200D02*
X113239999Y-61346104D01*
X114497142Y-61422295D02*
X114039999Y-61422295D01*
X114268571Y-61422295D02*
X114268571Y-60622295D01*
X114268571Y-60622295D02*
X114192380Y-60736580D01*
X114192380Y-60736580D02*
X114116190Y-60812771D01*
X114116190Y-60812771D02*
X114039999Y-60850866D01*
X114992381Y-60622295D02*
X115068571Y-60622295D01*
X115068571Y-60622295D02*
X115144762Y-60660390D01*
X115144762Y-60660390D02*
X115182857Y-60698485D01*
X115182857Y-60698485D02*
X115220952Y-60774676D01*
X115220952Y-60774676D02*
X115259047Y-60927057D01*
X115259047Y-60927057D02*
X115259047Y-61117533D01*
X115259047Y-61117533D02*
X115220952Y-61269914D01*
X115220952Y-61269914D02*
X115182857Y-61346104D01*
X115182857Y-61346104D02*
X115144762Y-61384200D01*
X115144762Y-61384200D02*
X115068571Y-61422295D01*
X115068571Y-61422295D02*
X114992381Y-61422295D01*
X114992381Y-61422295D02*
X114916190Y-61384200D01*
X114916190Y-61384200D02*
X114878095Y-61346104D01*
X114878095Y-61346104D02*
X114840000Y-61269914D01*
X114840000Y-61269914D02*
X114801904Y-61117533D01*
X114801904Y-61117533D02*
X114801904Y-60927057D01*
X114801904Y-60927057D02*
X114840000Y-60774676D01*
X114840000Y-60774676D02*
X114878095Y-60698485D01*
X114878095Y-60698485D02*
X114916190Y-60660390D01*
X114916190Y-60660390D02*
X114992381Y-60622295D01*
X116173333Y-61193723D02*
X116554286Y-61193723D01*
X116097143Y-61422295D02*
X116363810Y-60622295D01*
X116363810Y-60622295D02*
X116630476Y-61422295D01*
X117240000Y-61422295D02*
X117240000Y-60622295D01*
X117240000Y-61384200D02*
X117163809Y-61422295D01*
X117163809Y-61422295D02*
X117011428Y-61422295D01*
X117011428Y-61422295D02*
X116935238Y-61384200D01*
X116935238Y-61384200D02*
X116897143Y-61346104D01*
X116897143Y-61346104D02*
X116859047Y-61269914D01*
X116859047Y-61269914D02*
X116859047Y-61041342D01*
X116859047Y-61041342D02*
X116897143Y-60965152D01*
X116897143Y-60965152D02*
X116935238Y-60927057D01*
X116935238Y-60927057D02*
X117011428Y-60888961D01*
X117011428Y-60888961D02*
X117163809Y-60888961D01*
X117163809Y-60888961D02*
X117240000Y-60927057D01*
X117963810Y-61422295D02*
X117963810Y-61003247D01*
X117963810Y-61003247D02*
X117925715Y-60927057D01*
X117925715Y-60927057D02*
X117849524Y-60888961D01*
X117849524Y-60888961D02*
X117697143Y-60888961D01*
X117697143Y-60888961D02*
X117620953Y-60927057D01*
X117963810Y-61384200D02*
X117887619Y-61422295D01*
X117887619Y-61422295D02*
X117697143Y-61422295D01*
X117697143Y-61422295D02*
X117620953Y-61384200D01*
X117620953Y-61384200D02*
X117582857Y-61308009D01*
X117582857Y-61308009D02*
X117582857Y-61231819D01*
X117582857Y-61231819D02*
X117620953Y-61155628D01*
X117620953Y-61155628D02*
X117697143Y-61117533D01*
X117697143Y-61117533D02*
X117887619Y-61117533D01*
X117887619Y-61117533D02*
X117963810Y-61079438D01*
X118230477Y-60888961D02*
X118535239Y-60888961D01*
X118344763Y-61422295D02*
X118344763Y-60736580D01*
X118344763Y-60736580D02*
X118382858Y-60660390D01*
X118382858Y-60660390D02*
X118459048Y-60622295D01*
X118459048Y-60622295D02*
X118535239Y-60622295D01*
X118801906Y-61422295D02*
X118801906Y-60888961D01*
X118801906Y-61041342D02*
X118840001Y-60965152D01*
X118840001Y-60965152D02*
X118878096Y-60927057D01*
X118878096Y-60927057D02*
X118954287Y-60888961D01*
X118954287Y-60888961D02*
X119030477Y-60888961D01*
X119640001Y-60888961D02*
X119640001Y-61422295D01*
X119297144Y-60888961D02*
X119297144Y-61308009D01*
X119297144Y-61308009D02*
X119335239Y-61384200D01*
X119335239Y-61384200D02*
X119411429Y-61422295D01*
X119411429Y-61422295D02*
X119525715Y-61422295D01*
X119525715Y-61422295D02*
X119601906Y-61384200D01*
X119601906Y-61384200D02*
X119640001Y-61346104D01*
X120020954Y-61422295D02*
X120020954Y-60888961D01*
X120020954Y-60622295D02*
X119982858Y-60660390D01*
X119982858Y-60660390D02*
X120020954Y-60698485D01*
X120020954Y-60698485D02*
X120059049Y-60660390D01*
X120059049Y-60660390D02*
X120020954Y-60622295D01*
X120020954Y-60622295D02*
X120020954Y-60698485D01*
X120287620Y-60888961D02*
X120592382Y-60888961D01*
X120401906Y-60622295D02*
X120401906Y-61308009D01*
X120401906Y-61308009D02*
X120440001Y-61384200D01*
X120440001Y-61384200D02*
X120516191Y-61422295D01*
X120516191Y-61422295D02*
X120592382Y-61422295D01*
X120820953Y-61384200D02*
X120897144Y-61422295D01*
X120897144Y-61422295D02*
X121049525Y-61422295D01*
X121049525Y-61422295D02*
X121125715Y-61384200D01*
X121125715Y-61384200D02*
X121163811Y-61308009D01*
X121163811Y-61308009D02*
X121163811Y-61269914D01*
X121163811Y-61269914D02*
X121125715Y-61193723D01*
X121125715Y-61193723D02*
X121049525Y-61155628D01*
X121049525Y-61155628D02*
X120935239Y-61155628D01*
X120935239Y-61155628D02*
X120859049Y-61117533D01*
X120859049Y-61117533D02*
X120820953Y-61041342D01*
X120820953Y-61041342D02*
X120820953Y-61003247D01*
X120820953Y-61003247D02*
X120859049Y-60927057D01*
X120859049Y-60927057D02*
X120935239Y-60888961D01*
X120935239Y-60888961D02*
X121049525Y-60888961D01*
X121049525Y-60888961D02*
X121125715Y-60927057D01*
X158095500Y-61557295D02*
X158628834Y-62357295D01*
X158628834Y-61557295D02*
X158095500Y-62357295D01*
X158933596Y-62357295D02*
X158933596Y-61557295D01*
X159276452Y-62128723D02*
X159657405Y-62128723D01*
X159200262Y-62357295D02*
X159466929Y-61557295D01*
X159466929Y-61557295D02*
X159733595Y-62357295D01*
X160152643Y-61557295D02*
X160305024Y-61557295D01*
X160305024Y-61557295D02*
X160381214Y-61595390D01*
X160381214Y-61595390D02*
X160457405Y-61671580D01*
X160457405Y-61671580D02*
X160495500Y-61823961D01*
X160495500Y-61823961D02*
X160495500Y-62090628D01*
X160495500Y-62090628D02*
X160457405Y-62243009D01*
X160457405Y-62243009D02*
X160381214Y-62319200D01*
X160381214Y-62319200D02*
X160305024Y-62357295D01*
X160305024Y-62357295D02*
X160152643Y-62357295D01*
X160152643Y-62357295D02*
X160076452Y-62319200D01*
X160076452Y-62319200D02*
X160000262Y-62243009D01*
X160000262Y-62243009D02*
X159962166Y-62090628D01*
X159962166Y-62090628D02*
X159962166Y-61823961D01*
X159962166Y-61823961D02*
X160000262Y-61671580D01*
X160000262Y-61671580D02*
X160076452Y-61595390D01*
X160076452Y-61595390D02*
X160152643Y-61557295D01*
X161905024Y-62357295D02*
X161638357Y-61976342D01*
X161447881Y-62357295D02*
X161447881Y-61557295D01*
X161447881Y-61557295D02*
X161752643Y-61557295D01*
X161752643Y-61557295D02*
X161828833Y-61595390D01*
X161828833Y-61595390D02*
X161866928Y-61633485D01*
X161866928Y-61633485D02*
X161905024Y-61709676D01*
X161905024Y-61709676D02*
X161905024Y-61823961D01*
X161905024Y-61823961D02*
X161866928Y-61900152D01*
X161866928Y-61900152D02*
X161828833Y-61938247D01*
X161828833Y-61938247D02*
X161752643Y-61976342D01*
X161752643Y-61976342D02*
X161447881Y-61976342D01*
X162247881Y-62357295D02*
X162247881Y-61557295D01*
X162247881Y-61557295D02*
X162552643Y-61557295D01*
X162552643Y-61557295D02*
X162628833Y-61595390D01*
X162628833Y-61595390D02*
X162666928Y-61633485D01*
X162666928Y-61633485D02*
X162705024Y-61709676D01*
X162705024Y-61709676D02*
X162705024Y-61823961D01*
X162705024Y-61823961D02*
X162666928Y-61900152D01*
X162666928Y-61900152D02*
X162628833Y-61938247D01*
X162628833Y-61938247D02*
X162552643Y-61976342D01*
X162552643Y-61976342D02*
X162247881Y-61976342D01*
X163009785Y-61633485D02*
X163047881Y-61595390D01*
X163047881Y-61595390D02*
X163124071Y-61557295D01*
X163124071Y-61557295D02*
X163314547Y-61557295D01*
X163314547Y-61557295D02*
X163390738Y-61595390D01*
X163390738Y-61595390D02*
X163428833Y-61633485D01*
X163428833Y-61633485D02*
X163466928Y-61709676D01*
X163466928Y-61709676D02*
X163466928Y-61785866D01*
X163466928Y-61785866D02*
X163428833Y-61900152D01*
X163428833Y-61900152D02*
X162971690Y-62357295D01*
X162971690Y-62357295D02*
X163466928Y-62357295D01*
X163962167Y-61557295D02*
X164038357Y-61557295D01*
X164038357Y-61557295D02*
X164114548Y-61595390D01*
X164114548Y-61595390D02*
X164152643Y-61633485D01*
X164152643Y-61633485D02*
X164190738Y-61709676D01*
X164190738Y-61709676D02*
X164228833Y-61862057D01*
X164228833Y-61862057D02*
X164228833Y-62052533D01*
X164228833Y-62052533D02*
X164190738Y-62204914D01*
X164190738Y-62204914D02*
X164152643Y-62281104D01*
X164152643Y-62281104D02*
X164114548Y-62319200D01*
X164114548Y-62319200D02*
X164038357Y-62357295D01*
X164038357Y-62357295D02*
X163962167Y-62357295D01*
X163962167Y-62357295D02*
X163885976Y-62319200D01*
X163885976Y-62319200D02*
X163847881Y-62281104D01*
X163847881Y-62281104D02*
X163809786Y-62204914D01*
X163809786Y-62204914D02*
X163771690Y-62052533D01*
X163771690Y-62052533D02*
X163771690Y-61862057D01*
X163771690Y-61862057D02*
X163809786Y-61709676D01*
X163809786Y-61709676D02*
X163847881Y-61633485D01*
X163847881Y-61633485D02*
X163885976Y-61595390D01*
X163885976Y-61595390D02*
X163962167Y-61557295D01*
X164914548Y-61823961D02*
X164914548Y-62357295D01*
X164724072Y-61519200D02*
X164533595Y-62090628D01*
X164533595Y-62090628D02*
X165028834Y-62090628D01*
X165485977Y-61557295D02*
X165562167Y-61557295D01*
X165562167Y-61557295D02*
X165638358Y-61595390D01*
X165638358Y-61595390D02*
X165676453Y-61633485D01*
X165676453Y-61633485D02*
X165714548Y-61709676D01*
X165714548Y-61709676D02*
X165752643Y-61862057D01*
X165752643Y-61862057D02*
X165752643Y-62052533D01*
X165752643Y-62052533D02*
X165714548Y-62204914D01*
X165714548Y-62204914D02*
X165676453Y-62281104D01*
X165676453Y-62281104D02*
X165638358Y-62319200D01*
X165638358Y-62319200D02*
X165562167Y-62357295D01*
X165562167Y-62357295D02*
X165485977Y-62357295D01*
X165485977Y-62357295D02*
X165409786Y-62319200D01*
X165409786Y-62319200D02*
X165371691Y-62281104D01*
X165371691Y-62281104D02*
X165333596Y-62204914D01*
X165333596Y-62204914D02*
X165295500Y-62052533D01*
X165295500Y-62052533D02*
X165295500Y-61862057D01*
X165295500Y-61862057D02*
X165333596Y-61709676D01*
X165333596Y-61709676D02*
X165371691Y-61633485D01*
X165371691Y-61633485D02*
X165409786Y-61595390D01*
X165409786Y-61595390D02*
X165485977Y-61557295D01*
X82209524Y-70133723D02*
X82590477Y-70133723D01*
X82133334Y-70362295D02*
X82400001Y-69562295D01*
X82400001Y-69562295D02*
X82666667Y-70362295D01*
X82933334Y-70362295D02*
X82933334Y-69828961D01*
X82933334Y-69562295D02*
X82895238Y-69600390D01*
X82895238Y-69600390D02*
X82933334Y-69638485D01*
X82933334Y-69638485D02*
X82971429Y-69600390D01*
X82971429Y-69600390D02*
X82933334Y-69562295D01*
X82933334Y-69562295D02*
X82933334Y-69638485D01*
X83314286Y-70362295D02*
X83314286Y-69828961D01*
X83314286Y-69981342D02*
X83352381Y-69905152D01*
X83352381Y-69905152D02*
X83390476Y-69867057D01*
X83390476Y-69867057D02*
X83466667Y-69828961D01*
X83466667Y-69828961D02*
X83542857Y-69828961D01*
X83809524Y-70057533D02*
X84419048Y-70057533D01*
X84800000Y-69562295D02*
X84800000Y-70209914D01*
X84800000Y-70209914D02*
X84838095Y-70286104D01*
X84838095Y-70286104D02*
X84876190Y-70324200D01*
X84876190Y-70324200D02*
X84952381Y-70362295D01*
X84952381Y-70362295D02*
X85104762Y-70362295D01*
X85104762Y-70362295D02*
X85180952Y-70324200D01*
X85180952Y-70324200D02*
X85219047Y-70286104D01*
X85219047Y-70286104D02*
X85257143Y-70209914D01*
X85257143Y-70209914D02*
X85257143Y-69562295D01*
X85599999Y-70133723D02*
X85980952Y-70133723D01*
X85523809Y-70362295D02*
X85790476Y-69562295D01*
X85790476Y-69562295D02*
X86057142Y-70362295D01*
X86780952Y-70362295D02*
X86514285Y-69981342D01*
X86323809Y-70362295D02*
X86323809Y-69562295D01*
X86323809Y-69562295D02*
X86628571Y-69562295D01*
X86628571Y-69562295D02*
X86704761Y-69600390D01*
X86704761Y-69600390D02*
X86742856Y-69638485D01*
X86742856Y-69638485D02*
X86780952Y-69714676D01*
X86780952Y-69714676D02*
X86780952Y-69828961D01*
X86780952Y-69828961D02*
X86742856Y-69905152D01*
X86742856Y-69905152D02*
X86704761Y-69943247D01*
X86704761Y-69943247D02*
X86628571Y-69981342D01*
X86628571Y-69981342D02*
X86323809Y-69981342D01*
X87009523Y-69562295D02*
X87466666Y-69562295D01*
X87238094Y-70362295D02*
X87238094Y-69562295D01*
D12*
%TO.C,PitoTube*%
X212140000Y-56190000D02*
X212140000Y-57610000D01*
X212140000Y-57610000D02*
X216640000Y-57610000D01*
X212140000Y-67390000D02*
X216640000Y-67390000D01*
X212140000Y-68810000D02*
X212140000Y-67390000D01*
X212870000Y-60910000D02*
X213470000Y-61210000D01*
X212870000Y-61510000D02*
X212870000Y-60910000D01*
X213470000Y-61210000D02*
X212870000Y-61510000D01*
X216640000Y-57610000D02*
X216640000Y-62500000D01*
X216640000Y-67390000D02*
X216640000Y-62500000D01*
X217750000Y-58500000D02*
X217750000Y-59000000D01*
X217750000Y-59000000D02*
X223250000Y-59000000D01*
X217750000Y-61000000D02*
X217750000Y-61500000D01*
X217750000Y-61500000D02*
X223250000Y-61500000D01*
X217750000Y-63500000D02*
X217750000Y-64000000D01*
X217750000Y-64000000D02*
X223250000Y-64000000D01*
X217750000Y-66000000D02*
X217750000Y-66500000D01*
X217750000Y-66500000D02*
X223250000Y-66500000D01*
X223250000Y-58500000D02*
X217750000Y-58500000D01*
X223250000Y-59000000D02*
X223250000Y-58500000D01*
X223250000Y-61000000D02*
X217750000Y-61000000D01*
X223250000Y-61500000D02*
X223250000Y-61000000D01*
X223250000Y-63500000D02*
X217750000Y-63500000D01*
X223250000Y-64000000D02*
X223250000Y-63500000D01*
X223250000Y-66000000D02*
X217750000Y-66000000D01*
X223250000Y-66500000D02*
X223250000Y-66000000D01*
X223860000Y-56190000D02*
X212140000Y-56190000D01*
X223860000Y-62500000D02*
X223860000Y-56190000D01*
X223860000Y-62500000D02*
X223860000Y-68810000D01*
X223860000Y-68810000D02*
X212140000Y-68810000D01*
%TO.C,AS5600*%
D13*
X130510000Y-58570000D02*
X150530000Y-58570000D01*
X150530000Y-72070000D01*
X130510000Y-72070000D01*
X130510000Y-58570000D01*
X139000000Y-60190000D02*
X142000000Y-60190000D01*
X142000000Y-64690000D01*
X139000000Y-64690000D01*
X139000000Y-60190000D01*
%TO.C,U2*%
D12*
X90690000Y-53560000D02*
X101690000Y-53560000D01*
X101690000Y-71560000D01*
X90690000Y-71560000D01*
X90690000Y-53560000D01*
X92126000Y-56337000D02*
X92761000Y-56337000D01*
X92761000Y-55067000D01*
X92126000Y-55067000D01*
X92126000Y-56337000D01*
X93777000Y-60655000D02*
X98476000Y-60655000D01*
X98476000Y-64465000D01*
X93777000Y-64465000D01*
X93777000Y-60655000D01*
X95174000Y-57226000D02*
X97333000Y-57226000D01*
X97333000Y-54305000D01*
X95174000Y-54305000D01*
X95174000Y-57226000D01*
X95174000Y-58623000D02*
X97968000Y-58623000D01*
X97968000Y-59766000D01*
X95174000Y-59766000D01*
X95174000Y-58623000D01*
X96793250Y-69545000D02*
X98380750Y-69545000D01*
X98380750Y-67894000D01*
X96793250Y-67894000D01*
X96793250Y-69545000D01*
X99746000Y-70688000D02*
X100889000Y-70688000D01*
X100889000Y-68529000D01*
X99746000Y-68529000D01*
X99746000Y-70688000D01*
D13*
%TO.C,AoA*%
X180720000Y-62000000D02*
X180720000Y-63500000D01*
X180720000Y-63500000D02*
X200720000Y-63500000D01*
X183220000Y-58500000D02*
X198320000Y-58400000D01*
X183220000Y-62000000D02*
X183220000Y-58500000D01*
X198320000Y-58400000D02*
X198420000Y-62000000D01*
X200720000Y-62000000D02*
X180720000Y-62000000D01*
X200720000Y-63500000D02*
X200720000Y-62000000D01*
X188720000Y-63500000D02*
X192620000Y-63500000D01*
X192620000Y-65000000D01*
X188720000Y-65000000D01*
X188720000Y-63500000D01*
%TO.C,REF\u002A\u002A*%
X198850000Y-59750000D02*
X203850000Y-59750000D01*
X198850000Y-61900000D02*
X198850000Y-59750000D01*
X198850000Y-63600000D02*
X198850000Y-65750000D01*
X200850000Y-61900000D02*
X198850000Y-61900000D01*
X200850000Y-61950000D02*
X200850000Y-61900000D01*
X200850000Y-62750000D02*
X200850000Y-61950000D01*
X200850000Y-63550000D02*
X200850000Y-62750000D01*
X200850000Y-63550000D02*
X200850000Y-63600000D01*
X200850000Y-63600000D02*
X198850000Y-63600000D01*
X203850000Y-59750000D02*
X203850000Y-65750000D01*
X203850000Y-60350000D02*
X205850000Y-60350000D01*
X203850000Y-65750000D02*
X198850000Y-65750000D01*
X205850000Y-60350000D02*
X205850000Y-65150000D01*
X205850000Y-65150000D02*
X203850000Y-65150000D01*
X205350000Y-62750000D02*
G75*
G02*
X204350000Y-62750000I-500000J0D01*
G01*
X204350000Y-62750000D02*
G75*
G02*
X205350000Y-62750000I500000J0D01*
G01*
D14*
%TO.C,DPS310-Adafruits1*%
X103430000Y-56300000D02*
X103430000Y-69000000D01*
X105970000Y-71540000D02*
X126290000Y-71540000D01*
X126290000Y-53760000D02*
X105970000Y-53760000D01*
X128830000Y-69000000D02*
X128830000Y-56300000D01*
X103430000Y-56300000D02*
G75*
G02*
X105970000Y-53760000I2540001J-1D01*
G01*
X105970000Y-71540000D02*
G75*
G02*
X103430000Y-69000000I1J2540001D01*
G01*
X126290000Y-53760000D02*
G75*
G02*
X128830000Y-56300000I0J-2540000D01*
G01*
X128830000Y-69000000D02*
G75*
G02*
X126290000Y-71540000I-2540000J0D01*
G01*
D13*
%TO.C,REF\u002A\u002A*%
X175600000Y-60350000D02*
X177600000Y-60350000D01*
X175600000Y-65150000D02*
X175600000Y-60350000D01*
X177600000Y-59750000D02*
X182600000Y-59750000D01*
X177600000Y-65150000D02*
X175600000Y-65150000D01*
X177600000Y-65750000D02*
X177600000Y-59750000D01*
X180600000Y-61900000D02*
X182600000Y-61900000D01*
X180600000Y-61950000D02*
X180600000Y-61900000D01*
X180600000Y-61950000D02*
X180600000Y-62750000D01*
X180600000Y-62750000D02*
X180600000Y-63550000D01*
X180600000Y-63550000D02*
X180600000Y-63600000D01*
X180600000Y-63600000D02*
X182600000Y-63600000D01*
X182600000Y-61900000D02*
X182600000Y-59750000D01*
X182600000Y-63600000D02*
X182600000Y-65750000D01*
X182600000Y-65750000D02*
X177600000Y-65750000D01*
X177100000Y-62750000D02*
G75*
G02*
X176100000Y-62750000I-500000J0D01*
G01*
X176100000Y-62750000D02*
G75*
G02*
X177100000Y-62750000I500000J0D01*
G01*
D15*
%TO.C,U1*%
X153035340Y-51200000D02*
X153035340Y-72198180D01*
X153035340Y-72198180D02*
X170162560Y-72198180D01*
D16*
X156736120Y-65548460D02*
X156736120Y-68218000D01*
X156736120Y-69615000D02*
X156736120Y-72282000D01*
D15*
X157439700Y-66269820D02*
X166438920Y-66269820D01*
X157439700Y-73623120D02*
X157439700Y-66269820D01*
D16*
X158514120Y-65548460D02*
X156736120Y-65548460D01*
X158514120Y-65548460D02*
X158514120Y-68218000D01*
X158514120Y-68218000D02*
X156736120Y-68218000D01*
X158514120Y-69615000D02*
X156736120Y-69615000D01*
X158514120Y-69615000D02*
X158514120Y-72282000D01*
X158514120Y-72282000D02*
X156736120Y-72282000D01*
X158768120Y-51835000D02*
X158768120Y-54375000D01*
X159403120Y-68980000D02*
X159403120Y-71520000D01*
X164483120Y-51835000D02*
X158768120Y-51835000D01*
X164483120Y-51835000D02*
X164483120Y-54375000D01*
X164483120Y-54375000D02*
X158768120Y-54375000D01*
X164483120Y-68980000D02*
X159403120Y-68980000D01*
X164483120Y-68980000D02*
X164483120Y-71520000D01*
X164483120Y-71520000D02*
X159403120Y-71520000D01*
X165372120Y-65548460D02*
X165372120Y-68218000D01*
X165372120Y-69615000D02*
X165372120Y-72282000D01*
D15*
X166433840Y-73623120D02*
X157439700Y-73623120D01*
X166438920Y-66269820D02*
X166438920Y-73623120D01*
D16*
X167150120Y-65548460D02*
X165372120Y-65548460D01*
X167150120Y-65548460D02*
X167150120Y-68218000D01*
X167150120Y-68218000D02*
X165372120Y-68218000D01*
X167150120Y-69615000D02*
X165372120Y-69615000D01*
X167150120Y-69615000D02*
X167150120Y-72282000D01*
X167150120Y-72282000D02*
X165372120Y-72282000D01*
D15*
X170162560Y-72198180D02*
X170833120Y-71527620D01*
X170833120Y-51200000D02*
X153035340Y-51200000D01*
X170833120Y-71527620D02*
X170833120Y-51200000D01*
D17*
X171849120Y-69361000D02*
G75*
G02*
X171595120Y-69361000I-127000J0D01*
G01*
X171595120Y-69361000D02*
G75*
G02*
X171849120Y-69361000I127000J0D01*
G01*
D12*
%TO.C,Air-UART*%
X75640000Y-56190000D02*
X87360000Y-56190000D01*
X75640000Y-62500000D02*
X75640000Y-56190000D01*
X75640000Y-62500000D02*
X75640000Y-68810000D01*
X75640000Y-68810000D02*
X87360000Y-68810000D01*
X76250000Y-58500000D02*
X76250000Y-59000000D01*
X76250000Y-59000000D02*
X81750000Y-59000000D01*
X76250000Y-61000000D02*
X76250000Y-61500000D01*
X76250000Y-61500000D02*
X81750000Y-61500000D01*
X76250000Y-63500000D02*
X76250000Y-64000000D01*
X76250000Y-64000000D02*
X81750000Y-64000000D01*
X76250000Y-66000000D02*
X76250000Y-66500000D01*
X76250000Y-66500000D02*
X81750000Y-66500000D01*
X81750000Y-58500000D02*
X76250000Y-58500000D01*
X81750000Y-59000000D02*
X81750000Y-58500000D01*
X81750000Y-61000000D02*
X76250000Y-61000000D01*
X81750000Y-61500000D02*
X81750000Y-61000000D01*
X81750000Y-63500000D02*
X76250000Y-63500000D01*
X81750000Y-64000000D02*
X81750000Y-63500000D01*
X81750000Y-66000000D02*
X76250000Y-66000000D01*
X81750000Y-66500000D02*
X81750000Y-66000000D01*
X82860000Y-57610000D02*
X82860000Y-62500000D01*
X82860000Y-67390000D02*
X82860000Y-62500000D01*
X86450000Y-58750000D02*
X87050000Y-58450000D01*
X87050000Y-58450000D02*
X87050000Y-59050000D01*
X87050000Y-59050000D02*
X86450000Y-58750000D01*
X87360000Y-56190000D02*
X87360000Y-57610000D01*
X87360000Y-57610000D02*
X82860000Y-57610000D01*
X87360000Y-67390000D02*
X82860000Y-67390000D01*
X87360000Y-68810000D02*
X87360000Y-67390000D01*
%TD*%
M02*
