%TF.GenerationSoftware,KiCad,Pcbnew,9.0.0*%
%TF.CreationDate,2025-03-07T17:00:58+09:00*%
%TF.ProjectId,Airdata,41697264-6174-4612-9e6b-696361645f70,rev?*%
%TF.SameCoordinates,Original*%
%TF.FileFunction,Soldermask,Top*%
%TF.FilePolarity,Negative*%
%FSLAX46Y46*%
G04 Gerber Fmt 4.6, Leading zero omitted, Abs format (unit mm)*
G04 Created by KiCad (PCBNEW 9.0.0) date 2025-03-07 17:00:58*
%MOMM*%
%LPD*%
G01*
G04 APERTURE LIST*
G04 Aperture macros list*
%AMRoundRect*
0 Rectangle with rounded corners*
0 $1 Rounding radius*
0 $2 $3 $4 $5 $6 $7 $8 $9 X,Y pos of 4 corners*
0 Add a 4 corners polygon primitive as box body*
4,1,4,$2,$3,$4,$5,$6,$7,$8,$9,$2,$3,0*
0 Add four circle primitives for the rounded corners*
1,1,$1+$1,$2,$3*
1,1,$1+$1,$4,$5*
1,1,$1+$1,$6,$7*
1,1,$1+$1,$8,$9*
0 Add four rect primitives between the rounded corners*
20,1,$1+$1,$2,$3,$4,$5,0*
20,1,$1+$1,$4,$5,$6,$7,0*
20,1,$1+$1,$6,$7,$8,$9,0*
20,1,$1+$1,$8,$9,$2,$3,0*%
G04 Aperture macros list end*
%ADD10RoundRect,0.250000X0.725000X-0.600000X0.725000X0.600000X-0.725000X0.600000X-0.725000X-0.600000X0*%
%ADD11O,1.950000X1.700000*%
%ADD12C,2.700000*%
%ADD13C,1.600000*%
%ADD14C,2.000000*%
%ADD15R,5.000000X6.000000*%
%ADD16C,1.879600*%
%ADD17O,2.748280X1.998980*%
%ADD18O,1.016000X2.032000*%
%ADD19C,1.143000*%
%ADD20RoundRect,0.250000X-0.725000X0.600000X-0.725000X-0.600000X0.725000X-0.600000X0.725000X0.600000X0*%
%ADD21C,1.400000*%
G04 APERTURE END LIST*
D10*
%TO.C,PitoTube*%
X214550000Y-66250000D03*
D11*
X214550000Y-63750000D03*
X214550000Y-61250000D03*
X214550000Y-58750000D03*
%TD*%
D12*
%TO.C,REF\u002A\u002A*%
X83000000Y-72000000D03*
%TD*%
D13*
%TO.C,AS5600*%
X134150000Y-68500000D03*
X136690000Y-68500000D03*
X139230000Y-68500000D03*
X141770000Y-68500000D03*
X144310000Y-68500000D03*
X146850000Y-68500000D03*
%TD*%
D14*
%TO.C,U2*%
X92380000Y-58750000D03*
X92380000Y-61290000D03*
X92380000Y-63830000D03*
X92380000Y-66370000D03*
X100000000Y-66370000D03*
X100000000Y-63830000D03*
X100000000Y-61290000D03*
X100000000Y-58750000D03*
%TD*%
D12*
%TO.C,REF\u002A\u002A*%
X147000000Y-53000000D03*
%TD*%
D13*
%TO.C,AoA*%
X184500000Y-58500000D03*
X187040000Y-58500000D03*
X189580000Y-58500000D03*
X192120000Y-58500000D03*
X194660000Y-58500000D03*
X197200000Y-58500000D03*
%TD*%
D12*
%TO.C,REF\u002A\u002A*%
X217000000Y-72000000D03*
%TD*%
D15*
%TO.C,REF\u002A\u002A*%
X205850000Y-62750000D03*
%TD*%
D16*
%TO.C,DPS310-Adafruits1*%
X108510000Y-69000000D03*
X111050000Y-69000000D03*
X113590000Y-69000000D03*
X116130000Y-69000000D03*
X118670000Y-69000000D03*
X121210000Y-69000000D03*
X123750000Y-69000000D03*
%TD*%
D15*
%TO.C,REF\u002A\u002A*%
X175600000Y-62750000D03*
%TD*%
D12*
%TO.C,REF\u002A\u002A*%
X83000000Y-53000000D03*
%TD*%
D17*
%TO.C,U1*%
X170000000Y-69317820D03*
X170000000Y-66777820D03*
X170000000Y-64237820D03*
X170000000Y-61697820D03*
X170000000Y-59157820D03*
X170000000Y-56617820D03*
X170000000Y-54077820D03*
X153835440Y-54077820D03*
X153835440Y-56617820D03*
X153835440Y-59157820D03*
X153835440Y-61697820D03*
X153835440Y-64237820D03*
X153835440Y-66777820D03*
X153835440Y-69317820D03*
D18*
X163133120Y-53000000D03*
X160583120Y-53000000D03*
D19*
X163134317Y-70004187D03*
X160594317Y-70004187D03*
X163134317Y-67464187D03*
X160594317Y-67464187D03*
%TD*%
D12*
%TO.C,REF\u002A\u002A*%
X217000000Y-53000000D03*
%TD*%
D20*
%TO.C,Air-UART*%
X84950000Y-58750000D03*
D11*
X84950000Y-61250000D03*
X84950000Y-63750000D03*
X84950000Y-66250000D03*
%TD*%
D21*
%TO.C,J1*%
X95000000Y-52000000D03*
X97540000Y-52000000D03*
X100080000Y-52000000D03*
X102620000Y-52000000D03*
X105160000Y-52000000D03*
X107700000Y-52000000D03*
X110240000Y-52000000D03*
X112780000Y-52000000D03*
X115320000Y-52000000D03*
X117860000Y-52000000D03*
X115320000Y-64700000D03*
X97540000Y-64700000D03*
%TD*%
M02*
