%TF.GenerationSoftware,KiCad,Pcbnew,9.0.0*%
%TF.CreationDate,2025-03-07T17:00:57+09:00*%
%TF.ProjectId,Airdata,41697264-6174-4612-9e6b-696361645f70,rev?*%
%TF.SameCoordinates,Original*%
%TF.FileFunction,Copper,L1,Top*%
%TF.FilePolarity,Positive*%
%FSLAX46Y46*%
G04 Gerber Fmt 4.6, Leading zero omitted, Abs format (unit mm)*
G04 Created by KiCad (PCBNEW 9.0.0) date 2025-03-07 17:00:57*
%MOMM*%
%LPD*%
G01*
G04 APERTURE LIST*
G04 Aperture macros list*
%AMRoundRect*
0 Rectangle with rounded corners*
0 $1 Rounding radius*
0 $2 $3 $4 $5 $6 $7 $8 $9 X,Y pos of 4 corners*
0 Add a 4 corners polygon primitive as box body*
4,1,4,$2,$3,$4,$5,$6,$7,$8,$9,$2,$3,0*
0 Add four circle primitives for the rounded corners*
1,1,$1+$1,$2,$3*
1,1,$1+$1,$4,$5*
1,1,$1+$1,$6,$7*
1,1,$1+$1,$8,$9*
0 Add four rect primitives between the rounded corners*
20,1,$1+$1,$2,$3,$4,$5,0*
20,1,$1+$1,$4,$5,$6,$7,0*
20,1,$1+$1,$6,$7,$8,$9,0*
20,1,$1+$1,$8,$9,$2,$3,0*%
G04 Aperture macros list end*
%TA.AperFunction,ComponentPad*%
%ADD10RoundRect,0.250000X0.725000X-0.600000X0.725000X0.600000X-0.725000X0.600000X-0.725000X-0.600000X0*%
%TD*%
%TA.AperFunction,ComponentPad*%
%ADD11O,1.950000X1.700000*%
%TD*%
%TA.AperFunction,ComponentPad*%
%ADD12C,1.600000*%
%TD*%
%TA.AperFunction,ComponentPad*%
%ADD13C,2.000000*%
%TD*%
%TA.AperFunction,SMDPad,CuDef*%
%ADD14R,5.000000X6.000000*%
%TD*%
%TA.AperFunction,ComponentPad*%
%ADD15C,1.778000*%
%TD*%
%TA.AperFunction,SMDPad,CuDef*%
%ADD16O,2.748280X1.998980*%
%TD*%
%TA.AperFunction,SMDPad,CuDef*%
%ADD17O,1.016000X2.032000*%
%TD*%
%TA.AperFunction,SMDPad,CuDef*%
%ADD18C,1.143000*%
%TD*%
%TA.AperFunction,ComponentPad*%
%ADD19RoundRect,0.250000X-0.725000X0.600000X-0.725000X-0.600000X0.725000X-0.600000X0.725000X0.600000X0*%
%TD*%
%TA.AperFunction,ComponentPad*%
%ADD20C,1.400000*%
%TD*%
%TA.AperFunction,ViaPad*%
%ADD21C,0.600000*%
%TD*%
%TA.AperFunction,Conductor*%
%ADD22C,0.200000*%
%TD*%
G04 APERTURE END LIST*
D10*
%TO.P,PitoTube,1,Pin_1*%
%TO.N,/SCL1*%
X214550000Y-66250000D03*
D11*
%TO.P,PitoTube,2,Pin_2*%
%TO.N,+3V3*%
X214550000Y-63750000D03*
%TO.P,PitoTube,3,Pin_3*%
%TO.N,GND*%
X214550000Y-61250000D03*
%TO.P,PitoTube,4,Pin_4*%
%TO.N,/SDA1*%
X214550000Y-58750000D03*
%TD*%
D12*
%TO.P,AS5600,1,5V*%
%TO.N,+3V3*%
X134150000Y-68500000D03*
%TO.P,AS5600,2,3V3*%
X136690000Y-68500000D03*
%TO.P,AS5600,3,GND*%
%TO.N,GND*%
X139230000Y-68500000D03*
%TO.P,AS5600,4,SCL*%
%TO.N,/SCL*%
X141770000Y-68500000D03*
%TO.P,AS5600,5,SDA*%
%TO.N,/SDA*%
X144310000Y-68500000D03*
%TO.P,AS5600,6,OUT*%
%TO.N,unconnected-(U4-OUT-Pad6)*%
X146850000Y-68500000D03*
%TD*%
D13*
%TO.P,U2,1,VIN*%
%TO.N,+3V3*%
X92380000Y-58750000D03*
%TO.P,U2,2,GND*%
%TO.N,GND*%
X92380000Y-61290000D03*
%TO.P,U2,3,SDA*%
%TO.N,/SDA*%
X92380000Y-63830000D03*
%TO.P,U2,4,SCL*%
%TO.N,/SCL*%
X92380000Y-66370000D03*
%TO.P,U2,5,RESET*%
%TO.N,unconnected-(U2-RESET-Pad5)*%
X100000000Y-66370000D03*
%TO.P,U2,6,INT*%
%TO.N,unconnected-(U2-INT-Pad6)*%
X100000000Y-63830000D03*
%TO.P,U2,7,GND*%
%TO.N,GND*%
X100000000Y-61290000D03*
%TO.P,U2,8,VOUT*%
%TO.N,unconnected-(U2-VOUT-Pad8)*%
X100000000Y-58750000D03*
%TD*%
D12*
%TO.P,AoA,1,5V*%
%TO.N,+3V3*%
X184500000Y-58500000D03*
%TO.P,AoA,2,3V3*%
X187040000Y-58500000D03*
%TO.P,AoA,3,GND*%
%TO.N,GND*%
X189580000Y-58500000D03*
%TO.P,AoA,4,SCL*%
%TO.N,/SCL1*%
X192120000Y-58500000D03*
%TO.P,AoA,5,SDA*%
%TO.N,/SDA1*%
X194660000Y-58500000D03*
%TO.P,AoA,6,OUT*%
%TO.N,unconnected-(U3-OUT-Pad6)*%
X197200000Y-58500000D03*
%TD*%
D14*
%TO.P,REF\u002A\u002A,*%
%TO.N,*%
X205850000Y-62750000D03*
%TD*%
D15*
%TO.P,DPS310-Adafruits1,1,VIN*%
%TO.N,+3V3*%
X108510000Y-69000000D03*
%TO.P,DPS310-Adafruits1,2,3V3*%
%TO.N,unconnected-(DPS310-Adafruits1-3V3-Pad2)*%
X111050000Y-69000000D03*
%TO.P,DPS310-Adafruits1,3,GND*%
%TO.N,GND*%
X113590000Y-69000000D03*
%TO.P,DPS310-Adafruits1,4,SCK*%
%TO.N,/SCL*%
X116130000Y-69000000D03*
%TO.P,DPS310-Adafruits1,5,SDO*%
%TO.N,unconnected-(DPS310-Adafruits1-SDO-Pad5)*%
X118670000Y-69000000D03*
%TO.P,DPS310-Adafruits1,6,SDI*%
%TO.N,/SDA*%
X121210000Y-69000000D03*
%TO.P,DPS310-Adafruits1,7,CS*%
%TO.N,unconnected-(DPS310-Adafruits1-CS-Pad7)*%
X123750000Y-69000000D03*
%TD*%
D14*
%TO.P,REF\u002A\u002A,*%
%TO.N,*%
X175600000Y-62750000D03*
%TD*%
D16*
%TO.P,U1,1,PA02_A0_D0*%
%TO.N,/SDA*%
X170000000Y-69317820D03*
%TO.P,U1,2,PA4_A1_D1*%
%TO.N,/SCL*%
X170000000Y-66777820D03*
%TO.P,U1,3,PA10_A2_D2*%
%TO.N,/SDA1*%
X170000000Y-64237820D03*
%TO.P,U1,4,PA11_A3_D3*%
%TO.N,/SCL1*%
X170000000Y-61697820D03*
%TO.P,U1,5,PA8_A4_D4_SDA*%
%TO.N,/SS*%
X170000000Y-59157820D03*
%TO.P,U1,6,PA9_A5_D5_SCL*%
%TO.N,unconnected-(U1-PA9_A5_D5_SCL-Pad6)*%
X170000000Y-56617820D03*
%TO.P,U1,7,PB08_A6_D6_TX*%
%TO.N,/RRXT*%
X170000000Y-54077820D03*
%TO.P,U1,8,PB09_A7_D7_RX*%
%TO.N,/RTXR*%
X153835440Y-54077820D03*
%TO.P,U1,9,PA7_A8_D8_SCK*%
%TO.N,Net-(J1-CLK)*%
X153835440Y-56617820D03*
%TO.P,U1,10,PA5_A9_D9_MISO*%
%TO.N,Net-(J1-DAT0)*%
X153835440Y-59157820D03*
%TO.P,U1,11,PA6_A10_D10_MOSI*%
%TO.N,Net-(J1-CMD)*%
X153835440Y-61697820D03*
%TO.P,U1,12,3V3*%
%TO.N,+3V3*%
X153835440Y-64237820D03*
%TO.P,U1,13,GND*%
%TO.N,GND*%
X153835440Y-66777820D03*
%TO.P,U1,14,5V*%
%TO.N,+5V*%
X153835440Y-69317820D03*
D17*
%TO.P,U1,15*%
%TO.N,N/C*%
X163133120Y-53000000D03*
%TO.P,U1,16*%
X160583120Y-53000000D03*
D18*
%TO.P,U1,17*%
X163134317Y-70004187D03*
%TO.P,U1,18*%
X160594317Y-70004187D03*
%TO.P,U1,19*%
X163134317Y-67464187D03*
%TO.P,U1,20*%
X160594317Y-67464187D03*
%TD*%
D19*
%TO.P,Air-UART,1,Pin_1*%
%TO.N,GND*%
X84950000Y-58750000D03*
D11*
%TO.P,Air-UART,2,Pin_2*%
%TO.N,+5V*%
X84950000Y-61250000D03*
%TO.P,Air-UART,3,Pin_3*%
%TO.N,/RTXR*%
X84950000Y-63750000D03*
%TO.P,Air-UART,4,Pin_4*%
%TO.N,/RRXT*%
X84950000Y-66250000D03*
%TD*%
D20*
%TO.P,J1,1,DAT2*%
%TO.N,unconnected-(J1-DAT2-Pad1)*%
X95000000Y-52000000D03*
%TO.P,J1,2,DAT3/CD*%
%TO.N,/SS*%
X97540000Y-52000000D03*
%TO.P,J1,3,CMD*%
%TO.N,Net-(J1-CMD)*%
X100080000Y-52000000D03*
%TO.P,J1,4,VDD*%
%TO.N,+3V3*%
X102620000Y-52000000D03*
%TO.P,J1,5,CLK*%
%TO.N,Net-(J1-CLK)*%
X105160000Y-52000000D03*
%TO.P,J1,6,VSS*%
%TO.N,GND*%
X107700000Y-52000000D03*
%TO.P,J1,7,DAT0*%
%TO.N,Net-(J1-DAT0)*%
X110240000Y-52000000D03*
%TO.P,J1,8,DAT1*%
%TO.N,unconnected-(J1-DAT1-Pad8)*%
X112780000Y-52000000D03*
%TO.P,J1,9,DET_B*%
%TO.N,unconnected-(J1-DET_B-Pad9)*%
X115320000Y-52000000D03*
%TO.P,J1,10,DET_A*%
%TO.N,unconnected-(J1-DET_A-Pad10)*%
X117860000Y-52000000D03*
%TO.P,J1,11,SHIELD*%
%TO.N,unconnected-(J1-SHIELD-Pad11)*%
X115320000Y-64700000D03*
%TO.P,J1,13*%
%TO.N,N/C*%
X97540000Y-64700000D03*
%TD*%
D21*
%TO.N,Net-(J1-CLK)*%
X106500000Y-53500000D03*
X114500000Y-53500000D03*
%TO.N,+3V3*%
X174500000Y-58300000D03*
X156300000Y-61800000D03*
%TO.N,Net-(J1-CMD)*%
X150500000Y-61500000D03*
X100000000Y-53500000D03*
%TO.N,GND*%
X178593198Y-59667800D03*
X156300000Y-64300000D03*
%TO.N,/RTXR*%
X92600000Y-71200000D03*
X155800000Y-55800000D03*
%TO.N,+5V*%
X88000000Y-60000000D03*
X149500000Y-68500000D03*
%TO.N,/RRXT*%
X167800000Y-71200000D03*
X167800000Y-66200000D03*
%TO.N,/SDA*%
X166413175Y-71213175D03*
X156982690Y-70617310D03*
%TO.N,/SDA1*%
X172599998Y-61525000D03*
%TD*%
D22*
%TO.N,/SS*%
X132930000Y-50930000D02*
X98610000Y-50930000D01*
X171674140Y-53539554D02*
X169818586Y-51684000D01*
X149184000Y-56500000D02*
X138500000Y-56500000D01*
X98610000Y-50930000D02*
X97540000Y-52000000D01*
X154000000Y-51684000D02*
X149184000Y-56500000D01*
X169818586Y-51684000D02*
X154000000Y-51684000D01*
X171674140Y-57483680D02*
X171674140Y-53539554D01*
X138500000Y-56500000D02*
X132930000Y-50930000D01*
X170000000Y-59157820D02*
X171674140Y-57483680D01*
%TO.N,Net-(J1-DAT0)*%
X117397820Y-59157820D02*
X110240000Y-52000000D01*
X153835440Y-59157820D02*
X117397820Y-59157820D01*
%TO.N,Net-(J1-CLK)*%
X105160000Y-52000000D02*
X106500000Y-53340000D01*
X106500000Y-53340000D02*
X106500000Y-53500000D01*
X105000000Y-52000000D02*
X105160000Y-52000000D01*
X115500000Y-54500000D02*
X114500000Y-53500000D01*
X119000000Y-58000000D02*
X151000000Y-58000000D01*
X152382180Y-56617820D02*
X153835440Y-56617820D01*
X115500000Y-54500000D02*
X119000000Y-58000000D01*
X151000000Y-58000000D02*
X152382180Y-56617820D01*
%TO.N,+3V3*%
X182700000Y-58500000D02*
X184500000Y-58500000D01*
X108510000Y-69000000D02*
X110910000Y-66600000D01*
X184500000Y-58500000D02*
X187040000Y-58500000D01*
X182500000Y-58300000D02*
X182700000Y-58500000D01*
X95130000Y-56000000D02*
X98600000Y-56000000D01*
X134150000Y-68500000D02*
X136690000Y-68500000D01*
X139590000Y-65600000D02*
X136690000Y-68500000D01*
X152473260Y-65600000D02*
X139590000Y-65600000D01*
X92380000Y-58750000D02*
X95130000Y-56000000D01*
X132250000Y-66600000D02*
X134150000Y-68500000D01*
X102600000Y-52000000D02*
X102620000Y-52000000D01*
X153835440Y-64237820D02*
X156273260Y-61800000D01*
X153835440Y-64237820D02*
X152473260Y-65600000D01*
X110910000Y-66600000D02*
X132250000Y-66600000D01*
X98600000Y-56000000D02*
X102600000Y-52000000D01*
X156273260Y-61800000D02*
X156300000Y-61800000D01*
X174500000Y-58300000D02*
X182500000Y-58300000D01*
%TO.N,Net-(J1-CMD)*%
X100000000Y-53500000D02*
X100000000Y-52080000D01*
X150500000Y-61500000D02*
X150697820Y-61697820D01*
X100000000Y-52080000D02*
X100080000Y-52000000D01*
X150697820Y-61697820D02*
X153835440Y-61697820D01*
X100080000Y-53420000D02*
X100000000Y-53500000D01*
%TO.N,GND*%
X89840000Y-58750000D02*
X92380000Y-61290000D01*
X96220000Y-57450000D02*
X92380000Y-61290000D01*
X153835440Y-66777820D02*
X139692180Y-66777820D01*
X107700000Y-53590000D02*
X107700000Y-52000000D01*
X84950000Y-58750000D02*
X89840000Y-58750000D01*
X100000000Y-61290000D02*
X107700000Y-53590000D01*
X94000000Y-62910000D02*
X94000000Y-65750000D01*
X139230000Y-69420000D02*
X138650000Y-70000000D01*
X178625398Y-59700000D02*
X188380000Y-59700000D01*
X114779000Y-67811000D02*
X113590000Y-69000000D01*
X178593198Y-59667800D02*
X178625398Y-59700000D01*
X156300000Y-64300000D02*
X156300000Y-64313260D01*
X138650000Y-70000000D02*
X127000000Y-70000000D01*
X124811000Y-67811000D02*
X114779000Y-67811000D01*
X92380000Y-61290000D02*
X94000000Y-62910000D01*
X98439000Y-70189000D02*
X112401000Y-70189000D01*
X139230000Y-67240000D02*
X139230000Y-68500000D01*
X139230000Y-68500000D02*
X139230000Y-69420000D01*
X112401000Y-70189000D02*
X113590000Y-69000000D01*
X94000000Y-65750000D02*
X98439000Y-70189000D01*
X156300000Y-64313260D02*
X153835440Y-66777820D01*
X188380000Y-59700000D02*
X189580000Y-58500000D01*
X127000000Y-70000000D02*
X124811000Y-67811000D01*
X139692180Y-66777820D02*
X139230000Y-67240000D01*
X100000000Y-61290000D02*
X92380000Y-61290000D01*
%TO.N,/RTXR*%
X155800000Y-55800000D02*
X154077820Y-54077820D01*
X85000000Y-63750000D02*
X84950000Y-63750000D01*
X154077820Y-54077820D02*
X153835440Y-54077820D01*
X84950000Y-63750000D02*
X92400000Y-71200000D01*
X92400000Y-71200000D02*
X92600000Y-71200000D01*
%TO.N,+5V*%
X150317820Y-69317820D02*
X153835440Y-69317820D01*
X149500000Y-68500000D02*
X150317820Y-69317820D01*
X86750000Y-61250000D02*
X88000000Y-60000000D01*
X84950000Y-61250000D02*
X86750000Y-61250000D01*
%TO.N,/RRXT*%
X169175160Y-54077820D02*
X170000000Y-54077820D01*
X91100000Y-72400000D02*
X84950000Y-66250000D01*
X166600000Y-72400000D02*
X91100000Y-72400000D01*
X167800000Y-71200000D02*
X166600000Y-72400000D01*
X167800000Y-66200000D02*
X167150000Y-65550000D01*
X167150000Y-56102980D02*
X169175160Y-54077820D01*
X167150000Y-65550000D02*
X167150000Y-56102980D01*
%TO.N,/SCL*%
X144520000Y-71250000D02*
X141770000Y-68500000D01*
X165527820Y-71250000D02*
X144520000Y-71250000D01*
X170000000Y-66777820D02*
X165527820Y-71250000D01*
X97260000Y-71250000D02*
X92380000Y-66370000D01*
X139020000Y-71250000D02*
X118380000Y-71250000D01*
X113880000Y-71250000D02*
X97260000Y-71250000D01*
X118380000Y-71250000D02*
X116130000Y-69000000D01*
X116130000Y-69000000D02*
X113880000Y-71250000D01*
X141770000Y-68500000D02*
X139020000Y-71250000D01*
%TO.N,/SDA*%
X156982690Y-70617310D02*
X146427310Y-70617310D01*
X166813175Y-70813175D02*
X166413175Y-71213175D01*
X166838175Y-70788175D02*
X168308530Y-69317820D01*
X166813175Y-70813175D02*
X166838175Y-70788175D01*
X168308530Y-69317820D02*
X170000000Y-69317820D01*
X146427310Y-70617310D02*
X144310000Y-68500000D01*
%TO.N,/SCL1*%
X174297820Y-57400000D02*
X191020000Y-57400000D01*
X191020000Y-57400000D02*
X192120000Y-58500000D01*
X211500000Y-63200000D02*
X214550000Y-66250000D01*
X192120000Y-58500000D02*
X193220000Y-57400000D01*
X209900000Y-57400000D02*
X211500000Y-59000000D01*
X170000000Y-61697820D02*
X174297820Y-57400000D01*
X193220000Y-57400000D02*
X209900000Y-57400000D01*
X211500000Y-59000000D02*
X211500000Y-63200000D01*
%TO.N,/SDA1*%
X170012180Y-64237820D02*
X170000000Y-64237820D01*
X172599998Y-61650002D02*
X170012180Y-64237820D01*
X172599998Y-61525000D02*
X172599998Y-61650002D01*
%TD*%
%TA.AperFunction,Conductor*%
%TO.N,GND*%
G36*
X97957940Y-50520185D02*
G01*
X98003695Y-50572989D01*
X98013639Y-50642147D01*
X97984614Y-50705703D01*
X97978590Y-50712172D01*
X97915463Y-50775299D01*
X97900829Y-50789934D01*
X97839505Y-50823418D01*
X97793750Y-50824725D01*
X97634486Y-50799500D01*
X97634481Y-50799500D01*
X97445519Y-50799500D01*
X97445514Y-50799500D01*
X97258881Y-50829059D01*
X97079163Y-50887454D01*
X96910800Y-50973240D01*
X96823579Y-51036610D01*
X96757927Y-51084310D01*
X96757925Y-51084312D01*
X96757924Y-51084312D01*
X96624312Y-51217924D01*
X96624312Y-51217925D01*
X96624310Y-51217927D01*
X96582775Y-51275095D01*
X96513240Y-51370800D01*
X96427454Y-51539163D01*
X96387931Y-51660803D01*
X96348493Y-51718478D01*
X96284134Y-51745676D01*
X96215288Y-51733761D01*
X96163812Y-51686516D01*
X96152069Y-51660803D01*
X96120337Y-51563144D01*
X96112547Y-51539168D01*
X96112545Y-51539165D01*
X96112545Y-51539163D01*
X96026759Y-51370800D01*
X96010121Y-51347900D01*
X95915690Y-51217927D01*
X95782073Y-51084310D01*
X95629199Y-50973240D01*
X95460836Y-50887454D01*
X95281118Y-50829059D01*
X95094486Y-50799500D01*
X95094481Y-50799500D01*
X94905519Y-50799500D01*
X94905514Y-50799500D01*
X94718881Y-50829059D01*
X94539163Y-50887454D01*
X94370800Y-50973240D01*
X94283579Y-51036610D01*
X94217927Y-51084310D01*
X94217925Y-51084312D01*
X94217924Y-51084312D01*
X94084312Y-51217924D01*
X94084312Y-51217925D01*
X94084310Y-51217927D01*
X94042775Y-51275095D01*
X93973240Y-51370800D01*
X93887454Y-51539163D01*
X93829059Y-51718881D01*
X93799500Y-51905513D01*
X93799500Y-52094486D01*
X93829059Y-52281118D01*
X93887454Y-52460836D01*
X93973107Y-52628937D01*
X93973240Y-52629199D01*
X94084310Y-52782073D01*
X94217927Y-52915690D01*
X94370801Y-53026760D01*
X94417541Y-53050575D01*
X94539163Y-53112545D01*
X94539165Y-53112545D01*
X94539168Y-53112547D01*
X94635497Y-53143846D01*
X94718881Y-53170940D01*
X94905514Y-53200500D01*
X94905519Y-53200500D01*
X95094486Y-53200500D01*
X95281118Y-53170940D01*
X95282623Y-53170451D01*
X95460832Y-53112547D01*
X95629199Y-53026760D01*
X95782073Y-52915690D01*
X95915690Y-52782073D01*
X96026760Y-52629199D01*
X96112547Y-52460832D01*
X96152069Y-52339195D01*
X96191507Y-52281521D01*
X96255866Y-52254323D01*
X96324712Y-52266238D01*
X96376188Y-52313482D01*
X96387930Y-52339194D01*
X96398793Y-52372627D01*
X96427454Y-52460836D01*
X96513107Y-52628937D01*
X96513240Y-52629199D01*
X96624310Y-52782073D01*
X96757927Y-52915690D01*
X96910801Y-53026760D01*
X96957541Y-53050575D01*
X97079163Y-53112545D01*
X97079165Y-53112545D01*
X97079168Y-53112547D01*
X97175497Y-53143846D01*
X97258881Y-53170940D01*
X97445514Y-53200500D01*
X97445519Y-53200500D01*
X97634486Y-53200500D01*
X97821118Y-53170940D01*
X97822623Y-53170451D01*
X98000832Y-53112547D01*
X98169199Y-53026760D01*
X98322073Y-52915690D01*
X98455690Y-52782073D01*
X98566760Y-52629199D01*
X98652547Y-52460832D01*
X98692069Y-52339195D01*
X98731507Y-52281521D01*
X98795866Y-52254323D01*
X98864712Y-52266238D01*
X98916188Y-52313482D01*
X98927930Y-52339194D01*
X98938793Y-52372627D01*
X98967454Y-52460836D01*
X99053107Y-52628937D01*
X99053240Y-52629199D01*
X99164310Y-52782073D01*
X99164312Y-52782075D01*
X99301372Y-52919135D01*
X99300329Y-52920177D01*
X99334931Y-52973172D01*
X99335437Y-53043040D01*
X99319313Y-53077857D01*
X99290608Y-53120816D01*
X99290602Y-53120827D01*
X99230264Y-53266498D01*
X99230261Y-53266510D01*
X99199500Y-53421153D01*
X99199500Y-53578846D01*
X99230261Y-53733489D01*
X99230264Y-53733501D01*
X99290602Y-53879172D01*
X99290609Y-53879185D01*
X99378210Y-54010288D01*
X99378213Y-54010292D01*
X99471661Y-54103740D01*
X99505146Y-54165063D01*
X99500162Y-54234755D01*
X99471661Y-54279102D01*
X98387584Y-55363181D01*
X98326261Y-55396666D01*
X98299903Y-55399500D01*
X95050942Y-55399500D01*
X94898213Y-55440423D01*
X94850598Y-55467915D01*
X94850597Y-55467915D01*
X94761287Y-55519477D01*
X94761282Y-55519481D01*
X94649478Y-55631286D01*
X92983563Y-57297200D01*
X92922240Y-57330685D01*
X92857564Y-57327450D01*
X92731370Y-57286447D01*
X92498097Y-57249500D01*
X92498092Y-57249500D01*
X92261908Y-57249500D01*
X92261903Y-57249500D01*
X92028631Y-57286446D01*
X91804003Y-57359433D01*
X91593566Y-57466657D01*
X91484550Y-57545862D01*
X91402490Y-57605483D01*
X91402488Y-57605485D01*
X91402487Y-57605485D01*
X91235485Y-57772487D01*
X91235485Y-57772488D01*
X91235483Y-57772490D01*
X91223873Y-57788470D01*
X91096657Y-57963566D01*
X90989433Y-58174003D01*
X90916446Y-58398631D01*
X90879500Y-58631902D01*
X90879500Y-58868097D01*
X90916446Y-59101368D01*
X90989433Y-59325996D01*
X91081998Y-59507664D01*
X91096657Y-59536433D01*
X91235483Y-59727510D01*
X91402490Y-59894517D01*
X91461716Y-59937547D01*
X91504381Y-59992875D01*
X91512448Y-60047593D01*
X91510893Y-60067340D01*
X92250591Y-60807037D01*
X92187007Y-60824075D01*
X92072993Y-60889901D01*
X91979901Y-60982993D01*
X91914075Y-61097007D01*
X91897037Y-61160591D01*
X91157340Y-60420894D01*
X91097084Y-60503830D01*
X90989897Y-60714197D01*
X90916934Y-60938752D01*
X90880000Y-61171947D01*
X90880000Y-61408052D01*
X90916934Y-61641247D01*
X90989897Y-61865802D01*
X91097087Y-62076174D01*
X91157338Y-62159104D01*
X91157340Y-62159105D01*
X91897037Y-61419408D01*
X91914075Y-61482993D01*
X91979901Y-61597007D01*
X92072993Y-61690099D01*
X92187007Y-61755925D01*
X92250590Y-61772962D01*
X91510893Y-62512658D01*
X91512448Y-62532405D01*
X91498084Y-62600783D01*
X91461717Y-62642451D01*
X91402490Y-62685482D01*
X91235485Y-62852487D01*
X91235485Y-62852488D01*
X91235483Y-62852490D01*
X91184376Y-62922832D01*
X91096657Y-63043566D01*
X90989433Y-63254003D01*
X90916446Y-63478631D01*
X90879500Y-63711902D01*
X90879500Y-63948097D01*
X90916446Y-64181368D01*
X90989433Y-64405996D01*
X91059930Y-64544352D01*
X91096657Y-64616433D01*
X91235483Y-64807510D01*
X91402490Y-64974517D01*
X91437127Y-64999683D01*
X91479792Y-65055013D01*
X91485771Y-65124626D01*
X91453165Y-65186421D01*
X91437130Y-65200315D01*
X91419365Y-65213222D01*
X91402488Y-65225484D01*
X91235485Y-65392487D01*
X91235485Y-65392488D01*
X91235483Y-65392490D01*
X91178486Y-65470939D01*
X91096657Y-65583566D01*
X90989433Y-65794003D01*
X90916446Y-66018631D01*
X90879500Y-66251902D01*
X90879500Y-66488097D01*
X90916446Y-66721368D01*
X90989433Y-66945996D01*
X91082653Y-67128949D01*
X91096657Y-67156433D01*
X91235483Y-67347510D01*
X91402490Y-67514517D01*
X91593567Y-67653343D01*
X91663589Y-67689021D01*
X91804003Y-67760566D01*
X91804005Y-67760566D01*
X91804008Y-67760568D01*
X91902432Y-67792548D01*
X92028631Y-67833553D01*
X92261903Y-67870500D01*
X92261908Y-67870500D01*
X92498097Y-67870500D01*
X92604126Y-67853705D01*
X92731368Y-67833553D01*
X92857566Y-67792547D01*
X92927404Y-67790553D01*
X92983563Y-67822798D01*
X96748584Y-71587819D01*
X96782069Y-71649142D01*
X96777085Y-71718834D01*
X96735213Y-71774767D01*
X96669749Y-71799184D01*
X96660903Y-71799500D01*
X93394168Y-71799500D01*
X93327129Y-71779815D01*
X93281374Y-71727011D01*
X93271430Y-71657853D01*
X93291067Y-71606608D01*
X93309389Y-71579187D01*
X93309390Y-71579184D01*
X93309394Y-71579179D01*
X93369737Y-71433497D01*
X93400500Y-71278842D01*
X93400500Y-71121158D01*
X93400500Y-71121155D01*
X93400499Y-71121153D01*
X93369738Y-70966510D01*
X93369737Y-70966503D01*
X93369735Y-70966498D01*
X93309397Y-70820827D01*
X93309390Y-70820814D01*
X93221789Y-70689711D01*
X93221786Y-70689707D01*
X93110292Y-70578213D01*
X93110288Y-70578210D01*
X92979185Y-70490609D01*
X92979172Y-70490602D01*
X92833501Y-70430264D01*
X92833489Y-70430261D01*
X92678845Y-70399500D01*
X92678842Y-70399500D01*
X92521158Y-70399500D01*
X92515096Y-70400097D01*
X92514851Y-70397611D01*
X92456156Y-70392355D01*
X92413884Y-70364649D01*
X86378102Y-64328867D01*
X86344617Y-64267544D01*
X86347851Y-64202874D01*
X86392246Y-64066243D01*
X86425500Y-63856287D01*
X86425500Y-63643713D01*
X86392246Y-63433757D01*
X86326557Y-63231588D01*
X86230051Y-63042184D01*
X86230049Y-63042181D01*
X86230048Y-63042179D01*
X86105109Y-62870213D01*
X85954792Y-62719896D01*
X85897029Y-62677929D01*
X85790204Y-62600316D01*
X85747540Y-62544989D01*
X85741561Y-62475376D01*
X85774166Y-62413580D01*
X85790199Y-62399686D01*
X85954792Y-62280104D01*
X86105104Y-62129792D01*
X86105106Y-62129788D01*
X86105109Y-62129786D01*
X86191928Y-62010288D01*
X86230051Y-61957816D01*
X86230349Y-61957230D01*
X86250235Y-61918205D01*
X86298209Y-61867409D01*
X86360719Y-61850500D01*
X86663331Y-61850500D01*
X86663347Y-61850501D01*
X86670943Y-61850501D01*
X86829054Y-61850501D01*
X86829057Y-61850501D01*
X86981785Y-61809577D01*
X87038421Y-61776878D01*
X87118716Y-61730520D01*
X87230520Y-61618716D01*
X87230520Y-61618714D01*
X87240724Y-61608511D01*
X87240727Y-61608506D01*
X88014662Y-60834572D01*
X88075983Y-60801089D01*
X88078150Y-60800638D01*
X88136085Y-60789113D01*
X88233497Y-60769737D01*
X88353704Y-60719946D01*
X88379172Y-60709397D01*
X88379172Y-60709396D01*
X88379179Y-60709394D01*
X88510289Y-60621789D01*
X88621789Y-60510289D01*
X88709394Y-60379179D01*
X88712975Y-60370535D01*
X88762694Y-60250500D01*
X88769737Y-60233497D01*
X88800500Y-60078842D01*
X88800500Y-59921158D01*
X88800500Y-59921155D01*
X88800499Y-59921153D01*
X88795200Y-59894514D01*
X88769737Y-59766503D01*
X88749397Y-59717397D01*
X88709397Y-59620827D01*
X88709390Y-59620814D01*
X88621789Y-59489711D01*
X88621786Y-59489707D01*
X88510292Y-59378213D01*
X88510288Y-59378210D01*
X88379185Y-59290609D01*
X88379172Y-59290602D01*
X88233501Y-59230264D01*
X88233489Y-59230261D01*
X88078845Y-59199500D01*
X88078842Y-59199500D01*
X87921158Y-59199500D01*
X87921155Y-59199500D01*
X87766510Y-59230261D01*
X87766498Y-59230264D01*
X87620827Y-59290602D01*
X87620814Y-59290609D01*
X87489711Y-59378210D01*
X87489707Y-59378213D01*
X87378213Y-59489707D01*
X87378210Y-59489711D01*
X87290609Y-59620814D01*
X87290602Y-59620827D01*
X87230264Y-59766498D01*
X87230261Y-59766508D01*
X87199361Y-59921850D01*
X87166976Y-59983761D01*
X87165425Y-59985339D01*
X86537584Y-60613181D01*
X86510656Y-60627884D01*
X86484838Y-60644477D01*
X86478637Y-60645368D01*
X86476261Y-60646666D01*
X86449903Y-60649500D01*
X86360719Y-60649500D01*
X86293680Y-60629815D01*
X86250235Y-60581795D01*
X86230052Y-60542185D01*
X86230051Y-60542184D01*
X86105109Y-60370213D01*
X85965931Y-60231035D01*
X85932446Y-60169712D01*
X85937430Y-60100020D01*
X85979302Y-60044087D01*
X85988516Y-60037815D01*
X86143343Y-59942317D01*
X86267315Y-59818345D01*
X86359356Y-59669124D01*
X86359358Y-59669119D01*
X86414505Y-59502697D01*
X86414506Y-59502690D01*
X86424999Y-59399986D01*
X86425000Y-59399973D01*
X86425000Y-59000000D01*
X85354146Y-59000000D01*
X85392630Y-58933343D01*
X85425000Y-58812535D01*
X85425000Y-58687465D01*
X85392630Y-58566657D01*
X85354146Y-58500000D01*
X86424999Y-58500000D01*
X86424999Y-58100028D01*
X86424998Y-58100013D01*
X86414505Y-57997302D01*
X86359358Y-57830880D01*
X86359356Y-57830875D01*
X86267315Y-57681654D01*
X86143345Y-57557684D01*
X85994124Y-57465643D01*
X85994119Y-57465641D01*
X85827697Y-57410494D01*
X85827690Y-57410493D01*
X85724986Y-57400000D01*
X85200000Y-57400000D01*
X85200000Y-58345854D01*
X85133343Y-58307370D01*
X85012535Y-58275000D01*
X84887465Y-58275000D01*
X84766657Y-58307370D01*
X84700000Y-58345854D01*
X84700000Y-57400000D01*
X84175028Y-57400000D01*
X84175012Y-57400001D01*
X84072302Y-57410494D01*
X83905880Y-57465641D01*
X83905875Y-57465643D01*
X83756654Y-57557684D01*
X83632684Y-57681654D01*
X83540643Y-57830875D01*
X83540641Y-57830880D01*
X83485494Y-57997302D01*
X83485493Y-57997309D01*
X83475000Y-58100013D01*
X83475000Y-58500000D01*
X84545854Y-58500000D01*
X84507370Y-58566657D01*
X84475000Y-58687465D01*
X84475000Y-58812535D01*
X84507370Y-58933343D01*
X84545854Y-59000000D01*
X83475001Y-59000000D01*
X83475001Y-59399986D01*
X83485494Y-59502697D01*
X83540641Y-59669119D01*
X83540643Y-59669124D01*
X83632684Y-59818345D01*
X83756654Y-59942315D01*
X83911484Y-60037815D01*
X83958208Y-60089763D01*
X83969431Y-60158726D01*
X83941587Y-60222808D01*
X83934069Y-60231035D01*
X83794889Y-60370215D01*
X83669951Y-60542179D01*
X83573444Y-60731585D01*
X83573443Y-60731587D01*
X83573443Y-60731588D01*
X83565750Y-60755264D01*
X83507753Y-60933760D01*
X83474500Y-61143713D01*
X83474500Y-61356286D01*
X83486746Y-61433608D01*
X83507754Y-61566243D01*
X83562098Y-61733497D01*
X83573444Y-61768414D01*
X83669951Y-61957820D01*
X83794890Y-62129786D01*
X83945209Y-62280105D01*
X83945214Y-62280109D01*
X84109793Y-62399682D01*
X84152459Y-62455011D01*
X84158438Y-62524625D01*
X84125833Y-62586420D01*
X84109793Y-62600318D01*
X83945214Y-62719890D01*
X83945209Y-62719894D01*
X83794890Y-62870213D01*
X83669951Y-63042179D01*
X83573444Y-63231585D01*
X83507753Y-63433760D01*
X83474500Y-63643713D01*
X83474500Y-63856287D01*
X83507754Y-64066243D01*
X83563939Y-64239163D01*
X83573444Y-64268414D01*
X83669951Y-64457820D01*
X83794890Y-64629786D01*
X83945209Y-64780105D01*
X83945214Y-64780109D01*
X84109793Y-64899682D01*
X84152459Y-64955011D01*
X84158438Y-65024625D01*
X84125833Y-65086420D01*
X84109793Y-65100318D01*
X83945214Y-65219890D01*
X83945209Y-65219894D01*
X83794890Y-65370213D01*
X83669951Y-65542179D01*
X83573444Y-65731585D01*
X83507753Y-65933760D01*
X83486276Y-66069360D01*
X83474500Y-66143713D01*
X83474500Y-66356287D01*
X83507754Y-66566243D01*
X83558157Y-66721368D01*
X83573444Y-66768414D01*
X83669951Y-66957820D01*
X83794890Y-67129786D01*
X83945213Y-67280109D01*
X84117179Y-67405048D01*
X84117181Y-67405049D01*
X84117184Y-67405051D01*
X84306588Y-67501557D01*
X84508757Y-67567246D01*
X84718713Y-67600500D01*
X84718714Y-67600500D01*
X85181285Y-67600500D01*
X85181287Y-67600500D01*
X85351949Y-67573469D01*
X85421240Y-67582423D01*
X85459026Y-67608261D01*
X90615139Y-72764374D01*
X90615149Y-72764385D01*
X90619479Y-72768715D01*
X90619480Y-72768716D01*
X90731284Y-72880520D01*
X90731286Y-72880521D01*
X90731290Y-72880524D01*
X90868209Y-72959573D01*
X90868216Y-72959577D01*
X90980019Y-72989534D01*
X91020942Y-73000500D01*
X91020943Y-73000500D01*
X166513331Y-73000500D01*
X166513347Y-73000501D01*
X166520943Y-73000501D01*
X166679054Y-73000501D01*
X166679057Y-73000501D01*
X166831785Y-72959577D01*
X166881904Y-72930639D01*
X166968716Y-72880520D01*
X167080520Y-72768716D01*
X167080520Y-72768714D01*
X167090728Y-72758507D01*
X167090729Y-72758504D01*
X167814662Y-72034572D01*
X167875983Y-72001089D01*
X167878150Y-72000638D01*
X167936085Y-71989113D01*
X168033497Y-71969737D01*
X168179179Y-71909394D01*
X168310289Y-71821789D01*
X168421789Y-71710289D01*
X168509394Y-71579179D01*
X168569737Y-71433497D01*
X168600500Y-71278842D01*
X168600500Y-71121158D01*
X168600500Y-71121155D01*
X168600499Y-71121153D01*
X168569738Y-70966510D01*
X168569737Y-70966503D01*
X168569735Y-70966498D01*
X168509397Y-70820827D01*
X168509390Y-70820814D01*
X168421789Y-70689711D01*
X168421786Y-70689707D01*
X168310292Y-70578213D01*
X168310288Y-70578210D01*
X168188394Y-70496762D01*
X168174883Y-70480595D01*
X168158018Y-70467970D01*
X168152928Y-70454324D01*
X168143589Y-70443149D01*
X168140963Y-70422245D01*
X168133601Y-70402506D01*
X168136696Y-70388274D01*
X168134882Y-70373824D01*
X168143974Y-70354819D01*
X168148453Y-70334233D01*
X168163336Y-70314351D01*
X168165037Y-70310797D01*
X168169585Y-70305998D01*
X168252052Y-70223531D01*
X168313373Y-70190048D01*
X168383065Y-70195032D01*
X168438998Y-70236904D01*
X168440037Y-70238312D01*
X168475920Y-70287701D01*
X168481223Y-70294999D01*
X168648173Y-70461949D01*
X168648178Y-70461953D01*
X168791440Y-70566038D01*
X168839184Y-70600726D01*
X168973230Y-70669026D01*
X169049549Y-70707913D01*
X169049551Y-70707913D01*
X169049554Y-70707915D01*
X169274102Y-70780875D01*
X169507298Y-70817810D01*
X169507299Y-70817810D01*
X170492701Y-70817810D01*
X170492702Y-70817810D01*
X170725898Y-70780875D01*
X170950446Y-70707915D01*
X171160816Y-70600726D01*
X171351828Y-70461948D01*
X171518778Y-70294998D01*
X171657556Y-70103986D01*
X171764745Y-69893616D01*
X171837705Y-69669068D01*
X171874640Y-69435872D01*
X171874640Y-69199768D01*
X171837705Y-68966572D01*
X171764745Y-68742024D01*
X171764743Y-68742021D01*
X171764743Y-68742019D01*
X171693578Y-68602351D01*
X171657556Y-68531654D01*
X171623906Y-68485339D01*
X171518783Y-68340648D01*
X171518779Y-68340643D01*
X171351824Y-68173688D01*
X171316657Y-68148139D01*
X171273991Y-68092810D01*
X171268010Y-68023197D01*
X171300615Y-67961401D01*
X171316657Y-67947501D01*
X171351824Y-67921951D01*
X171351824Y-67921950D01*
X171351828Y-67921948D01*
X171518778Y-67754998D01*
X171657556Y-67563986D01*
X171764745Y-67353616D01*
X171837705Y-67129068D01*
X171874640Y-66895872D01*
X171874640Y-66659768D01*
X171837705Y-66426572D01*
X171764745Y-66202024D01*
X171764743Y-66202021D01*
X171764743Y-66202019D01*
X171722684Y-66119475D01*
X171657556Y-65991654D01*
X171615494Y-65933760D01*
X171518783Y-65800648D01*
X171518779Y-65800643D01*
X171351824Y-65633688D01*
X171316657Y-65608139D01*
X171273991Y-65552810D01*
X171268010Y-65483197D01*
X171300615Y-65421401D01*
X171316657Y-65407501D01*
X171351824Y-65381951D01*
X171351824Y-65381950D01*
X171351828Y-65381948D01*
X171518778Y-65214998D01*
X171657556Y-65023986D01*
X171764745Y-64813616D01*
X171837705Y-64589068D01*
X171874640Y-64355872D01*
X171874640Y-64119768D01*
X171837705Y-63886572D01*
X171764745Y-63662024D01*
X171717201Y-63568714D01*
X171695089Y-63525316D01*
X171682193Y-63456647D01*
X171708469Y-63391906D01*
X171717884Y-63381349D01*
X172387821Y-62711412D01*
X172449142Y-62677929D01*
X172518834Y-62682913D01*
X172574767Y-62724785D01*
X172599184Y-62790249D01*
X172599500Y-62799095D01*
X172599500Y-65797870D01*
X172599501Y-65797876D01*
X172605908Y-65857483D01*
X172656202Y-65992328D01*
X172656206Y-65992335D01*
X172742452Y-66107544D01*
X172742455Y-66107547D01*
X172857664Y-66193793D01*
X172857671Y-66193797D01*
X172992517Y-66244091D01*
X172992516Y-66244091D01*
X172999444Y-66244835D01*
X173052127Y-66250500D01*
X178147872Y-66250499D01*
X178207483Y-66244091D01*
X178342331Y-66193796D01*
X178457546Y-66107546D01*
X178543796Y-65992331D01*
X178594091Y-65857483D01*
X178600500Y-65797873D01*
X178600499Y-59702128D01*
X178594091Y-59642517D01*
X178592533Y-59638341D01*
X178543797Y-59507671D01*
X178543793Y-59507664D01*
X178457547Y-59392455D01*
X178457544Y-59392452D01*
X178342335Y-59306206D01*
X178342328Y-59306202D01*
X178207482Y-59255908D01*
X178207483Y-59255908D01*
X178147883Y-59249501D01*
X178147881Y-59249500D01*
X178147873Y-59249500D01*
X178147865Y-59249500D01*
X174922902Y-59249500D01*
X174855863Y-59229815D01*
X174810108Y-59177011D01*
X174800164Y-59107853D01*
X174829189Y-59044297D01*
X174855773Y-59021242D01*
X174865147Y-59015205D01*
X174879179Y-59009394D01*
X175010289Y-58921789D01*
X175010387Y-58921690D01*
X175012637Y-58920242D01*
X175045193Y-58910652D01*
X175077553Y-58900520D01*
X175079656Y-58900500D01*
X182199902Y-58900500D01*
X182266941Y-58920185D01*
X182287583Y-58936819D01*
X182331284Y-58980520D01*
X182331286Y-58980521D01*
X182331290Y-58980524D01*
X182431056Y-59038123D01*
X182468216Y-59059577D01*
X182620943Y-59100501D01*
X182620945Y-59100501D01*
X182786654Y-59100501D01*
X182786670Y-59100500D01*
X183270398Y-59100500D01*
X183337437Y-59120185D01*
X183380883Y-59168205D01*
X183387715Y-59181614D01*
X183508028Y-59347213D01*
X183652786Y-59491971D01*
X183773226Y-59579474D01*
X183818390Y-59612287D01*
X183929929Y-59669119D01*
X184000776Y-59705218D01*
X184000778Y-59705218D01*
X184000781Y-59705220D01*
X184069383Y-59727510D01*
X184195465Y-59768477D01*
X184255622Y-59778005D01*
X184397648Y-59800500D01*
X184397649Y-59800500D01*
X184602351Y-59800500D01*
X184602352Y-59800500D01*
X184804534Y-59768477D01*
X184999219Y-59705220D01*
X185181610Y-59612287D01*
X185299637Y-59526536D01*
X185347213Y-59491971D01*
X185347215Y-59491968D01*
X185347219Y-59491966D01*
X185491966Y-59347219D01*
X185491968Y-59347215D01*
X185491971Y-59347213D01*
X185612284Y-59181614D01*
X185612286Y-59181611D01*
X185612287Y-59181610D01*
X185619117Y-59168204D01*
X185629566Y-59157140D01*
X185635889Y-59143297D01*
X185653068Y-59132256D01*
X185667091Y-59117409D01*
X185682772Y-59113167D01*
X185694667Y-59105523D01*
X185729602Y-59100500D01*
X185810398Y-59100500D01*
X185877437Y-59120185D01*
X185920883Y-59168205D01*
X185927715Y-59181614D01*
X186048028Y-59347213D01*
X186192786Y-59491971D01*
X186313226Y-59579474D01*
X186358390Y-59612287D01*
X186469929Y-59669119D01*
X186540776Y-59705218D01*
X186540778Y-59705218D01*
X186540781Y-59705220D01*
X186609383Y-59727510D01*
X186735465Y-59768477D01*
X186795622Y-59778005D01*
X186937648Y-59800500D01*
X186937649Y-59800500D01*
X187142351Y-59800500D01*
X187142352Y-59800500D01*
X187344534Y-59768477D01*
X187539219Y-59705220D01*
X187721610Y-59612287D01*
X187839637Y-59526536D01*
X187887213Y-59491971D01*
X187887215Y-59491968D01*
X187887219Y-59491966D01*
X188031966Y-59347219D01*
X188031968Y-59347215D01*
X188031971Y-59347213D01*
X188139289Y-59199500D01*
X188152287Y-59181610D01*
X188199795Y-59088369D01*
X188247769Y-59037573D01*
X188315590Y-59020778D01*
X188381725Y-59043315D01*
X188420765Y-59088369D01*
X188468141Y-59181350D01*
X188468147Y-59181359D01*
X188500523Y-59225921D01*
X188500524Y-59225922D01*
X189088871Y-58637574D01*
X189104755Y-58696853D01*
X189171898Y-58813147D01*
X189266853Y-58908102D01*
X189383147Y-58975245D01*
X189442424Y-58991128D01*
X188854076Y-59579474D01*
X188898650Y-59611859D01*
X189080968Y-59704755D01*
X189275582Y-59767990D01*
X189477683Y-59800000D01*
X189682317Y-59800000D01*
X189884417Y-59767990D01*
X190079031Y-59704755D01*
X190261349Y-59611859D01*
X190305921Y-59579474D01*
X189717575Y-58991128D01*
X189776853Y-58975245D01*
X189893147Y-58908102D01*
X189988102Y-58813147D01*
X190055245Y-58696853D01*
X190071128Y-58637575D01*
X190659474Y-59225921D01*
X190691861Y-59181347D01*
X190691861Y-59181346D01*
X190739234Y-59088371D01*
X190787208Y-59037575D01*
X190855028Y-59020779D01*
X190921164Y-59043316D01*
X190960203Y-59088369D01*
X191007713Y-59181611D01*
X191128028Y-59347213D01*
X191272786Y-59491971D01*
X191393226Y-59579474D01*
X191438390Y-59612287D01*
X191549929Y-59669119D01*
X191620776Y-59705218D01*
X191620778Y-59705218D01*
X191620781Y-59705220D01*
X191689383Y-59727510D01*
X191815465Y-59768477D01*
X191875622Y-59778005D01*
X192017648Y-59800500D01*
X192017649Y-59800500D01*
X192222351Y-59800500D01*
X192222352Y-59800500D01*
X192424534Y-59768477D01*
X192619219Y-59705220D01*
X192801610Y-59612287D01*
X192919637Y-59526536D01*
X192967213Y-59491971D01*
X192967215Y-59491968D01*
X192967219Y-59491966D01*
X193111966Y-59347219D01*
X193111968Y-59347215D01*
X193111971Y-59347213D01*
X193232284Y-59181614D01*
X193232286Y-59181611D01*
X193232287Y-59181610D01*
X193279516Y-59088917D01*
X193327489Y-59038123D01*
X193395310Y-59021328D01*
X193461445Y-59043865D01*
X193500483Y-59088917D01*
X193521465Y-59130095D01*
X193547715Y-59181614D01*
X193668028Y-59347213D01*
X193812786Y-59491971D01*
X193933226Y-59579474D01*
X193978390Y-59612287D01*
X194089929Y-59669119D01*
X194160776Y-59705218D01*
X194160778Y-59705218D01*
X194160781Y-59705220D01*
X194229383Y-59727510D01*
X194355465Y-59768477D01*
X194415622Y-59778005D01*
X194557648Y-59800500D01*
X194557649Y-59800500D01*
X194762351Y-59800500D01*
X194762352Y-59800500D01*
X194964534Y-59768477D01*
X195159219Y-59705220D01*
X195341610Y-59612287D01*
X195459637Y-59526536D01*
X195507213Y-59491971D01*
X195507215Y-59491968D01*
X195507219Y-59491966D01*
X195651966Y-59347219D01*
X195651968Y-59347215D01*
X195651971Y-59347213D01*
X195772284Y-59181614D01*
X195772286Y-59181611D01*
X195772287Y-59181610D01*
X195819516Y-59088917D01*
X195867489Y-59038123D01*
X195935310Y-59021328D01*
X196001445Y-59043865D01*
X196040483Y-59088917D01*
X196061465Y-59130095D01*
X196087715Y-59181614D01*
X196208028Y-59347213D01*
X196352786Y-59491971D01*
X196473226Y-59579474D01*
X196518390Y-59612287D01*
X196629929Y-59669119D01*
X196700776Y-59705218D01*
X196700778Y-59705218D01*
X196700781Y-59705220D01*
X196769383Y-59727510D01*
X196895465Y-59768477D01*
X196955622Y-59778005D01*
X197097648Y-59800500D01*
X197097649Y-59800500D01*
X197302351Y-59800500D01*
X197302352Y-59800500D01*
X197504534Y-59768477D01*
X197699219Y-59705220D01*
X197705274Y-59702135D01*
X202849500Y-59702135D01*
X202849500Y-65797870D01*
X202849501Y-65797876D01*
X202855908Y-65857483D01*
X202906202Y-65992328D01*
X202906206Y-65992335D01*
X202992452Y-66107544D01*
X202992455Y-66107547D01*
X203107664Y-66193793D01*
X203107671Y-66193797D01*
X203242517Y-66244091D01*
X203242516Y-66244091D01*
X203249444Y-66244835D01*
X203302127Y-66250500D01*
X208397872Y-66250499D01*
X208457483Y-66244091D01*
X208592331Y-66193796D01*
X208707546Y-66107546D01*
X208793796Y-65992331D01*
X208844091Y-65857483D01*
X208850500Y-65797873D01*
X208850499Y-59702128D01*
X208844091Y-59642517D01*
X208842533Y-59638341D01*
X208793797Y-59507671D01*
X208793793Y-59507664D01*
X208707547Y-59392455D01*
X208707544Y-59392452D01*
X208592335Y-59306206D01*
X208592328Y-59306202D01*
X208457482Y-59255908D01*
X208457483Y-59255908D01*
X208397883Y-59249501D01*
X208397881Y-59249500D01*
X208397873Y-59249500D01*
X208397864Y-59249500D01*
X203302129Y-59249500D01*
X203302123Y-59249501D01*
X203242516Y-59255908D01*
X203107671Y-59306202D01*
X203107664Y-59306206D01*
X202992455Y-59392452D01*
X202992452Y-59392455D01*
X202906206Y-59507664D01*
X202906202Y-59507671D01*
X202855908Y-59642517D01*
X202849501Y-59702116D01*
X202849501Y-59702123D01*
X202849500Y-59702135D01*
X197705274Y-59702135D01*
X197881610Y-59612287D01*
X197926774Y-59579474D01*
X198047213Y-59491971D01*
X198047215Y-59491968D01*
X198047219Y-59491966D01*
X198191966Y-59347219D01*
X198191968Y-59347215D01*
X198191971Y-59347213D01*
X198258307Y-59255908D01*
X198312287Y-59181610D01*
X198405220Y-58999219D01*
X198468477Y-58804534D01*
X198500500Y-58602352D01*
X198500500Y-58397648D01*
X198468477Y-58195466D01*
X198468475Y-58195462D01*
X198468475Y-58195457D01*
X198457870Y-58162817D01*
X198455875Y-58092976D01*
X198491956Y-58033143D01*
X198554657Y-58002316D01*
X198575801Y-58000500D01*
X209599903Y-58000500D01*
X209666942Y-58020185D01*
X209687584Y-58036819D01*
X210863181Y-59212416D01*
X210896666Y-59273739D01*
X210899500Y-59300097D01*
X210899500Y-63113330D01*
X210899499Y-63113348D01*
X210899499Y-63279054D01*
X210899498Y-63279054D01*
X210927575Y-63383839D01*
X210940423Y-63431785D01*
X210959864Y-63465457D01*
X210996585Y-63529060D01*
X211019479Y-63568714D01*
X211019481Y-63568717D01*
X211138349Y-63687585D01*
X211138355Y-63687590D01*
X213038181Y-65587416D01*
X213071666Y-65648739D01*
X213074500Y-65675097D01*
X213074500Y-66900001D01*
X213074501Y-66900018D01*
X213085000Y-67002796D01*
X213085001Y-67002799D01*
X213126327Y-67127511D01*
X213140186Y-67169334D01*
X213232288Y-67318656D01*
X213356344Y-67442712D01*
X213505666Y-67534814D01*
X213672203Y-67589999D01*
X213774991Y-67600500D01*
X215325008Y-67600499D01*
X215427797Y-67589999D01*
X215594334Y-67534814D01*
X215743656Y-67442712D01*
X215867712Y-67318656D01*
X215959814Y-67169334D01*
X216014999Y-67002797D01*
X216025500Y-66900009D01*
X216025499Y-65599992D01*
X216024911Y-65594240D01*
X216014999Y-65497203D01*
X216014998Y-65497200D01*
X216006296Y-65470939D01*
X215959814Y-65330666D01*
X215867712Y-65181344D01*
X215743656Y-65057288D01*
X215594334Y-64965186D01*
X215594333Y-64965185D01*
X215588878Y-64961821D01*
X215542154Y-64909873D01*
X215530931Y-64840910D01*
X215558775Y-64776828D01*
X215566272Y-64768623D01*
X215705104Y-64629792D01*
X215830051Y-64457816D01*
X215926557Y-64268412D01*
X215992246Y-64066243D01*
X216025500Y-63856287D01*
X216025500Y-63643713D01*
X215992246Y-63433757D01*
X215926557Y-63231588D01*
X215830051Y-63042184D01*
X215830049Y-63042181D01*
X215830048Y-63042179D01*
X215705109Y-62870213D01*
X215554790Y-62719894D01*
X215554785Y-62719890D01*
X215389781Y-62600008D01*
X215347115Y-62544678D01*
X215341136Y-62475065D01*
X215373741Y-62413270D01*
X215389781Y-62399371D01*
X215554466Y-62279721D01*
X215704723Y-62129464D01*
X215704727Y-62129459D01*
X215829620Y-61957557D01*
X215926095Y-61768217D01*
X215991757Y-61566129D01*
X215991757Y-61566126D01*
X216002231Y-61500000D01*
X214954146Y-61500000D01*
X214992630Y-61433343D01*
X215025000Y-61312535D01*
X215025000Y-61187465D01*
X214992630Y-61066657D01*
X214954146Y-61000000D01*
X216002231Y-61000000D01*
X215991757Y-60933873D01*
X215991757Y-60933870D01*
X215926095Y-60731782D01*
X215829620Y-60542442D01*
X215704727Y-60370540D01*
X215704723Y-60370535D01*
X215554464Y-60220276D01*
X215554459Y-60220272D01*
X215389781Y-60100627D01*
X215347115Y-60045297D01*
X215341136Y-59975684D01*
X215373741Y-59913889D01*
X215389776Y-59899994D01*
X215554792Y-59780104D01*
X215705104Y-59629792D01*
X215705106Y-59629788D01*
X215705109Y-59629786D01*
X215830048Y-59457820D01*
X215830047Y-59457820D01*
X215830051Y-59457816D01*
X215926557Y-59268412D01*
X215992246Y-59066243D01*
X216025500Y-58856287D01*
X216025500Y-58643713D01*
X215992246Y-58433757D01*
X215926557Y-58231588D01*
X215830051Y-58042184D01*
X215830049Y-58042181D01*
X215830048Y-58042179D01*
X215705109Y-57870213D01*
X215554786Y-57719890D01*
X215382820Y-57594951D01*
X215193414Y-57498444D01*
X215193413Y-57498443D01*
X215193412Y-57498443D01*
X214991243Y-57432754D01*
X214991241Y-57432753D01*
X214991240Y-57432753D01*
X214809610Y-57403986D01*
X214781287Y-57399500D01*
X214318713Y-57399500D01*
X214290390Y-57403986D01*
X214108760Y-57432753D01*
X213906585Y-57498444D01*
X213717179Y-57594951D01*
X213545213Y-57719890D01*
X213394890Y-57870213D01*
X213269951Y-58042179D01*
X213173444Y-58231585D01*
X213107753Y-58433760D01*
X213074500Y-58643713D01*
X213074500Y-58856286D01*
X213106697Y-59059573D01*
X213107754Y-59066243D01*
X213169380Y-59255908D01*
X213173444Y-59268414D01*
X213269951Y-59457820D01*
X213394890Y-59629786D01*
X213545209Y-59780105D01*
X213545214Y-59780109D01*
X213710218Y-59899991D01*
X213752884Y-59955320D01*
X213758863Y-60024934D01*
X213726258Y-60086729D01*
X213710218Y-60100627D01*
X213545540Y-60220272D01*
X213545535Y-60220276D01*
X213395276Y-60370535D01*
X213395272Y-60370540D01*
X213270379Y-60542442D01*
X213173904Y-60731782D01*
X213108242Y-60933870D01*
X213108242Y-60933873D01*
X213097769Y-61000000D01*
X214145854Y-61000000D01*
X214107370Y-61066657D01*
X214075000Y-61187465D01*
X214075000Y-61312535D01*
X214107370Y-61433343D01*
X214145854Y-61500000D01*
X213097769Y-61500000D01*
X213108242Y-61566126D01*
X213108242Y-61566129D01*
X213173904Y-61768217D01*
X213270379Y-61957557D01*
X213395272Y-62129459D01*
X213395276Y-62129464D01*
X213545535Y-62279723D01*
X213545540Y-62279727D01*
X213710218Y-62399372D01*
X213752884Y-62454701D01*
X213758863Y-62524315D01*
X213726258Y-62586110D01*
X213710218Y-62600008D01*
X213545214Y-62719890D01*
X213545209Y-62719894D01*
X213394890Y-62870213D01*
X213269951Y-63042179D01*
X213173444Y-63231585D01*
X213107753Y-63433760D01*
X213074074Y-63646402D01*
X213044145Y-63709537D01*
X212984833Y-63746468D01*
X212914971Y-63745470D01*
X212863920Y-63714685D01*
X212136819Y-62987584D01*
X212103334Y-62926261D01*
X212100500Y-62899903D01*
X212100500Y-59089060D01*
X212100501Y-59089047D01*
X212100501Y-58920944D01*
X212097060Y-58908102D01*
X212059577Y-58768216D01*
X211980880Y-58631908D01*
X211980522Y-58631287D01*
X211980518Y-58631282D01*
X210387590Y-57038355D01*
X210387588Y-57038352D01*
X210268717Y-56919481D01*
X210268709Y-56919475D01*
X210180789Y-56868715D01*
X210180788Y-56868715D01*
X210160077Y-56856757D01*
X210131785Y-56840423D01*
X209979057Y-56799499D01*
X209820943Y-56799499D01*
X209813347Y-56799499D01*
X209813331Y-56799500D01*
X193306669Y-56799500D01*
X193306653Y-56799499D01*
X193299057Y-56799499D01*
X193140943Y-56799499D01*
X192988215Y-56840423D01*
X192988214Y-56840423D01*
X192939212Y-56868715D01*
X192939211Y-56868715D01*
X192851290Y-56919475D01*
X192851282Y-56919481D01*
X192739478Y-57031286D01*
X192564842Y-57205921D01*
X192503519Y-57239406D01*
X192438848Y-57236173D01*
X192424534Y-57231522D01*
X192249995Y-57203878D01*
X192222352Y-57199500D01*
X192017648Y-57199500D01*
X191979599Y-57205526D01*
X191815468Y-57231522D01*
X191806717Y-57234365D01*
X191801154Y-57236173D01*
X191785941Y-57236607D01*
X191771684Y-57241925D01*
X191751729Y-57237584D01*
X191731313Y-57238167D01*
X191717226Y-57230078D01*
X191703411Y-57227073D01*
X191675157Y-57205922D01*
X191507590Y-57038355D01*
X191507588Y-57038352D01*
X191388717Y-56919481D01*
X191388709Y-56919475D01*
X191300789Y-56868715D01*
X191300788Y-56868715D01*
X191280077Y-56856757D01*
X191251785Y-56840423D01*
X191099057Y-56799499D01*
X190940943Y-56799499D01*
X190933347Y-56799499D01*
X190933331Y-56799500D01*
X174218760Y-56799500D01*
X174177839Y-56810464D01*
X174177839Y-56810465D01*
X174140571Y-56820451D01*
X174066034Y-56840423D01*
X174066029Y-56840426D01*
X173929110Y-56919475D01*
X173929102Y-56919481D01*
X173817298Y-57031286D01*
X172030891Y-58817692D01*
X171969568Y-58851177D01*
X171899876Y-58846193D01*
X171843943Y-58804321D01*
X171825279Y-58768329D01*
X171811362Y-58725498D01*
X171764745Y-58582024D01*
X171764743Y-58582021D01*
X171764742Y-58582016D01*
X171764741Y-58582015D01*
X171690978Y-58437248D01*
X171678081Y-58368579D01*
X171704357Y-58303839D01*
X171713772Y-58293281D01*
X172032646Y-57974408D01*
X172032651Y-57974404D01*
X172042854Y-57964200D01*
X172042856Y-57964200D01*
X172154660Y-57852396D01*
X172233717Y-57715464D01*
X172274640Y-57562737D01*
X172274640Y-53628614D01*
X172274641Y-53628601D01*
X172274641Y-53460498D01*
X172272167Y-53451264D01*
X172233717Y-53307770D01*
X172209889Y-53266498D01*
X172154664Y-53170844D01*
X172154658Y-53170836D01*
X171237336Y-52253514D01*
X170306175Y-51322354D01*
X170306174Y-51322352D01*
X170187303Y-51203481D01*
X170187295Y-51203475D01*
X170067143Y-51134106D01*
X170067143Y-51134105D01*
X170067138Y-51134104D01*
X170061287Y-51130725D01*
X170050372Y-51124423D01*
X170012189Y-51114192D01*
X169897643Y-51083499D01*
X169739529Y-51083499D01*
X169731933Y-51083499D01*
X169731917Y-51083500D01*
X154086670Y-51083500D01*
X154086654Y-51083499D01*
X154079058Y-51083499D01*
X153920943Y-51083499D01*
X153844579Y-51103961D01*
X153768214Y-51124423D01*
X153768209Y-51124426D01*
X153631290Y-51203475D01*
X153631282Y-51203481D01*
X148971584Y-55863181D01*
X148910261Y-55896666D01*
X148883903Y-55899500D01*
X148074098Y-55899500D01*
X148007059Y-55879815D01*
X147961304Y-55827011D01*
X147951360Y-55757853D01*
X147980385Y-55694297D01*
X148033143Y-55658458D01*
X148092558Y-55637668D01*
X148381013Y-55498755D01*
X148652101Y-55328419D01*
X148902413Y-55128802D01*
X149128802Y-54902413D01*
X149328419Y-54652101D01*
X149498755Y-54381013D01*
X149637668Y-54092558D01*
X149743410Y-53790363D01*
X149814653Y-53478229D01*
X149850500Y-53160081D01*
X149850500Y-52839919D01*
X149814653Y-52521771D01*
X149743410Y-52209637D01*
X149637668Y-51907442D01*
X149502739Y-51627259D01*
X149498756Y-51618989D01*
X149498755Y-51618987D01*
X149328419Y-51347899D01*
X149128802Y-51097587D01*
X148902413Y-50871198D01*
X148812506Y-50799500D01*
X148714631Y-50721447D01*
X148674491Y-50664259D01*
X148671641Y-50594447D01*
X148706986Y-50534177D01*
X148769305Y-50502584D01*
X148791944Y-50500500D01*
X215208056Y-50500500D01*
X215275095Y-50520185D01*
X215320850Y-50572989D01*
X215330794Y-50642147D01*
X215301769Y-50705703D01*
X215285369Y-50721447D01*
X215097587Y-50871197D01*
X214871197Y-51097587D01*
X214671580Y-51347900D01*
X214501243Y-51618989D01*
X214362332Y-51907440D01*
X214256590Y-52209635D01*
X214256589Y-52209637D01*
X214185347Y-52521771D01*
X214185345Y-52521783D01*
X214149500Y-52839914D01*
X214149500Y-53160085D01*
X214185345Y-53478216D01*
X214185346Y-53478225D01*
X214185347Y-53478229D01*
X214190777Y-53502019D01*
X214256589Y-53790362D01*
X214256590Y-53790364D01*
X214362332Y-54092559D01*
X214501243Y-54381010D01*
X214501245Y-54381013D01*
X214671581Y-54652101D01*
X214765047Y-54769304D01*
X214840553Y-54863986D01*
X214871198Y-54902413D01*
X215097587Y-55128802D01*
X215347899Y-55328419D01*
X215618987Y-55498755D01*
X215907442Y-55637668D01*
X216209637Y-55743410D01*
X216521771Y-55814653D01*
X216839915Y-55850499D01*
X216839916Y-55850500D01*
X216839919Y-55850500D01*
X217160084Y-55850500D01*
X217160084Y-55850499D01*
X217478229Y-55814653D01*
X217790363Y-55743410D01*
X218092558Y-55637668D01*
X218381013Y-55498755D01*
X218652101Y-55328419D01*
X218902413Y-55128802D01*
X219128802Y-54902413D01*
X219159447Y-54863986D01*
X219278553Y-54714631D01*
X219335741Y-54674490D01*
X219405552Y-54671640D01*
X219465823Y-54706985D01*
X219497416Y-54769304D01*
X219499500Y-54791943D01*
X219499500Y-70208056D01*
X219479815Y-70275095D01*
X219427011Y-70320850D01*
X219357853Y-70330794D01*
X219294297Y-70301769D01*
X219278553Y-70285369D01*
X219239903Y-70236904D01*
X219128802Y-70097587D01*
X218902413Y-69871198D01*
X218896267Y-69866297D01*
X218773605Y-69768477D01*
X218652101Y-69671581D01*
X218381013Y-69501245D01*
X218381010Y-69501243D01*
X218092559Y-69362332D01*
X217790364Y-69256590D01*
X217790362Y-69256589D01*
X217511728Y-69192993D01*
X217478229Y-69185347D01*
X217478225Y-69185346D01*
X217478216Y-69185345D01*
X217160085Y-69149500D01*
X217160081Y-69149500D01*
X216839919Y-69149500D01*
X216839914Y-69149500D01*
X216521783Y-69185345D01*
X216521771Y-69185347D01*
X216209637Y-69256589D01*
X216209635Y-69256590D01*
X215907440Y-69362332D01*
X215618989Y-69501243D01*
X215347900Y-69671580D01*
X215097587Y-69871197D01*
X214871197Y-70097587D01*
X214671580Y-70347900D01*
X214501243Y-70618989D01*
X214362332Y-70907440D01*
X214256590Y-71209635D01*
X214256589Y-71209637D01*
X214185347Y-71521771D01*
X214185345Y-71521783D01*
X214149500Y-71839914D01*
X214149500Y-72160085D01*
X214185345Y-72478216D01*
X214185347Y-72478228D01*
X214256589Y-72790362D01*
X214256590Y-72790364D01*
X214362332Y-73092559D01*
X214501243Y-73381010D01*
X214501245Y-73381013D01*
X214671581Y-73652101D01*
X214765047Y-73769304D01*
X214871197Y-73902412D01*
X215097587Y-74128802D01*
X215285369Y-74278553D01*
X215325509Y-74335741D01*
X215328359Y-74405553D01*
X215293014Y-74465823D01*
X215230695Y-74497416D01*
X215208056Y-74499500D01*
X201624000Y-74499500D01*
X201556961Y-74479815D01*
X201511206Y-74427011D01*
X201500000Y-74375500D01*
X201500000Y-61500000D01*
X201191406Y-61500000D01*
X201129406Y-61483387D01*
X201043188Y-61433609D01*
X201043187Y-61433608D01*
X201043186Y-61433608D01*
X200915892Y-61399500D01*
X180665892Y-61399500D01*
X180534108Y-61399500D01*
X180406814Y-61433608D01*
X180406813Y-61433608D01*
X180406811Y-61433609D01*
X180406810Y-61433609D01*
X180320594Y-61483387D01*
X180258594Y-61500000D01*
X180000000Y-61500000D01*
X180000000Y-74375500D01*
X179980315Y-74442539D01*
X179927511Y-74488294D01*
X179876000Y-74499500D01*
X84791944Y-74499500D01*
X84724905Y-74479815D01*
X84679150Y-74427011D01*
X84669206Y-74357853D01*
X84698231Y-74294297D01*
X84714631Y-74278553D01*
X84902413Y-74128802D01*
X85128802Y-73902413D01*
X85328419Y-73652101D01*
X85498755Y-73381013D01*
X85637668Y-73092558D01*
X85743410Y-72790363D01*
X85814653Y-72478229D01*
X85850500Y-72160081D01*
X85850500Y-71839919D01*
X85814653Y-71521771D01*
X85743410Y-71209637D01*
X85637668Y-70907442D01*
X85498755Y-70618987D01*
X85328419Y-70347899D01*
X85128802Y-70097587D01*
X84902413Y-69871198D01*
X84896267Y-69866297D01*
X84773605Y-69768477D01*
X84652101Y-69671581D01*
X84381013Y-69501245D01*
X84381010Y-69501243D01*
X84092559Y-69362332D01*
X83790364Y-69256590D01*
X83790362Y-69256589D01*
X83511728Y-69192993D01*
X83478229Y-69185347D01*
X83478225Y-69185346D01*
X83478216Y-69185345D01*
X83160085Y-69149500D01*
X83160081Y-69149500D01*
X82839919Y-69149500D01*
X82839914Y-69149500D01*
X82521783Y-69185345D01*
X82521771Y-69185347D01*
X82209637Y-69256589D01*
X82209635Y-69256590D01*
X81907440Y-69362332D01*
X81618989Y-69501243D01*
X81347900Y-69671580D01*
X81097587Y-69871197D01*
X80871197Y-70097587D01*
X80721447Y-70285369D01*
X80664259Y-70325509D01*
X80594447Y-70328359D01*
X80534177Y-70293014D01*
X80502584Y-70230695D01*
X80500500Y-70208056D01*
X80500500Y-54791943D01*
X80520185Y-54724904D01*
X80572989Y-54679149D01*
X80642147Y-54669205D01*
X80705703Y-54698230D01*
X80721447Y-54714631D01*
X80871191Y-54902406D01*
X80871197Y-54902412D01*
X80871198Y-54902413D01*
X81097587Y-55128802D01*
X81347899Y-55328419D01*
X81618987Y-55498755D01*
X81907442Y-55637668D01*
X82209637Y-55743410D01*
X82521771Y-55814653D01*
X82839915Y-55850499D01*
X82839916Y-55850500D01*
X82839919Y-55850500D01*
X83160084Y-55850500D01*
X83160084Y-55850499D01*
X83478229Y-55814653D01*
X83790363Y-55743410D01*
X84092558Y-55637668D01*
X84381013Y-55498755D01*
X84652101Y-55328419D01*
X84902413Y-55128802D01*
X85128802Y-54902413D01*
X85328419Y-54652101D01*
X85498755Y-54381013D01*
X85637668Y-54092558D01*
X85743410Y-53790363D01*
X85814653Y-53478229D01*
X85850500Y-53160081D01*
X85850500Y-52839919D01*
X85814653Y-52521771D01*
X85743410Y-52209637D01*
X85637668Y-51907442D01*
X85502739Y-51627259D01*
X85498756Y-51618989D01*
X85498755Y-51618987D01*
X85328419Y-51347899D01*
X85128802Y-51097587D01*
X84902413Y-50871198D01*
X84812506Y-50799500D01*
X84714631Y-50721447D01*
X84674491Y-50664259D01*
X84671641Y-50594447D01*
X84706986Y-50534177D01*
X84769305Y-50502584D01*
X84791944Y-50500500D01*
X97890901Y-50500500D01*
X97957940Y-50520185D01*
G37*
%TD.AperFunction*%
%TA.AperFunction,Conductor*%
G36*
X108707882Y-52654328D02*
G01*
X108707883Y-52654328D01*
X108726331Y-52628937D01*
X108812086Y-52460635D01*
X108851806Y-52338389D01*
X108891243Y-52280713D01*
X108955601Y-52253514D01*
X109024448Y-52265428D01*
X109075924Y-52312672D01*
X109087668Y-52338387D01*
X109127454Y-52460836D01*
X109213107Y-52628937D01*
X109213240Y-52629199D01*
X109324310Y-52782073D01*
X109457927Y-52915690D01*
X109610801Y-53026760D01*
X109657541Y-53050575D01*
X109779163Y-53112545D01*
X109779165Y-53112545D01*
X109779168Y-53112547D01*
X109875497Y-53143846D01*
X109958881Y-53170940D01*
X110145514Y-53200500D01*
X110145519Y-53200500D01*
X110334486Y-53200500D01*
X110451017Y-53182042D01*
X110493753Y-53175274D01*
X110563045Y-53184228D01*
X110600831Y-53210066D01*
X116912959Y-59522194D01*
X116912969Y-59522205D01*
X116917299Y-59526535D01*
X116917300Y-59526536D01*
X117029104Y-59638340D01*
X117115139Y-59688012D01*
X117166035Y-59717397D01*
X117318763Y-59758320D01*
X152007295Y-59758320D01*
X152074334Y-59778005D01*
X152117779Y-59826023D01*
X152174603Y-59937547D01*
X152177886Y-59943989D01*
X152316656Y-60134991D01*
X152316660Y-60134996D01*
X152316662Y-60134998D01*
X152483612Y-60301948D01*
X152483615Y-60301950D01*
X152518784Y-60327502D01*
X152561450Y-60382832D01*
X152567429Y-60452445D01*
X152534823Y-60514240D01*
X152518784Y-60528138D01*
X152483615Y-60553689D01*
X152483609Y-60553694D01*
X152316660Y-60720643D01*
X152316656Y-60720648D01*
X152177886Y-60911650D01*
X152177884Y-60911654D01*
X152132870Y-61000000D01*
X152117780Y-61029615D01*
X152069805Y-61080411D01*
X152007295Y-61097320D01*
X151259971Y-61097320D01*
X151192932Y-61077635D01*
X151156869Y-61042211D01*
X151121789Y-60989711D01*
X151121786Y-60989707D01*
X151010292Y-60878213D01*
X151010288Y-60878210D01*
X150879185Y-60790609D01*
X150879172Y-60790602D01*
X150733501Y-60730264D01*
X150733489Y-60730261D01*
X150578845Y-60699500D01*
X150578842Y-60699500D01*
X150421158Y-60699500D01*
X150421155Y-60699500D01*
X150266510Y-60730261D01*
X150266498Y-60730264D01*
X150120827Y-60790602D01*
X150120814Y-60790609D01*
X149989711Y-60878210D01*
X149989707Y-60878213D01*
X149878213Y-60989707D01*
X149878210Y-60989711D01*
X149790609Y-61120814D01*
X149790602Y-61120827D01*
X149730264Y-61266498D01*
X149730261Y-61266510D01*
X149699500Y-61421153D01*
X149699500Y-61578846D01*
X149730261Y-61733489D01*
X149730264Y-61733501D01*
X149790602Y-61879172D01*
X149790609Y-61879185D01*
X149878210Y-62010288D01*
X149878213Y-62010292D01*
X149989707Y-62121786D01*
X149989711Y-62121789D01*
X150120814Y-62209390D01*
X150120827Y-62209397D01*
X150266498Y-62269735D01*
X150266503Y-62269737D01*
X150410204Y-62298321D01*
X150421153Y-62300499D01*
X150421156Y-62300500D01*
X150421158Y-62300500D01*
X150578839Y-62300500D01*
X150578842Y-62300500D01*
X150581248Y-62300021D01*
X150605918Y-62297638D01*
X150616362Y-62297677D01*
X150618763Y-62298321D01*
X150776878Y-62298321D01*
X150776882Y-62298320D01*
X152007295Y-62298320D01*
X152074334Y-62318005D01*
X152117779Y-62366023D01*
X152163120Y-62455011D01*
X152177886Y-62483989D01*
X152316656Y-62674991D01*
X152316660Y-62674996D01*
X152316662Y-62674998D01*
X152483612Y-62841948D01*
X152483615Y-62841950D01*
X152518784Y-62867502D01*
X152561450Y-62922832D01*
X152567429Y-62992445D01*
X152534823Y-63054240D01*
X152518784Y-63068138D01*
X152483615Y-63093689D01*
X152483609Y-63093694D01*
X152316660Y-63260643D01*
X152316656Y-63260648D01*
X152177886Y-63451650D01*
X152070696Y-63662019D01*
X151997735Y-63886571D01*
X151987991Y-63948092D01*
X151960800Y-64119768D01*
X151960800Y-64355872D01*
X151997735Y-64589068D01*
X152068711Y-64807511D01*
X152070697Y-64813621D01*
X152073541Y-64819202D01*
X152086439Y-64887870D01*
X152060165Y-64952612D01*
X152003060Y-64992871D01*
X151963058Y-64999500D01*
X139510940Y-64999500D01*
X139470019Y-65010464D01*
X139470019Y-65010465D01*
X139432751Y-65020451D01*
X139358214Y-65040423D01*
X139358209Y-65040426D01*
X139221290Y-65119475D01*
X139221282Y-65119481D01*
X139109478Y-65231286D01*
X137134842Y-67205921D01*
X137073519Y-67239406D01*
X137008848Y-67236173D01*
X136994534Y-67231522D01*
X136819995Y-67203878D01*
X136792352Y-67199500D01*
X136587648Y-67199500D01*
X136563441Y-67203334D01*
X136385465Y-67231522D01*
X136190776Y-67294781D01*
X136008386Y-67387715D01*
X135842786Y-67508028D01*
X135698028Y-67652786D01*
X135577715Y-67818385D01*
X135570883Y-67831795D01*
X135560433Y-67842859D01*
X135554111Y-67856703D01*
X135536931Y-67867743D01*
X135522909Y-67882591D01*
X135507227Y-67886832D01*
X135495333Y-67894477D01*
X135460398Y-67899500D01*
X135379602Y-67899500D01*
X135312563Y-67879815D01*
X135269117Y-67831795D01*
X135262284Y-67818385D01*
X135141971Y-67652786D01*
X134997213Y-67508028D01*
X134831613Y-67387715D01*
X134831612Y-67387714D01*
X134831610Y-67387713D01*
X134764322Y-67353428D01*
X134649223Y-67294781D01*
X134454534Y-67231522D01*
X134279995Y-67203878D01*
X134252352Y-67199500D01*
X134047648Y-67199500D01*
X134007211Y-67205904D01*
X133845462Y-67231523D01*
X133845460Y-67231523D01*
X133831149Y-67236173D01*
X133761308Y-67238164D01*
X133705157Y-67205921D01*
X132737590Y-66238355D01*
X132737588Y-66238352D01*
X132618717Y-66119481D01*
X132618716Y-66119480D01*
X132531904Y-66069360D01*
X132531904Y-66069359D01*
X132531900Y-66069358D01*
X132481785Y-66040423D01*
X132329057Y-65999499D01*
X132170943Y-65999499D01*
X132163347Y-65999499D01*
X132163331Y-65999500D01*
X115930414Y-65999500D01*
X115863375Y-65979815D01*
X115817620Y-65927011D01*
X115807676Y-65857853D01*
X115836701Y-65794297D01*
X115874119Y-65765015D01*
X115949199Y-65726760D01*
X116102073Y-65615690D01*
X116235690Y-65482073D01*
X116346760Y-65329199D01*
X116432547Y-65160832D01*
X116490940Y-64981118D01*
X116491985Y-64974519D01*
X116520500Y-64794486D01*
X116520500Y-64605513D01*
X116490940Y-64418881D01*
X116461692Y-64328867D01*
X116432547Y-64239168D01*
X116432545Y-64239165D01*
X116432545Y-64239163D01*
X116346759Y-64070800D01*
X116343444Y-64066237D01*
X116235690Y-63917927D01*
X116102073Y-63784310D01*
X115949199Y-63673240D01*
X115780836Y-63587454D01*
X115601118Y-63529059D01*
X115414486Y-63499500D01*
X115414481Y-63499500D01*
X115225519Y-63499500D01*
X115225514Y-63499500D01*
X115038881Y-63529059D01*
X114859163Y-63587454D01*
X114690800Y-63673240D01*
X114637579Y-63711908D01*
X114537927Y-63784310D01*
X114537925Y-63784312D01*
X114537924Y-63784312D01*
X114404312Y-63917924D01*
X114404312Y-63917925D01*
X114404310Y-63917927D01*
X114382394Y-63948092D01*
X114293240Y-64070800D01*
X114207454Y-64239163D01*
X114149059Y-64418881D01*
X114119500Y-64605513D01*
X114119500Y-64794486D01*
X114149059Y-64981118D01*
X114207454Y-65160836D01*
X114266267Y-65276261D01*
X114293240Y-65329199D01*
X114404310Y-65482073D01*
X114537927Y-65615690D01*
X114690801Y-65726760D01*
X114765881Y-65765015D01*
X114816677Y-65812990D01*
X114833472Y-65880810D01*
X114810935Y-65946945D01*
X114756220Y-65990397D01*
X114709586Y-65999500D01*
X110996670Y-65999500D01*
X110996654Y-65999499D01*
X110989058Y-65999499D01*
X110830943Y-65999499D01*
X110759543Y-66018631D01*
X110678214Y-66040423D01*
X110678209Y-66040426D01*
X110541290Y-66119475D01*
X110541282Y-66119481D01*
X109025472Y-67635290D01*
X108964149Y-67668775D01*
X108899473Y-67665540D01*
X108835376Y-67644714D01*
X108619361Y-67610500D01*
X108619356Y-67610500D01*
X108400644Y-67610500D01*
X108400639Y-67610500D01*
X108184623Y-67644714D01*
X107976619Y-67712297D01*
X107976616Y-67712298D01*
X107781739Y-67811595D01*
X107604806Y-67940142D01*
X107450142Y-68094806D01*
X107321595Y-68271739D01*
X107222298Y-68466616D01*
X107222297Y-68466619D01*
X107154714Y-68674623D01*
X107120500Y-68890638D01*
X107120500Y-69109361D01*
X107154714Y-69325376D01*
X107222297Y-69533380D01*
X107222298Y-69533383D01*
X107289782Y-69665825D01*
X107313208Y-69711801D01*
X107321595Y-69728260D01*
X107450142Y-69905193D01*
X107604806Y-70059857D01*
X107770374Y-70180147D01*
X107781743Y-70188407D01*
X107879343Y-70238137D01*
X107976616Y-70287701D01*
X107976619Y-70287702D01*
X108047700Y-70310797D01*
X108184625Y-70355286D01*
X108284672Y-70371132D01*
X108400639Y-70389500D01*
X108400644Y-70389500D01*
X108619361Y-70389500D01*
X108724082Y-70372912D01*
X108835375Y-70355286D01*
X109043383Y-70287701D01*
X109238257Y-70188407D01*
X109350276Y-70107021D01*
X109415193Y-70059857D01*
X109415195Y-70059854D01*
X109415199Y-70059852D01*
X109569852Y-69905199D01*
X109679683Y-69754028D01*
X109735011Y-69711364D01*
X109804624Y-69705385D01*
X109866420Y-69737990D01*
X109880313Y-69754023D01*
X109961884Y-69866297D01*
X109990148Y-69905199D01*
X110144806Y-70059857D01*
X110310374Y-70180147D01*
X110321743Y-70188407D01*
X110419343Y-70238137D01*
X110516616Y-70287701D01*
X110516619Y-70287702D01*
X110587700Y-70310797D01*
X110724625Y-70355286D01*
X110824672Y-70371132D01*
X110940639Y-70389500D01*
X110940644Y-70389500D01*
X111159361Y-70389500D01*
X111264082Y-70372912D01*
X111375375Y-70355286D01*
X111583383Y-70287701D01*
X111778257Y-70188407D01*
X111890276Y-70107021D01*
X111955193Y-70059857D01*
X111955195Y-70059854D01*
X111955199Y-70059852D01*
X112109852Y-69905199D01*
X112219991Y-69753603D01*
X112275320Y-69710939D01*
X112344933Y-69704960D01*
X112406729Y-69737565D01*
X112420627Y-69753605D01*
X112530524Y-69904866D01*
X112530528Y-69904871D01*
X112685128Y-70059471D01*
X112685133Y-70059475D01*
X112862001Y-70187976D01*
X113056808Y-70287237D01*
X113056811Y-70287238D01*
X113264739Y-70354797D01*
X113339999Y-70366717D01*
X113340000Y-70366717D01*
X113340000Y-69433012D01*
X113397007Y-69465925D01*
X113524174Y-69500000D01*
X113655826Y-69500000D01*
X113782993Y-69465925D01*
X113840000Y-69433012D01*
X113840000Y-70389402D01*
X113820315Y-70456441D01*
X113803683Y-70477081D01*
X113667582Y-70613182D01*
X113606262Y-70646666D01*
X113579903Y-70649500D01*
X97560097Y-70649500D01*
X97493058Y-70629815D01*
X97472416Y-70613181D01*
X93832798Y-66973563D01*
X93799313Y-66912240D01*
X93802547Y-66847566D01*
X93843553Y-66721368D01*
X93863705Y-66594126D01*
X93880500Y-66488097D01*
X93880500Y-66251902D01*
X93843553Y-66018631D01*
X93795565Y-65870940D01*
X93770568Y-65794008D01*
X93770566Y-65794005D01*
X93770566Y-65794003D01*
X93696550Y-65648739D01*
X93663343Y-65583567D01*
X93524517Y-65392490D01*
X93357510Y-65225483D01*
X93322872Y-65200317D01*
X93280207Y-65144989D01*
X93274228Y-65075375D01*
X93306833Y-65013580D01*
X93322873Y-64999682D01*
X93357510Y-64974517D01*
X93524517Y-64807510D01*
X93663343Y-64616433D01*
X93668907Y-64605513D01*
X96339500Y-64605513D01*
X96339500Y-64794486D01*
X96369059Y-64981118D01*
X96427454Y-65160836D01*
X96486267Y-65276261D01*
X96513240Y-65329199D01*
X96624310Y-65482073D01*
X96757927Y-65615690D01*
X96910801Y-65726760D01*
X96985881Y-65765015D01*
X97079163Y-65812545D01*
X97079165Y-65812545D01*
X97079168Y-65812547D01*
X97175497Y-65843846D01*
X97258881Y-65870940D01*
X97445514Y-65900500D01*
X97445519Y-65900500D01*
X97634486Y-65900500D01*
X97821118Y-65870940D01*
X97862537Y-65857482D01*
X98000832Y-65812547D01*
X98169199Y-65726760D01*
X98322073Y-65615690D01*
X98455690Y-65482073D01*
X98566760Y-65329199D01*
X98652547Y-65160832D01*
X98710940Y-64981118D01*
X98711985Y-64974519D01*
X98716370Y-64946835D01*
X98720659Y-64937785D01*
X98720958Y-64927772D01*
X98735377Y-64906738D01*
X98746299Y-64883700D01*
X98754801Y-64878405D01*
X98760465Y-64870144D01*
X98783965Y-64860245D01*
X98805610Y-64846768D01*
X98815624Y-64846911D01*
X98824856Y-64843023D01*
X98849976Y-64847401D01*
X98875473Y-64847766D01*
X98885656Y-64853620D01*
X98893688Y-64855021D01*
X98916410Y-64871304D01*
X98922799Y-64874977D01*
X98924686Y-64876713D01*
X99022490Y-64974517D01*
X99062926Y-65003896D01*
X99068197Y-65008745D01*
X99082660Y-65032795D01*
X99099792Y-65055013D01*
X99100420Y-65062327D01*
X99104205Y-65068621D01*
X99103369Y-65096671D01*
X99105771Y-65124626D01*
X99102344Y-65131119D01*
X99102126Y-65138460D01*
X99086259Y-65161603D01*
X99073165Y-65186421D01*
X99063512Y-65194785D01*
X99062619Y-65196088D01*
X99061431Y-65196588D01*
X99057130Y-65200315D01*
X99039365Y-65213222D01*
X99022488Y-65225484D01*
X98855485Y-65392487D01*
X98855485Y-65392488D01*
X98855483Y-65392490D01*
X98798486Y-65470939D01*
X98716657Y-65583566D01*
X98609433Y-65794003D01*
X98536446Y-66018631D01*
X98499500Y-66251902D01*
X98499500Y-66488097D01*
X98536446Y-66721368D01*
X98609433Y-66945996D01*
X98702653Y-67128949D01*
X98716657Y-67156433D01*
X98855483Y-67347510D01*
X99022490Y-67514517D01*
X99213567Y-67653343D01*
X99283589Y-67689021D01*
X99424003Y-67760566D01*
X99424005Y-67760566D01*
X99424008Y-67760568D01*
X99522432Y-67792548D01*
X99648631Y-67833553D01*
X99881903Y-67870500D01*
X99881908Y-67870500D01*
X100118097Y-67870500D01*
X100351368Y-67833553D01*
X100575992Y-67760568D01*
X100786433Y-67653343D01*
X100977510Y-67514517D01*
X101144517Y-67347510D01*
X101283343Y-67156433D01*
X101390568Y-66945992D01*
X101463553Y-66721368D01*
X101466483Y-66702867D01*
X101500500Y-66488097D01*
X101500500Y-66251902D01*
X101463553Y-66018631D01*
X101415565Y-65870940D01*
X101390568Y-65794008D01*
X101390566Y-65794005D01*
X101390566Y-65794003D01*
X101316550Y-65648739D01*
X101283343Y-65583567D01*
X101144517Y-65392490D01*
X100977510Y-65225483D01*
X100942872Y-65200317D01*
X100900207Y-65144989D01*
X100894228Y-65075375D01*
X100926833Y-65013580D01*
X100942873Y-64999682D01*
X100977510Y-64974517D01*
X101144517Y-64807510D01*
X101283343Y-64616433D01*
X101390568Y-64405992D01*
X101463553Y-64181368D01*
X101500500Y-63948097D01*
X101500500Y-63711902D01*
X101463553Y-63478631D01*
X101392725Y-63260648D01*
X101390568Y-63254008D01*
X101390566Y-63254005D01*
X101390566Y-63254003D01*
X101308881Y-63093689D01*
X101283343Y-63043567D01*
X101144517Y-62852490D01*
X100977510Y-62685483D01*
X100918282Y-62642451D01*
X100875617Y-62587122D01*
X100867550Y-62532404D01*
X100869104Y-62512657D01*
X100129408Y-61772962D01*
X100192993Y-61755925D01*
X100307007Y-61690099D01*
X100400099Y-61597007D01*
X100465925Y-61482993D01*
X100482962Y-61419409D01*
X101222658Y-62159105D01*
X101222658Y-62159104D01*
X101282914Y-62076169D01*
X101282918Y-62076163D01*
X101390102Y-61865802D01*
X101463065Y-61641247D01*
X101500000Y-61408052D01*
X101500000Y-61171947D01*
X101463065Y-60938752D01*
X101390102Y-60714197D01*
X101282914Y-60503828D01*
X101222658Y-60420894D01*
X101222658Y-60420893D01*
X100482962Y-61160590D01*
X100465925Y-61097007D01*
X100400099Y-60982993D01*
X100307007Y-60889901D01*
X100192993Y-60824075D01*
X100129409Y-60807037D01*
X100869105Y-60067340D01*
X100867551Y-60047594D01*
X100881915Y-59979216D01*
X100918284Y-59937547D01*
X100977510Y-59894517D01*
X101144517Y-59727510D01*
X101283343Y-59536433D01*
X101390568Y-59325992D01*
X101463553Y-59101368D01*
X101472661Y-59043865D01*
X101500500Y-58868097D01*
X101500500Y-58631902D01*
X101463553Y-58398631D01*
X101399856Y-58202593D01*
X101390568Y-58174008D01*
X101390566Y-58174005D01*
X101390566Y-58174003D01*
X101308881Y-58013688D01*
X101283343Y-57963567D01*
X101144517Y-57772490D01*
X100977510Y-57605483D01*
X100786433Y-57466657D01*
X100719893Y-57432753D01*
X100575996Y-57359433D01*
X100351368Y-57286446D01*
X100118097Y-57249500D01*
X100118092Y-57249500D01*
X99881908Y-57249500D01*
X99881903Y-57249500D01*
X99648631Y-57286446D01*
X99424003Y-57359433D01*
X99213566Y-57466657D01*
X99104550Y-57545862D01*
X99022490Y-57605483D01*
X99022488Y-57605485D01*
X99022487Y-57605485D01*
X98855485Y-57772487D01*
X98855485Y-57772488D01*
X98855483Y-57772490D01*
X98843873Y-57788470D01*
X98716657Y-57963566D01*
X98609433Y-58174003D01*
X98536446Y-58398631D01*
X98499500Y-58631902D01*
X98499500Y-58868097D01*
X98536446Y-59101368D01*
X98609433Y-59325996D01*
X98701998Y-59507664D01*
X98716657Y-59536433D01*
X98855483Y-59727510D01*
X99022490Y-59894517D01*
X99081716Y-59937547D01*
X99124381Y-59992875D01*
X99132448Y-60047593D01*
X99130893Y-60067340D01*
X99870591Y-60807037D01*
X99807007Y-60824075D01*
X99692993Y-60889901D01*
X99599901Y-60982993D01*
X99534075Y-61097007D01*
X99517037Y-61160591D01*
X98777340Y-60420894D01*
X98717084Y-60503830D01*
X98609897Y-60714197D01*
X98536934Y-60938752D01*
X98500000Y-61171947D01*
X98500000Y-61408052D01*
X98536934Y-61641247D01*
X98609897Y-61865802D01*
X98717087Y-62076174D01*
X98777338Y-62159104D01*
X98777340Y-62159105D01*
X99517037Y-61419408D01*
X99534075Y-61482993D01*
X99599901Y-61597007D01*
X99692993Y-61690099D01*
X99807007Y-61755925D01*
X99870590Y-61772962D01*
X99130893Y-62512658D01*
X99132448Y-62532405D01*
X99118084Y-62600783D01*
X99081717Y-62642451D01*
X99022490Y-62685482D01*
X98855485Y-62852487D01*
X98855485Y-62852488D01*
X98855483Y-62852490D01*
X98804376Y-62922832D01*
X98716657Y-63043566D01*
X98609433Y-63254003D01*
X98536446Y-63478631D01*
X98502559Y-63692585D01*
X98472629Y-63755720D01*
X98413318Y-63792651D01*
X98343455Y-63791653D01*
X98307204Y-63773507D01*
X98169199Y-63673240D01*
X98000836Y-63587454D01*
X97821118Y-63529059D01*
X97634486Y-63499500D01*
X97634481Y-63499500D01*
X97445519Y-63499500D01*
X97445514Y-63499500D01*
X97258881Y-63529059D01*
X97079163Y-63587454D01*
X96910800Y-63673240D01*
X96857579Y-63711908D01*
X96757927Y-63784310D01*
X96757925Y-63784312D01*
X96757924Y-63784312D01*
X96624312Y-63917924D01*
X96624312Y-63917925D01*
X96624310Y-63917927D01*
X96602394Y-63948092D01*
X96513240Y-64070800D01*
X96427454Y-64239163D01*
X96369059Y-64418881D01*
X96339500Y-64605513D01*
X93668907Y-64605513D01*
X93770568Y-64405992D01*
X93843553Y-64181368D01*
X93880500Y-63948097D01*
X93880500Y-63711902D01*
X93843553Y-63478631D01*
X93772725Y-63260648D01*
X93770568Y-63254008D01*
X93770566Y-63254005D01*
X93770566Y-63254003D01*
X93688881Y-63093689D01*
X93663343Y-63043567D01*
X93524517Y-62852490D01*
X93357510Y-62685483D01*
X93298282Y-62642451D01*
X93255617Y-62587122D01*
X93247550Y-62532404D01*
X93249104Y-62512657D01*
X92509408Y-61772962D01*
X92572993Y-61755925D01*
X92687007Y-61690099D01*
X92780099Y-61597007D01*
X92845925Y-61482993D01*
X92862962Y-61419409D01*
X93602658Y-62159105D01*
X93602658Y-62159104D01*
X93662914Y-62076169D01*
X93662918Y-62076163D01*
X93770102Y-61865802D01*
X93843065Y-61641247D01*
X93880000Y-61408052D01*
X93880000Y-61171947D01*
X93843065Y-60938752D01*
X93770102Y-60714197D01*
X93662914Y-60503828D01*
X93602658Y-60420894D01*
X93602658Y-60420893D01*
X92862962Y-61160590D01*
X92845925Y-61097007D01*
X92780099Y-60982993D01*
X92687007Y-60889901D01*
X92572993Y-60824075D01*
X92509409Y-60807037D01*
X93249105Y-60067340D01*
X93247551Y-60047594D01*
X93261915Y-59979216D01*
X93298284Y-59937547D01*
X93357510Y-59894517D01*
X93524517Y-59727510D01*
X93663343Y-59536433D01*
X93770568Y-59325992D01*
X93843553Y-59101368D01*
X93852661Y-59043865D01*
X93880500Y-58868097D01*
X93880500Y-58631902D01*
X93849669Y-58437248D01*
X93843553Y-58398632D01*
X93802547Y-58272433D01*
X93800553Y-58202593D01*
X93832796Y-58146437D01*
X95342416Y-56636819D01*
X95403739Y-56603334D01*
X95430097Y-56600500D01*
X98513331Y-56600500D01*
X98513347Y-56600501D01*
X98520943Y-56600501D01*
X98679054Y-56600501D01*
X98679057Y-56600501D01*
X98831785Y-56559577D01*
X98918704Y-56509394D01*
X98968716Y-56480520D01*
X99080520Y-56368716D01*
X99080520Y-56368714D01*
X99090724Y-56358511D01*
X99090728Y-56358506D01*
X102241904Y-53207329D01*
X102303225Y-53173846D01*
X102348978Y-53172539D01*
X102424542Y-53184507D01*
X102525515Y-53200500D01*
X102525519Y-53200500D01*
X102714486Y-53200500D01*
X102901118Y-53170940D01*
X102902623Y-53170451D01*
X103080832Y-53112547D01*
X103249199Y-53026760D01*
X103402073Y-52915690D01*
X103535690Y-52782073D01*
X103646760Y-52629199D01*
X103732547Y-52460832D01*
X103772069Y-52339195D01*
X103811507Y-52281521D01*
X103875866Y-52254323D01*
X103944712Y-52266238D01*
X103996188Y-52313482D01*
X104007930Y-52339194D01*
X104018793Y-52372627D01*
X104047454Y-52460836D01*
X104133107Y-52628937D01*
X104133240Y-52629199D01*
X104244310Y-52782073D01*
X104377927Y-52915690D01*
X104530801Y-53026760D01*
X104577541Y-53050575D01*
X104699163Y-53112545D01*
X104699165Y-53112545D01*
X104699168Y-53112547D01*
X104795497Y-53143846D01*
X104878881Y-53170940D01*
X105065514Y-53200500D01*
X105065519Y-53200500D01*
X105254486Y-53200500D01*
X105371017Y-53182042D01*
X105413753Y-53175274D01*
X105419177Y-53175975D01*
X105424304Y-53174063D01*
X105453454Y-53180404D01*
X105483045Y-53184228D01*
X105488650Y-53188060D01*
X105492577Y-53188915D01*
X105520831Y-53210066D01*
X105663181Y-53352416D01*
X105696666Y-53413739D01*
X105699500Y-53440097D01*
X105699500Y-53578846D01*
X105730261Y-53733489D01*
X105730264Y-53733501D01*
X105790602Y-53879172D01*
X105790609Y-53879185D01*
X105878210Y-54010288D01*
X105878213Y-54010292D01*
X105989707Y-54121786D01*
X105989711Y-54121789D01*
X106120814Y-54209390D01*
X106120827Y-54209397D01*
X106182048Y-54234755D01*
X106266503Y-54269737D01*
X106421153Y-54300499D01*
X106421156Y-54300500D01*
X106421158Y-54300500D01*
X106578844Y-54300500D01*
X106578845Y-54300499D01*
X106733497Y-54269737D01*
X106879179Y-54209394D01*
X107010289Y-54121789D01*
X107121789Y-54010289D01*
X107209394Y-53879179D01*
X107269737Y-53733497D01*
X107300500Y-53578842D01*
X107300500Y-53421158D01*
X107300500Y-53421155D01*
X107279864Y-53317415D01*
X107286091Y-53247823D01*
X107328954Y-53192646D01*
X107394843Y-53169401D01*
X107420879Y-53170750D01*
X107605553Y-53200000D01*
X107794447Y-53200000D01*
X107981002Y-53170451D01*
X108160637Y-53112085D01*
X108328937Y-53026331D01*
X108354328Y-53007883D01*
X108354328Y-53007882D01*
X107746446Y-52400000D01*
X107752661Y-52400000D01*
X107854394Y-52372741D01*
X107945606Y-52320080D01*
X108020080Y-52245606D01*
X108072741Y-52154394D01*
X108100000Y-52052661D01*
X108100000Y-52046446D01*
X108707882Y-52654328D01*
G37*
%TD.AperFunction*%
%TA.AperFunction,Conductor*%
G36*
X132016942Y-67220185D02*
G01*
X132037584Y-67236819D01*
X132855921Y-68055157D01*
X132889406Y-68116480D01*
X132886173Y-68181149D01*
X132881523Y-68195460D01*
X132881523Y-68195462D01*
X132849500Y-68397648D01*
X132849500Y-68602351D01*
X132881522Y-68804534D01*
X132944781Y-68999223D01*
X132996385Y-69100500D01*
X133037585Y-69181359D01*
X133037715Y-69181613D01*
X133158028Y-69347213D01*
X133302786Y-69491971D01*
X133457749Y-69604556D01*
X133468390Y-69612287D01*
X133579829Y-69669068D01*
X133650776Y-69705218D01*
X133650778Y-69705218D01*
X133650781Y-69705220D01*
X133721682Y-69728257D01*
X133845465Y-69768477D01*
X133946557Y-69784488D01*
X134047648Y-69800500D01*
X134047649Y-69800500D01*
X134252351Y-69800500D01*
X134252352Y-69800500D01*
X134454534Y-69768477D01*
X134649219Y-69705220D01*
X134831610Y-69612287D01*
X134940217Y-69533380D01*
X134997213Y-69491971D01*
X134997215Y-69491968D01*
X134997219Y-69491966D01*
X135141966Y-69347219D01*
X135141968Y-69347215D01*
X135141971Y-69347213D01*
X135254017Y-69192993D01*
X135262287Y-69181610D01*
X135269117Y-69168204D01*
X135279566Y-69157140D01*
X135285889Y-69143297D01*
X135303068Y-69132256D01*
X135317091Y-69117409D01*
X135332772Y-69113167D01*
X135344667Y-69105523D01*
X135379602Y-69100500D01*
X135460398Y-69100500D01*
X135527437Y-69120185D01*
X135570883Y-69168205D01*
X135577715Y-69181614D01*
X135698028Y-69347213D01*
X135842786Y-69491971D01*
X135997749Y-69604556D01*
X136008390Y-69612287D01*
X136119829Y-69669068D01*
X136190776Y-69705218D01*
X136190778Y-69705218D01*
X136190781Y-69705220D01*
X136261682Y-69728257D01*
X136385465Y-69768477D01*
X136486557Y-69784488D01*
X136587648Y-69800500D01*
X136587649Y-69800500D01*
X136792351Y-69800500D01*
X136792352Y-69800500D01*
X136994534Y-69768477D01*
X137189219Y-69705220D01*
X137371610Y-69612287D01*
X137480217Y-69533380D01*
X137537213Y-69491971D01*
X137537215Y-69491968D01*
X137537219Y-69491966D01*
X137681966Y-69347219D01*
X137681968Y-69347215D01*
X137681971Y-69347213D01*
X137782104Y-69209390D01*
X137802287Y-69181610D01*
X137849795Y-69088369D01*
X137897769Y-69037573D01*
X137965590Y-69020778D01*
X138031725Y-69043315D01*
X138070765Y-69088369D01*
X138118141Y-69181350D01*
X138118147Y-69181359D01*
X138150523Y-69225921D01*
X138150524Y-69225922D01*
X138738871Y-68637574D01*
X138754755Y-68696853D01*
X138821898Y-68813147D01*
X138916853Y-68908102D01*
X139033147Y-68975245D01*
X139092424Y-68991128D01*
X138504076Y-69579474D01*
X138548650Y-69611859D01*
X138730968Y-69704755D01*
X138925582Y-69767990D01*
X139127683Y-69800000D01*
X139321402Y-69800000D01*
X139388441Y-69819685D01*
X139434196Y-69872489D01*
X139444140Y-69941647D01*
X139415115Y-70005203D01*
X139409083Y-70011681D01*
X138807584Y-70613181D01*
X138746261Y-70646666D01*
X138719903Y-70649500D01*
X118680098Y-70649500D01*
X118650657Y-70640855D01*
X118620671Y-70634332D01*
X118615655Y-70630577D01*
X118613059Y-70629815D01*
X118592417Y-70613181D01*
X118580417Y-70601181D01*
X118546932Y-70539858D01*
X118551916Y-70470166D01*
X118593788Y-70414233D01*
X118659252Y-70389816D01*
X118668098Y-70389500D01*
X118779361Y-70389500D01*
X118884082Y-70372912D01*
X118995375Y-70355286D01*
X119203383Y-70287701D01*
X119398257Y-70188407D01*
X119510276Y-70107021D01*
X119575193Y-70059857D01*
X119575195Y-70059854D01*
X119575199Y-70059852D01*
X119729852Y-69905199D01*
X119839683Y-69754028D01*
X119895011Y-69711364D01*
X119964624Y-69705385D01*
X120026420Y-69737990D01*
X120040313Y-69754023D01*
X120121884Y-69866297D01*
X120150148Y-69905199D01*
X120304806Y-70059857D01*
X120470374Y-70180147D01*
X120481743Y-70188407D01*
X120579343Y-70238137D01*
X120676616Y-70287701D01*
X120676619Y-70287702D01*
X120747700Y-70310797D01*
X120884625Y-70355286D01*
X120984672Y-70371132D01*
X121100639Y-70389500D01*
X121100644Y-70389500D01*
X121319361Y-70389500D01*
X121424082Y-70372912D01*
X121535375Y-70355286D01*
X121743383Y-70287701D01*
X121938257Y-70188407D01*
X122050276Y-70107021D01*
X122115193Y-70059857D01*
X122115195Y-70059854D01*
X122115199Y-70059852D01*
X122269852Y-69905199D01*
X122379683Y-69754028D01*
X122435011Y-69711364D01*
X122504624Y-69705385D01*
X122566420Y-69737990D01*
X122580313Y-69754023D01*
X122661884Y-69866297D01*
X122690148Y-69905199D01*
X122844806Y-70059857D01*
X123010374Y-70180147D01*
X123021743Y-70188407D01*
X123119343Y-70238137D01*
X123216616Y-70287701D01*
X123216619Y-70287702D01*
X123287700Y-70310797D01*
X123424625Y-70355286D01*
X123524672Y-70371132D01*
X123640639Y-70389500D01*
X123640644Y-70389500D01*
X123859361Y-70389500D01*
X123964082Y-70372912D01*
X124075375Y-70355286D01*
X124283383Y-70287701D01*
X124478257Y-70188407D01*
X124590276Y-70107021D01*
X124655193Y-70059857D01*
X124655195Y-70059854D01*
X124655199Y-70059852D01*
X124809852Y-69905199D01*
X124809854Y-69905195D01*
X124809857Y-69905193D01*
X124907834Y-69770337D01*
X124938407Y-69728257D01*
X125037701Y-69533383D01*
X125105286Y-69325375D01*
X125127465Y-69185345D01*
X125139500Y-69109361D01*
X125139500Y-68890638D01*
X125108930Y-68697635D01*
X125105286Y-68674625D01*
X125037701Y-68466617D01*
X125037701Y-68466616D01*
X124994099Y-68381044D01*
X124938407Y-68271743D01*
X124882989Y-68195466D01*
X124809857Y-68094806D01*
X124655193Y-67940142D01*
X124478260Y-67811595D01*
X124478259Y-67811594D01*
X124478257Y-67811593D01*
X124378112Y-67760566D01*
X124283383Y-67712298D01*
X124283380Y-67712297D01*
X124075376Y-67644714D01*
X123859361Y-67610500D01*
X123859356Y-67610500D01*
X123640644Y-67610500D01*
X123640639Y-67610500D01*
X123424623Y-67644714D01*
X123216619Y-67712297D01*
X123216616Y-67712298D01*
X123021739Y-67811595D01*
X122844806Y-67940142D01*
X122690142Y-68094806D01*
X122580318Y-68245969D01*
X122524989Y-68288635D01*
X122455375Y-68294614D01*
X122393580Y-68262009D01*
X122379682Y-68245969D01*
X122269857Y-68094806D01*
X122115193Y-67940142D01*
X121938260Y-67811595D01*
X121938259Y-67811594D01*
X121938257Y-67811593D01*
X121838112Y-67760566D01*
X121743383Y-67712298D01*
X121743380Y-67712297D01*
X121535376Y-67644714D01*
X121319361Y-67610500D01*
X121319356Y-67610500D01*
X121100644Y-67610500D01*
X121100639Y-67610500D01*
X120884623Y-67644714D01*
X120676619Y-67712297D01*
X120676616Y-67712298D01*
X120481739Y-67811595D01*
X120304806Y-67940142D01*
X120150142Y-68094806D01*
X120040318Y-68245969D01*
X119984989Y-68288635D01*
X119915375Y-68294614D01*
X119853580Y-68262009D01*
X119839682Y-68245969D01*
X119729857Y-68094806D01*
X119575193Y-67940142D01*
X119398260Y-67811595D01*
X119398259Y-67811594D01*
X119398257Y-67811593D01*
X119298112Y-67760566D01*
X119203383Y-67712298D01*
X119203380Y-67712297D01*
X118995376Y-67644714D01*
X118779361Y-67610500D01*
X118779356Y-67610500D01*
X118560644Y-67610500D01*
X118560639Y-67610500D01*
X118344623Y-67644714D01*
X118136619Y-67712297D01*
X118136616Y-67712298D01*
X117941739Y-67811595D01*
X117764806Y-67940142D01*
X117610142Y-68094806D01*
X117500318Y-68245969D01*
X117444989Y-68288635D01*
X117375375Y-68294614D01*
X117313580Y-68262009D01*
X117299682Y-68245969D01*
X117189857Y-68094806D01*
X117035193Y-67940142D01*
X116858260Y-67811595D01*
X116858259Y-67811594D01*
X116858257Y-67811593D01*
X116758112Y-67760566D01*
X116663383Y-67712298D01*
X116663380Y-67712297D01*
X116455376Y-67644714D01*
X116239361Y-67610500D01*
X116239356Y-67610500D01*
X116020644Y-67610500D01*
X116020639Y-67610500D01*
X115804623Y-67644714D01*
X115596619Y-67712297D01*
X115596616Y-67712298D01*
X115401739Y-67811595D01*
X115224806Y-67940142D01*
X115070146Y-68094802D01*
X115070142Y-68094807D01*
X114960008Y-68246394D01*
X114904678Y-68289060D01*
X114835065Y-68295039D01*
X114773270Y-68262433D01*
X114759372Y-68246394D01*
X114649475Y-68095133D01*
X114649471Y-68095128D01*
X114494871Y-67940528D01*
X114494866Y-67940524D01*
X114317998Y-67812023D01*
X114123191Y-67712762D01*
X114123188Y-67712761D01*
X113915258Y-67645201D01*
X113840000Y-67633281D01*
X113840000Y-68566988D01*
X113782993Y-68534075D01*
X113655826Y-68500000D01*
X113524174Y-68500000D01*
X113397007Y-68534075D01*
X113340000Y-68566988D01*
X113340000Y-67633281D01*
X113264741Y-67645201D01*
X113056811Y-67712761D01*
X113056808Y-67712762D01*
X112862001Y-67812023D01*
X112685133Y-67940524D01*
X112685128Y-67940528D01*
X112530528Y-68095128D01*
X112530524Y-68095133D01*
X112420627Y-68246394D01*
X112365297Y-68289060D01*
X112295684Y-68295039D01*
X112233889Y-68262433D01*
X112219991Y-68246394D01*
X112109857Y-68094807D01*
X112109853Y-68094802D01*
X111955193Y-67940142D01*
X111778260Y-67811595D01*
X111778259Y-67811594D01*
X111778257Y-67811593D01*
X111678112Y-67760566D01*
X111583383Y-67712298D01*
X111583380Y-67712297D01*
X111375376Y-67644714D01*
X111159361Y-67610500D01*
X111159356Y-67610500D01*
X111048098Y-67610500D01*
X111026852Y-67604261D01*
X111004764Y-67602682D01*
X110993980Y-67594609D01*
X110981059Y-67590815D01*
X110966559Y-67574081D01*
X110948831Y-67560810D01*
X110944123Y-67548189D01*
X110935304Y-67538011D01*
X110932152Y-67516093D01*
X110924414Y-67495346D01*
X110927276Y-67482185D01*
X110925360Y-67468853D01*
X110934559Y-67448709D01*
X110939266Y-67427073D01*
X110952534Y-67409347D01*
X110954385Y-67405297D01*
X110960417Y-67398819D01*
X111122417Y-67236819D01*
X111183740Y-67203334D01*
X111210098Y-67200500D01*
X131949903Y-67200500D01*
X132016942Y-67220185D01*
G37*
%TD.AperFunction*%
%TA.AperFunction,Conductor*%
G36*
X159517659Y-52304185D02*
G01*
X159563414Y-52356989D01*
X159574620Y-52408500D01*
X159574620Y-53607333D01*
X159613374Y-53802161D01*
X159613376Y-53802169D01*
X159689397Y-53985701D01*
X159689402Y-53985710D01*
X159799766Y-54150880D01*
X159799769Y-54150884D01*
X159940235Y-54291350D01*
X159940239Y-54291353D01*
X160105409Y-54401717D01*
X160105415Y-54401720D01*
X160105416Y-54401721D01*
X160288951Y-54477744D01*
X160448092Y-54509399D01*
X160483786Y-54516499D01*
X160483790Y-54516500D01*
X160483791Y-54516500D01*
X160682450Y-54516500D01*
X160682451Y-54516499D01*
X160877289Y-54477744D01*
X161060824Y-54401721D01*
X161226001Y-54291353D01*
X161366473Y-54150881D01*
X161476841Y-53985704D01*
X161552864Y-53802169D01*
X161591620Y-53607329D01*
X161591620Y-52408500D01*
X161611305Y-52341461D01*
X161664109Y-52295706D01*
X161715620Y-52284500D01*
X162000620Y-52284500D01*
X162067659Y-52304185D01*
X162113414Y-52356989D01*
X162124620Y-52408500D01*
X162124620Y-53607333D01*
X162163374Y-53802161D01*
X162163376Y-53802169D01*
X162239397Y-53985701D01*
X162239402Y-53985710D01*
X162349766Y-54150880D01*
X162349769Y-54150884D01*
X162490235Y-54291350D01*
X162490239Y-54291353D01*
X162655409Y-54401717D01*
X162655415Y-54401720D01*
X162655416Y-54401721D01*
X162838951Y-54477744D01*
X162998092Y-54509399D01*
X163033786Y-54516499D01*
X163033790Y-54516500D01*
X163033791Y-54516500D01*
X163232450Y-54516500D01*
X163232451Y-54516499D01*
X163427289Y-54477744D01*
X163610824Y-54401721D01*
X163776001Y-54291353D01*
X163916473Y-54150881D01*
X164026841Y-53985704D01*
X164102864Y-53802169D01*
X164141620Y-53607329D01*
X164141620Y-52408500D01*
X164161305Y-52341461D01*
X164214109Y-52295706D01*
X164265620Y-52284500D01*
X169518489Y-52284500D01*
X169547929Y-52293144D01*
X169577916Y-52299668D01*
X169582931Y-52303422D01*
X169585528Y-52304185D01*
X169606170Y-52320819D01*
X169651500Y-52366149D01*
X169684985Y-52427472D01*
X169680001Y-52497164D01*
X169638129Y-52553097D01*
X169572665Y-52577514D01*
X169563819Y-52577830D01*
X169507298Y-52577830D01*
X169390700Y-52596297D01*
X169274101Y-52614765D01*
X169049549Y-52687726D01*
X168839180Y-52794916D01*
X168648178Y-52933686D01*
X168648173Y-52933690D01*
X168481220Y-53100643D01*
X168481216Y-53100648D01*
X168342446Y-53291650D01*
X168235256Y-53502019D01*
X168162295Y-53726571D01*
X168125360Y-53959768D01*
X168125360Y-54195872D01*
X168126758Y-54204700D01*
X168117802Y-54273993D01*
X168091965Y-54311777D01*
X166781286Y-55622458D01*
X166669481Y-55734262D01*
X166669477Y-55734267D01*
X166623068Y-55814652D01*
X166623068Y-55814653D01*
X166590423Y-55871194D01*
X166576781Y-55922104D01*
X166549499Y-56023923D01*
X166549499Y-56023925D01*
X166549499Y-56192026D01*
X166549500Y-56192039D01*
X166549500Y-65463330D01*
X166549499Y-65463348D01*
X166549499Y-65629054D01*
X166549498Y-65629054D01*
X166578640Y-65737810D01*
X166590423Y-65781785D01*
X166608184Y-65812547D01*
X166634127Y-65857482D01*
X166669479Y-65918715D01*
X166788349Y-66037585D01*
X166788355Y-66037590D01*
X166965425Y-66214660D01*
X166998910Y-66275983D01*
X166999361Y-66278149D01*
X167030261Y-66433491D01*
X167030264Y-66433501D01*
X167090602Y-66579172D01*
X167090609Y-66579185D01*
X167178210Y-66710288D01*
X167178213Y-66710292D01*
X167289707Y-66821786D01*
X167289711Y-66821789D01*
X167420814Y-66909390D01*
X167420827Y-66909397D01*
X167566498Y-66969735D01*
X167566503Y-66969737D01*
X167721153Y-67000499D01*
X167721156Y-67000500D01*
X167721158Y-67000500D01*
X167878844Y-67000500D01*
X168007406Y-66974927D01*
X168076998Y-66981154D01*
X168132175Y-67024017D01*
X168154071Y-67077146D01*
X168162294Y-67129068D01*
X168235256Y-67353620D01*
X168309021Y-67498389D01*
X168321917Y-67567058D01*
X168295641Y-67631798D01*
X168286217Y-67642365D01*
X165315404Y-70613181D01*
X165254081Y-70646666D01*
X165227723Y-70649500D01*
X164210998Y-70649500D01*
X164143959Y-70629815D01*
X164098204Y-70577011D01*
X164088260Y-70507853D01*
X164100513Y-70469205D01*
X164113789Y-70443149D01*
X164127779Y-70415692D01*
X164179921Y-70255214D01*
X164201199Y-70120872D01*
X164206317Y-70088560D01*
X164206317Y-69919813D01*
X164187419Y-69800500D01*
X164179921Y-69753160D01*
X164127779Y-69592682D01*
X164127779Y-69592681D01*
X164088746Y-69516076D01*
X164051174Y-69442336D01*
X163951993Y-69305826D01*
X163832678Y-69186511D01*
X163696168Y-69087330D01*
X163545822Y-69010724D01*
X163545819Y-69010723D01*
X163385345Y-68958583D01*
X163218690Y-68932187D01*
X163218685Y-68932187D01*
X163049949Y-68932187D01*
X163049944Y-68932187D01*
X162883288Y-68958583D01*
X162722814Y-69010723D01*
X162722811Y-69010724D01*
X162572465Y-69087330D01*
X162435954Y-69186512D01*
X162316642Y-69305824D01*
X162217460Y-69442335D01*
X162140854Y-69592681D01*
X162140853Y-69592684D01*
X162088713Y-69753158D01*
X162062317Y-69919813D01*
X162062317Y-70088560D01*
X162088713Y-70255215D01*
X162140853Y-70415689D01*
X162140855Y-70415692D01*
X162168121Y-70469205D01*
X162181017Y-70537875D01*
X162154741Y-70602615D01*
X162097634Y-70642872D01*
X162057636Y-70649500D01*
X161670998Y-70649500D01*
X161603959Y-70629815D01*
X161558204Y-70577011D01*
X161548260Y-70507853D01*
X161560513Y-70469205D01*
X161573789Y-70443149D01*
X161587779Y-70415692D01*
X161639921Y-70255214D01*
X161661199Y-70120872D01*
X161666317Y-70088560D01*
X161666317Y-69919813D01*
X161647419Y-69800500D01*
X161639921Y-69753160D01*
X161587779Y-69592682D01*
X161587779Y-69592681D01*
X161548746Y-69516076D01*
X161511174Y-69442336D01*
X161411993Y-69305826D01*
X161292678Y-69186511D01*
X161156168Y-69087330D01*
X161005822Y-69010724D01*
X161005819Y-69010723D01*
X160845345Y-68958583D01*
X160678690Y-68932187D01*
X160678685Y-68932187D01*
X160509949Y-68932187D01*
X160509944Y-68932187D01*
X160343288Y-68958583D01*
X160182814Y-69010723D01*
X160182811Y-69010724D01*
X160032465Y-69087330D01*
X159895954Y-69186512D01*
X159776642Y-69305824D01*
X159677460Y-69442335D01*
X159600854Y-69592681D01*
X159600853Y-69592684D01*
X159548713Y-69753158D01*
X159522317Y-69919813D01*
X159522317Y-70088560D01*
X159548713Y-70255215D01*
X159600853Y-70415689D01*
X159600855Y-70415692D01*
X159628121Y-70469205D01*
X159641017Y-70537875D01*
X159614741Y-70602615D01*
X159557634Y-70642872D01*
X159517636Y-70649500D01*
X157906513Y-70649500D01*
X157839474Y-70629815D01*
X157793719Y-70577011D01*
X157784911Y-70544336D01*
X157784379Y-70544442D01*
X157761667Y-70430264D01*
X157752427Y-70383813D01*
X157752425Y-70383808D01*
X157692087Y-70238137D01*
X157692080Y-70238124D01*
X157604479Y-70107021D01*
X157604476Y-70107017D01*
X157492982Y-69995523D01*
X157492978Y-69995520D01*
X157361875Y-69907919D01*
X157361862Y-69907912D01*
X157216191Y-69847574D01*
X157216179Y-69847571D01*
X157061535Y-69816810D01*
X157061532Y-69816810D01*
X156903848Y-69816810D01*
X156903845Y-69816810D01*
X156749200Y-69847571D01*
X156749188Y-69847574D01*
X156603517Y-69907912D01*
X156603504Y-69907919D01*
X156471815Y-69995912D01*
X156405137Y-70016790D01*
X156402924Y-70016810D01*
X155730828Y-70016810D01*
X155663789Y-69997125D01*
X155618034Y-69944321D01*
X155608090Y-69875163D01*
X155612897Y-69854491D01*
X155614077Y-69850860D01*
X155673145Y-69669068D01*
X155710080Y-69435872D01*
X155710080Y-69199768D01*
X155673145Y-68966572D01*
X155600185Y-68742024D01*
X155600183Y-68742021D01*
X155600183Y-68742019D01*
X155529018Y-68602351D01*
X155492996Y-68531654D01*
X155459346Y-68485339D01*
X155354223Y-68340648D01*
X155354219Y-68340643D01*
X155187264Y-68173688D01*
X155151672Y-68147830D01*
X155109005Y-68092501D01*
X155103025Y-68022887D01*
X155135631Y-67961092D01*
X155151672Y-67947192D01*
X155186938Y-67921570D01*
X155353834Y-67754674D01*
X155353834Y-67754673D01*
X155492568Y-67563724D01*
X155586276Y-67379813D01*
X159522317Y-67379813D01*
X159522317Y-67548560D01*
X159548713Y-67715215D01*
X159600853Y-67875689D01*
X159600854Y-67875692D01*
X159675854Y-68022887D01*
X159677460Y-68026038D01*
X159776641Y-68162548D01*
X159895956Y-68281863D01*
X160032466Y-68381044D01*
X160106206Y-68418616D01*
X160182811Y-68457649D01*
X160182814Y-68457650D01*
X160263051Y-68483720D01*
X160343290Y-68509791D01*
X160420476Y-68522016D01*
X160509944Y-68536187D01*
X160509949Y-68536187D01*
X160678690Y-68536187D01*
X160759482Y-68523390D01*
X160845344Y-68509791D01*
X161005822Y-68457649D01*
X161156168Y-68381044D01*
X161292678Y-68281863D01*
X161411993Y-68162548D01*
X161511174Y-68026038D01*
X161587779Y-67875692D01*
X161639921Y-67715214D01*
X161659753Y-67589999D01*
X161666317Y-67548560D01*
X161666317Y-67379813D01*
X162062317Y-67379813D01*
X162062317Y-67548560D01*
X162088713Y-67715215D01*
X162140853Y-67875689D01*
X162140854Y-67875692D01*
X162215854Y-68022887D01*
X162217460Y-68026038D01*
X162316641Y-68162548D01*
X162435956Y-68281863D01*
X162572466Y-68381044D01*
X162646206Y-68418616D01*
X162722811Y-68457649D01*
X162722814Y-68457650D01*
X162803051Y-68483720D01*
X162883290Y-68509791D01*
X162960476Y-68522016D01*
X163049944Y-68536187D01*
X163049949Y-68536187D01*
X163218690Y-68536187D01*
X163299482Y-68523390D01*
X163385344Y-68509791D01*
X163545822Y-68457649D01*
X163696168Y-68381044D01*
X163832678Y-68281863D01*
X163951993Y-68162548D01*
X164051174Y-68026038D01*
X164127779Y-67875692D01*
X164179921Y-67715214D01*
X164199753Y-67589999D01*
X164206317Y-67548560D01*
X164206317Y-67379813D01*
X164190524Y-67280104D01*
X164179921Y-67213160D01*
X164127779Y-67052682D01*
X164127779Y-67052681D01*
X164065005Y-66929481D01*
X164051174Y-66902336D01*
X163951993Y-66765826D01*
X163832678Y-66646511D01*
X163696168Y-66547330D01*
X163545822Y-66470724D01*
X163545819Y-66470723D01*
X163385345Y-66418583D01*
X163218690Y-66392187D01*
X163218685Y-66392187D01*
X163049949Y-66392187D01*
X163049944Y-66392187D01*
X162883288Y-66418583D01*
X162722814Y-66470723D01*
X162722811Y-66470724D01*
X162572465Y-66547330D01*
X162435954Y-66646512D01*
X162316642Y-66765824D01*
X162217460Y-66902335D01*
X162140854Y-67052681D01*
X162140853Y-67052684D01*
X162088713Y-67213158D01*
X162062317Y-67379813D01*
X161666317Y-67379813D01*
X161650524Y-67280104D01*
X161639921Y-67213160D01*
X161587779Y-67052682D01*
X161587779Y-67052681D01*
X161525005Y-66929481D01*
X161511174Y-66902336D01*
X161411993Y-66765826D01*
X161292678Y-66646511D01*
X161156168Y-66547330D01*
X161005822Y-66470724D01*
X161005819Y-66470723D01*
X160845345Y-66418583D01*
X160678690Y-66392187D01*
X160678685Y-66392187D01*
X160509949Y-66392187D01*
X160509944Y-66392187D01*
X160343288Y-66418583D01*
X160182814Y-66470723D01*
X160182811Y-66470724D01*
X160032465Y-66547330D01*
X159895954Y-66646512D01*
X159776642Y-66765824D01*
X159677460Y-66902335D01*
X159600854Y-67052681D01*
X159600853Y-67052684D01*
X159548713Y-67213158D01*
X159522317Y-67379813D01*
X155586276Y-67379813D01*
X155599719Y-67353429D01*
X155605179Y-67336627D01*
X155605179Y-67336626D01*
X155672656Y-67128955D01*
X155672658Y-67128949D01*
X155688675Y-67027820D01*
X151982205Y-67027820D01*
X151998221Y-67128949D01*
X151998223Y-67128955D01*
X152071159Y-67353428D01*
X152178311Y-67563724D01*
X152317045Y-67754673D01*
X152317045Y-67754674D01*
X152483935Y-67921564D01*
X152519210Y-67947193D01*
X152561875Y-68002523D01*
X152567854Y-68072136D01*
X152535248Y-68133931D01*
X152519212Y-68147826D01*
X152483612Y-68173692D01*
X152483610Y-68173694D01*
X152483609Y-68173694D01*
X152316660Y-68340643D01*
X152316656Y-68340648D01*
X152177886Y-68531650D01*
X152177884Y-68531654D01*
X152141862Y-68602352D01*
X152117780Y-68649615D01*
X152069805Y-68700411D01*
X152007295Y-68717320D01*
X150617917Y-68717320D01*
X150550878Y-68697635D01*
X150530236Y-68681001D01*
X150334574Y-68485339D01*
X150301089Y-68424016D01*
X150300638Y-68421849D01*
X150275413Y-68295039D01*
X150269737Y-68266503D01*
X150261232Y-68245969D01*
X150209397Y-68120827D01*
X150209390Y-68120814D01*
X150121789Y-67989711D01*
X150121786Y-67989707D01*
X150010292Y-67878213D01*
X150010288Y-67878210D01*
X149879185Y-67790609D01*
X149879172Y-67790602D01*
X149733501Y-67730264D01*
X149733489Y-67730261D01*
X149578845Y-67699500D01*
X149578842Y-67699500D01*
X149421158Y-67699500D01*
X149421155Y-67699500D01*
X149266510Y-67730261D01*
X149266498Y-67730264D01*
X149120827Y-67790602D01*
X149120814Y-67790609D01*
X148989711Y-67878210D01*
X148989707Y-67878213D01*
X148878213Y-67989707D01*
X148878210Y-67989711D01*
X148790609Y-68120814D01*
X148790602Y-68120827D01*
X148730264Y-68266498D01*
X148730261Y-68266510D01*
X148699500Y-68421153D01*
X148699500Y-68578846D01*
X148730261Y-68733489D01*
X148730264Y-68733501D01*
X148790602Y-68879172D01*
X148790609Y-68879185D01*
X148878210Y-69010288D01*
X148878213Y-69010292D01*
X148989707Y-69121786D01*
X148989711Y-69121789D01*
X149120814Y-69209390D01*
X149120827Y-69209397D01*
X149234763Y-69256590D01*
X149266503Y-69269737D01*
X149331147Y-69282595D01*
X149421849Y-69300638D01*
X149483760Y-69333023D01*
X149485339Y-69334574D01*
X149837298Y-69686533D01*
X149837300Y-69686536D01*
X149949104Y-69798340D01*
X149949813Y-69798749D01*
X149956097Y-69805017D01*
X149969166Y-69828879D01*
X149985217Y-69850860D01*
X149985706Y-69859078D01*
X149989660Y-69866297D01*
X149987753Y-69893440D01*
X149989372Y-69920606D01*
X149985341Y-69927782D01*
X149984765Y-69935995D01*
X149968484Y-69957800D01*
X149955161Y-69981527D01*
X149947889Y-69985386D01*
X149942965Y-69991982D01*
X149917480Y-70001524D01*
X149893444Y-70014281D01*
X149879682Y-70015677D01*
X149877532Y-70016483D01*
X149875684Y-70016083D01*
X149868528Y-70016810D01*
X147162189Y-70016810D01*
X147095150Y-69997125D01*
X147049395Y-69944321D01*
X147039451Y-69875163D01*
X147068476Y-69811607D01*
X147127254Y-69773833D01*
X147142792Y-69770337D01*
X147149616Y-69769255D01*
X147154534Y-69768477D01*
X147349219Y-69705220D01*
X147531610Y-69612287D01*
X147640217Y-69533380D01*
X147697213Y-69491971D01*
X147697215Y-69491968D01*
X147697219Y-69491966D01*
X147841966Y-69347219D01*
X147841968Y-69347215D01*
X147841971Y-69347213D01*
X147898259Y-69269738D01*
X147962287Y-69181610D01*
X148055220Y-68999219D01*
X148118477Y-68804534D01*
X148150500Y-68602352D01*
X148150500Y-68397648D01*
X148130558Y-68271739D01*
X148118477Y-68195465D01*
X148063426Y-68026038D01*
X148055220Y-68000781D01*
X148055218Y-68000778D01*
X148055218Y-68000776D01*
X148015054Y-67921951D01*
X147962287Y-67818390D01*
X147942098Y-67790602D01*
X147841971Y-67652786D01*
X147697213Y-67508028D01*
X147531613Y-67387715D01*
X147531612Y-67387714D01*
X147531610Y-67387713D01*
X147464322Y-67353428D01*
X147349223Y-67294781D01*
X147154534Y-67231522D01*
X146979995Y-67203878D01*
X146952352Y-67199500D01*
X146747648Y-67199500D01*
X146723441Y-67203334D01*
X146545465Y-67231522D01*
X146350776Y-67294781D01*
X146168386Y-67387715D01*
X146002786Y-67508028D01*
X145858028Y-67652786D01*
X145737715Y-67818386D01*
X145690485Y-67911080D01*
X145642510Y-67961876D01*
X145574689Y-67978671D01*
X145508554Y-67956134D01*
X145469515Y-67911080D01*
X145454999Y-67882591D01*
X145422287Y-67818390D01*
X145402098Y-67790602D01*
X145301971Y-67652786D01*
X145157213Y-67508028D01*
X144991613Y-67387715D01*
X144991612Y-67387714D01*
X144991610Y-67387713D01*
X144924322Y-67353428D01*
X144809223Y-67294781D01*
X144614534Y-67231522D01*
X144439995Y-67203878D01*
X144412352Y-67199500D01*
X144207648Y-67199500D01*
X144183441Y-67203334D01*
X144005465Y-67231522D01*
X143810776Y-67294781D01*
X143628386Y-67387715D01*
X143462786Y-67508028D01*
X143318028Y-67652786D01*
X143197715Y-67818386D01*
X143150485Y-67911080D01*
X143102510Y-67961876D01*
X143034689Y-67978671D01*
X142968554Y-67956134D01*
X142929515Y-67911080D01*
X142914999Y-67882591D01*
X142882287Y-67818390D01*
X142862098Y-67790602D01*
X142761971Y-67652786D01*
X142617213Y-67508028D01*
X142451613Y-67387715D01*
X142451612Y-67387714D01*
X142451610Y-67387713D01*
X142384322Y-67353428D01*
X142269223Y-67294781D01*
X142074534Y-67231522D01*
X141899995Y-67203878D01*
X141872352Y-67199500D01*
X141667648Y-67199500D01*
X141643441Y-67203334D01*
X141465465Y-67231522D01*
X141270776Y-67294781D01*
X141088386Y-67387715D01*
X140922786Y-67508028D01*
X140778028Y-67652786D01*
X140657713Y-67818388D01*
X140610203Y-67911630D01*
X140562228Y-67962426D01*
X140494407Y-67979220D01*
X140428272Y-67956682D01*
X140389234Y-67911628D01*
X140341861Y-67818652D01*
X140309474Y-67774077D01*
X140309474Y-67774076D01*
X139721128Y-68362424D01*
X139705245Y-68303147D01*
X139638102Y-68186853D01*
X139543147Y-68091898D01*
X139426853Y-68024755D01*
X139367574Y-68008871D01*
X139955922Y-67420524D01*
X139955921Y-67420523D01*
X139911359Y-67388147D01*
X139911350Y-67388141D01*
X139729031Y-67295244D01*
X139534417Y-67232009D01*
X139332317Y-67200000D01*
X139138596Y-67200000D01*
X139071557Y-67180315D01*
X139025802Y-67127511D01*
X139015858Y-67058353D01*
X139044883Y-66994797D01*
X139050907Y-66988327D01*
X139802416Y-66236819D01*
X139863739Y-66203334D01*
X139890097Y-66200500D01*
X151901044Y-66200500D01*
X151968083Y-66220185D01*
X152013838Y-66272989D01*
X152023782Y-66342147D01*
X152018975Y-66362819D01*
X151998223Y-66426684D01*
X151998221Y-66426690D01*
X151982205Y-66527820D01*
X155688675Y-66527820D01*
X155672658Y-66426690D01*
X155672656Y-66426684D01*
X155599720Y-66202211D01*
X155492568Y-65991915D01*
X155353834Y-65800966D01*
X155353834Y-65800965D01*
X155186943Y-65634074D01*
X155151669Y-65608446D01*
X155109004Y-65553115D01*
X155103025Y-65483502D01*
X155135631Y-65421707D01*
X155151664Y-65407815D01*
X155187268Y-65381948D01*
X155354218Y-65214998D01*
X155492996Y-65023986D01*
X155600185Y-64813616D01*
X155673145Y-64589068D01*
X155710080Y-64355872D01*
X155710080Y-64119768D01*
X155673145Y-63886572D01*
X155600185Y-63662024D01*
X155600182Y-63662019D01*
X155600181Y-63662014D01*
X155526418Y-63517248D01*
X155513521Y-63448579D01*
X155539797Y-63383839D01*
X155549212Y-63373281D01*
X156285676Y-62636819D01*
X156346999Y-62603334D01*
X156373357Y-62600500D01*
X156378844Y-62600500D01*
X156378845Y-62600499D01*
X156533497Y-62569737D01*
X156671299Y-62512658D01*
X156679172Y-62509397D01*
X156679172Y-62509396D01*
X156679179Y-62509394D01*
X156810289Y-62421789D01*
X156921789Y-62310289D01*
X157009394Y-62179179D01*
X157069737Y-62033497D01*
X157100500Y-61878842D01*
X157100500Y-61721158D01*
X157100500Y-61721155D01*
X157100499Y-61721153D01*
X157094322Y-61690099D01*
X157069737Y-61566503D01*
X157041984Y-61499500D01*
X157009397Y-61420827D01*
X157009390Y-61420814D01*
X156921789Y-61289711D01*
X156921786Y-61289707D01*
X156810292Y-61178213D01*
X156810288Y-61178210D01*
X156679185Y-61090609D01*
X156679172Y-61090602D01*
X156533501Y-61030264D01*
X156533489Y-61030261D01*
X156378845Y-60999500D01*
X156378842Y-60999500D01*
X156221158Y-60999500D01*
X156221155Y-60999500D01*
X156066510Y-61030261D01*
X156066498Y-61030264D01*
X155920827Y-61090602D01*
X155920809Y-61090612D01*
X155785127Y-61181272D01*
X155718450Y-61202150D01*
X155651070Y-61183665D01*
X155604380Y-61131686D01*
X155601675Y-61125621D01*
X155600185Y-61122023D01*
X155545504Y-61014707D01*
X155492996Y-60911654D01*
X155436048Y-60833272D01*
X155354223Y-60720648D01*
X155354219Y-60720643D01*
X155187264Y-60553688D01*
X155152097Y-60528139D01*
X155109431Y-60472810D01*
X155103450Y-60403197D01*
X155136055Y-60341401D01*
X155152097Y-60327501D01*
X155187264Y-60301951D01*
X155187264Y-60301950D01*
X155187268Y-60301948D01*
X155354218Y-60134998D01*
X155492996Y-59943986D01*
X155600185Y-59733616D01*
X155673145Y-59509068D01*
X155710080Y-59275872D01*
X155710080Y-59039768D01*
X155673145Y-58806572D01*
X155600185Y-58582024D01*
X155600183Y-58582021D01*
X155600183Y-58582019D01*
X155553100Y-58489615D01*
X155492996Y-58371654D01*
X155420909Y-58272434D01*
X155354223Y-58180648D01*
X155354219Y-58180643D01*
X155187264Y-58013688D01*
X155152097Y-57988139D01*
X155109431Y-57932810D01*
X155103450Y-57863197D01*
X155136055Y-57801401D01*
X155152097Y-57787501D01*
X155187264Y-57761951D01*
X155187264Y-57761950D01*
X155187268Y-57761948D01*
X155354218Y-57594998D01*
X155492996Y-57403986D01*
X155600185Y-57193616D01*
X155673145Y-56969068D01*
X155710080Y-56735872D01*
X155710080Y-56724500D01*
X155729765Y-56657461D01*
X155782569Y-56611706D01*
X155834080Y-56600500D01*
X155878844Y-56600500D01*
X155878845Y-56600499D01*
X156033497Y-56569737D01*
X156179179Y-56509394D01*
X156310289Y-56421789D01*
X156421789Y-56310289D01*
X156509394Y-56179179D01*
X156569737Y-56033497D01*
X156600500Y-55878842D01*
X156600500Y-55721158D01*
X156600500Y-55721155D01*
X156600499Y-55721153D01*
X156584484Y-55640642D01*
X156569737Y-55566503D01*
X156550260Y-55519480D01*
X156509397Y-55420827D01*
X156509390Y-55420814D01*
X156421789Y-55289711D01*
X156421786Y-55289707D01*
X156310292Y-55178213D01*
X156310288Y-55178210D01*
X156179185Y-55090609D01*
X156179172Y-55090602D01*
X156033501Y-55030264D01*
X156033491Y-55030261D01*
X155878149Y-54999361D01*
X155816238Y-54966976D01*
X155814660Y-54965425D01*
X155630046Y-54780811D01*
X155596561Y-54719488D01*
X155599796Y-54654811D01*
X155600183Y-54653619D01*
X155600185Y-54653616D01*
X155673145Y-54429068D01*
X155710080Y-54195872D01*
X155710080Y-53959768D01*
X155673145Y-53726572D01*
X155600185Y-53502024D01*
X155600183Y-53502021D01*
X155600183Y-53502019D01*
X155545202Y-53394114D01*
X155492996Y-53291654D01*
X155433719Y-53210066D01*
X155354223Y-53100648D01*
X155354219Y-53100643D01*
X155187266Y-52933690D01*
X155187261Y-52933686D01*
X154996259Y-52794916D01*
X154996258Y-52794915D01*
X154996256Y-52794914D01*
X154920827Y-52756481D01*
X154785890Y-52687726D01*
X154561338Y-52614765D01*
X154328142Y-52577830D01*
X154328141Y-52577830D01*
X154254768Y-52577830D01*
X154233522Y-52571591D01*
X154211434Y-52570012D01*
X154200650Y-52561939D01*
X154187729Y-52558145D01*
X154173229Y-52541411D01*
X154155501Y-52528140D01*
X154150793Y-52515519D01*
X154141974Y-52505341D01*
X154138822Y-52483423D01*
X154131084Y-52462676D01*
X154133946Y-52449515D01*
X154132030Y-52436183D01*
X154141229Y-52416039D01*
X154145936Y-52394403D01*
X154159204Y-52376677D01*
X154161055Y-52372627D01*
X154167087Y-52366149D01*
X154212417Y-52320819D01*
X154273740Y-52287334D01*
X154300098Y-52284500D01*
X159450620Y-52284500D01*
X159517659Y-52304185D01*
G37*
%TD.AperFunction*%
%TD*%
M02*
